<svg xmlns="http://www.w3.org/2000/svg" xmlns:xlink="http://www.w3.org/1999/xlink" version="1.1" class="marks" width="857" height="426" viewBox="0 0 857 426"><rect width="857" height="426" fill="white"/><g fill="none" stroke-miterlimit="10" transform="translate(52,27)"><g class="mark-group role-frame root" role="graphics-object" aria-roledescription="group mark container"><g transform="translate(0,0)"><path class="background" aria-hidden="true" d="M0.5,0.5h800v300h-800Z" stroke="#ddd"/><g><g class="mark-group role-axis" aria-hidden="true"><g transform="translate(0.5,0.5)"><path class="background" aria-hidden="true" d="M0,0h0v0h0Z" pointer-events="none"/><g><g class="mark-rule role-axis-grid" pointer-events="none"><line transform="translate(0,300)" x2="800" y2="0" stroke="#ddd" stroke-width="1" opacity="1"/><line transform="translate(0,273)" x2="800" y2="0" stroke="#ddd" stroke-width="1" opacity="1"/><line transform="translate(0,245)" x2="800" y2="0" stroke="#ddd" stroke-width="1" opacity="1"/><line transform="translate(0,218)" x2="800" y2="0" stroke="#ddd" stroke-width="1" opacity="1"/><line transform="translate(0,191)" x2="800" y2="0" stroke="#ddd" stroke-width="1" opacity="1"/><line transform="translate(0,164)" x2="800" y2="0" stroke="#ddd" stroke-width="1" opacity="1"/><line transform="translate(0,136)" x2="800" y2="0" stroke="#ddd" stroke-width="1" opacity="1"/><line transform="translate(0,109)" x2="800" y2="0" stroke="#ddd" stroke-width="1" opacity="1"/><line transform="translate(0,82)" x2="800" y2="0" stroke="#ddd" stroke-width="1" opacity="1"/><line transform="translate(0,55)" x2="800" y2="0" stroke="#ddd" stroke-width="1" opacity="1"/><line transform="translate(0,27)" x2="800" y2="0" stroke="#ddd" stroke-width="1" opacity="1"/><line transform="translate(0,0)" x2="800" y2="0" stroke="#ddd" stroke-width="1" opacity="1"/></g></g><path class="foreground" aria-hidden="true" d="" pointer-events="none" display="none"/></g></g><g class="mark-group role-axis" role="graphics-symbol" aria-roledescription="axis" aria-label="X-axis titled 'BSC Locations' for a discrete scale with 48 values: Coconut Mocha, Mocha Frappe, Turkish, Kopi Tubruk, Hazelnut Mocha, ending with Peppermint Mocha"><g transform="translate(0.5,300.5)"><path class="background" aria-hidden="true" d="M0,0h0v0h0Z" pointer-events="none"/><g><g class="mark-rule role-axis-tick" pointer-events="none"><line transform="translate(8,0)" x2="0" y2="5" stroke="#888" stroke-width="1" opacity="1"/><line transform="translate(24,0)" x2="0" y2="5" stroke="#888" stroke-width="1" opacity="1"/><line transform="translate(41,0)" x2="0" y2="5" stroke="#888" stroke-width="1" opacity="1"/><line transform="translate(58,0)" x2="0" y2="5" stroke="#888" stroke-width="1" opacity="1"/><line transform="translate(74,0)" x2="0" y2="5" stroke="#888" stroke-width="1" opacity="1"/><line transform="translate(91,0)" x2="0" y2="5" stroke="#888" stroke-width="1" opacity="1"/><line transform="translate(108,0)" x2="0" y2="5" stroke="#888" stroke-width="1" opacity="1"/><line transform="translate(124,0)" x2="0" y2="5" stroke="#888" stroke-width="1" opacity="1"/><line transform="translate(141,0)" x2="0" y2="5" stroke="#888" stroke-width="1" opacity="1"/><line transform="translate(158,0)" x2="0" y2="5" stroke="#888" stroke-width="1" opacity="1"/><line transform="translate(175,0)" x2="0" y2="5" stroke="#888" stroke-width="1" opacity="1"/><line transform="translate(191,0)" x2="0" y2="5" stroke="#888" stroke-width="1" opacity="1"/><line transform="translate(208,0)" x2="0" y2="5" stroke="#888" stroke-width="1" opacity="1"/><line transform="translate(225,0)" x2="0" y2="5" stroke="#888" stroke-width="1" opacity="1"/><line transform="translate(241,0)" x2="0" y2="5" stroke="#888" stroke-width="1" opacity="1"/><line transform="translate(258,0)" x2="0" y2="5" stroke="#888" stroke-width="1" opacity="1"/><line transform="translate(275,0)" x2="0" y2="5" stroke="#888" stroke-width="1" opacity="1"/><line transform="translate(291,0)" x2="0" y2="5" stroke="#888" stroke-width="1" opacity="1"/><line transform="translate(308,0)" x2="0" y2="5" stroke="#888" stroke-width="1" opacity="1"/><line transform="translate(325,0)" x2="0" y2="5" stroke="#888" stroke-width="1" opacity="1"/><line transform="translate(341,0)" x2="0" y2="5" stroke="#888" stroke-width="1" opacity="1"/><line transform="translate(358,0)" x2="0" y2="5" stroke="#888" stroke-width="1" opacity="1"/><line transform="translate(375,0)" x2="0" y2="5" stroke="#888" stroke-width="1" opacity="1"/><line transform="translate(391,0)" x2="0" y2="5" stroke="#888" stroke-width="1" opacity="1"/><line transform="translate(408,0)" x2="0" y2="5" stroke="#888" stroke-width="1" opacity="1"/><line transform="translate(425,0)" x2="0" y2="5" stroke="#888" stroke-width="1" opacity="1"/><line transform="translate(441,0)" x2="0" y2="5" stroke="#888" stroke-width="1" opacity="1"/><line transform="translate(458,0)" x2="0" y2="5" stroke="#888" stroke-width="1" opacity="1"/><line transform="translate(475,0)" x2="0" y2="5" stroke="#888" stroke-width="1" opacity="1"/><line transform="translate(491,0)" x2="0" y2="5" stroke="#888" stroke-width="1" opacity="1"/><line transform="translate(508,0)" x2="0" y2="5" stroke="#888" stroke-width="1" opacity="1"/><line transform="translate(525,0)" x2="0" y2="5" stroke="#888" stroke-width="1" opacity="1"/><line transform="translate(541,0)" x2="0" y2="5" stroke="#888" stroke-width="1" opacity="1"/><line transform="translate(558,0)" x2="0" y2="5" stroke="#888" stroke-width="1" opacity="1"/><line transform="translate(575,0)" x2="0" y2="5" stroke="#888" stroke-width="1" opacity="1"/><line transform="translate(591,0)" x2="0" y2="5" stroke="#888" stroke-width="1" opacity="1"/><line transform="translate(608,0)" x2="0" y2="5" stroke="#888" stroke-width="1" opacity="1"/><line transform="translate(625,0)" x2="0" y2="5" stroke="#888" stroke-width="1" opacity="1"/><line transform="translate(641,0)" x2="0" y2="5" stroke="#888" stroke-width="1" opacity="1"/><line transform="translate(658,0)" x2="0" y2="5" stroke="#888" stroke-width="1" opacity="1"/><line transform="translate(675,0)" x2="0" y2="5" stroke="#888" stroke-width="1" opacity="1"/><line transform="translate(691,0)" x2="0" y2="5" stroke="#888" stroke-width="1" opacity="1"/><line transform="translate(708,0)" x2="0" y2="5" stroke="#888" stroke-width="1" opacity="1"/><line transform="translate(725,0)" x2="0" y2="5" stroke="#888" stroke-width="1" opacity="1"/><line transform="translate(741,0)" x2="0" y2="5" stroke="#888" stroke-width="1" opacity="1"/><line transform="translate(758,0)" x2="0" y2="5" stroke="#888" stroke-width="1" opacity="1"/><line transform="translate(775,0)" x2="0" y2="5" stroke="#888" stroke-width="1" opacity="1"/><line transform="translate(791,0)" x2="0" y2="5" stroke="#888" stroke-width="1" opacity="1"/></g><g class="mark-text role-axis-label" pointer-events="none"><text text-anchor="end" transform="translate(7.833333333333314,7) rotate(315) translate(0,8)" font-family="Space Grotesk" font-size="10px" fill="#000" opacity="1">Coconut Mocha</text><text text-anchor="end" transform="translate(24.499999999999982,7) rotate(315) translate(0,8)" font-family="Space Grotesk" font-size="10px" fill="#000" opacity="1">Mocha Frappe</text><text text-anchor="end" transform="translate(41.16666666666665,7) rotate(315) translate(0,8)" font-family="Space Grotesk" font-size="10px" fill="#000" opacity="1">Turkish</text><text text-anchor="end" transform="translate(57.833333333333314,7) rotate(315) translate(0,8)" font-family="Space Grotesk" font-size="10px" fill="#000" opacity="1">Kopi Tubruk</text><text text-anchor="end" transform="translate(74.49999999999999,7) rotate(315) translate(0,8)" font-family="Space Grotesk" font-size="10px" fill="#000" opacity="1">Hazelnut Mocha</text><text text-anchor="end" transform="translate(91.16666666666666,7) rotate(315) translate(0,8)" font-family="Space Grotesk" font-size="10px" fill="#000" opacity="1">Macchiato</text><text text-anchor="end" transform="translate(107.83333333333331,7) rotate(315) translate(0,8)" font-family="Space Grotesk" font-size="10px" fill="#000" opacity="1">Spiced Mocha</text><text text-anchor="end" transform="translate(124.49999999999999,7) rotate(315) translate(0,8)" font-family="Space Grotesk" font-size="10px" fill="#000" opacity="1">Breve</text><text text-anchor="end" transform="translate(141.16666666666666,7) rotate(315) translate(0,8)" font-family="Space Grotesk" font-size="10px" fill="#000" opacity="1">Caramel Latte</text><text text-anchor="end" transform="translate(157.83333333333331,7) rotate(315) translate(0,8)" font-family="Space Grotesk" font-size="10px" fill="#000" opacity="1">Chai Latte</text><text text-anchor="end" transform="translate(174.5,7) rotate(315) translate(0,8)" font-family="Space Grotesk" font-size="10px" fill="#000" opacity="1">Irish Mocha</text><text text-anchor="end" transform="translate(191.16666666666666,7) rotate(315) translate(0,8)" font-family="Space Grotesk" font-size="10px" fill="#000" opacity="1">Choc Espresso</text><text text-anchor="end" transform="translate(207.83333333333331,7) rotate(315) translate(0,8)" font-family="Space Grotesk" font-size="10px" fill="#000" opacity="1">Vienna</text><text text-anchor="end" transform="translate(224.5,7) rotate(315) translate(0,8)" font-family="Space Grotesk" font-size="10px" fill="#000" opacity="1">Affogato</text><text text-anchor="end" transform="translate(241.16666666666666,7) rotate(315) translate(0,8)" font-family="Space Grotesk" font-size="10px" fill="#000" opacity="1">Cortado</text><text text-anchor="end" transform="translate(257.83333333333337,7) rotate(315) translate(0,8)" font-family="Space Grotesk" font-size="10px" fill="#000" opacity="1">Almond Latte</text><text text-anchor="end" transform="translate(274.5,7) rotate(315) translate(0,8)" font-family="Space Grotesk" font-size="10px" fill="#000" opacity="1">Vienna Mocha</text><text text-anchor="end" transform="translate(291.1666666666667,7) rotate(315) translate(0,8)" font-family="Space Grotesk" font-size="10px" fill="#000" opacity="1">Ginger Latte</text><text text-anchor="end" transform="translate(307.8333333333333,7) rotate(315) translate(0,8)" font-family="Space Grotesk" font-size="10px" fill="#000" opacity="1">Vanilla Latte</text><text text-anchor="end" transform="translate(324.5,7) rotate(315) translate(0,8)" font-family="Space Grotesk" font-size="10px" fill="#000" opacity="1">Con Panna</text><text text-anchor="end" transform="translate(341.1666666666667,7) rotate(315) translate(0,8)" font-family="Space Grotesk" font-size="10px" fill="#000" opacity="1">Hazelnut Latte</text><text text-anchor="end" transform="translate(357.8333333333333,7) rotate(315) translate(0,8)" font-family="Space Grotesk" font-size="10px" fill="#000" opacity="1">Latte</text><text text-anchor="end" transform="translate(374.5,7) rotate(315) translate(0,8)" font-family="Space Grotesk" font-size="10px" fill="#000" opacity="1">Breve Mocha</text><text text-anchor="end" transform="translate(391.1666666666667,7) rotate(315) translate(0,8)" font-family="Space Grotesk" font-size="10px" fill="#000" opacity="1">Red Eye</text><text text-anchor="end" transform="translate(407.8333333333333,7) rotate(315) translate(0,8)" font-family="Space Grotesk" font-size="10px" fill="#000" opacity="1">Ristretto</text><text text-anchor="end" transform="translate(424.5,7) rotate(315) translate(0,8)" font-family="Space Grotesk" font-size="10px" fill="#000" opacity="1">Cappuccino</text><text text-anchor="end" transform="translate(441.1666666666667,7) rotate(315) translate(0,8)" font-family="Space Grotesk" font-size="10px" fill="#000" opacity="1">Americano</text><text text-anchor="end" transform="translate(457.83333333333337,7) rotate(315) translate(0,8)" font-family="Space Grotesk" font-size="10px" fill="#000" opacity="1">Toffee Latte</text><text text-anchor="end" transform="translate(474.5,7) rotate(315) translate(0,8)" font-family="Space Grotesk" font-size="10px" fill="#000" opacity="1">Babyccino</text><text text-anchor="end" transform="translate(491.1666666666667,7) rotate(315) translate(0,8)" font-family="Space Grotesk" font-size="10px" fill="#000" opacity="1">Flat White</text><text text-anchor="end" transform="translate(507.83333333333337,7) rotate(315) translate(0,8)" font-family="Space Grotesk" font-size="10px" fill="#000" opacity="1">Frappe</text><text text-anchor="end" transform="translate(524.5,7) rotate(315) translate(0,8)" font-family="Space Grotesk" font-size="10px" fill="#000" opacity="1">Dirty Chai</text><text text-anchor="end" transform="translate(541.1666666666667,7) rotate(315) translate(0,8)" font-family="Space Grotesk" font-size="10px" fill="#000" opacity="1">Mocha Latte</text><text text-anchor="end" transform="translate(557.8333333333333,7) rotate(315) translate(0,8)" font-family="Space Grotesk" font-size="10px" fill="#000" opacity="1">Coconut Latte</text><text text-anchor="end" transform="translate(574.5,7) rotate(315) translate(0,8)" font-family="Space Grotesk" font-size="10px" fill="#000" opacity="1">Black Coffee</text><text text-anchor="end" transform="translate(591.1666666666667,7) rotate(315) translate(0,8)" font-family="Space Grotesk" font-size="10px" fill="#000" opacity="1">Espresso</text><text text-anchor="end" transform="translate(607.8333333333333,7) rotate(315) translate(0,8)" font-family="Space Grotesk" font-size="10px" fill="#000" opacity="1">Irish Coffee</text><text text-anchor="end" transform="translate(624.5,7) rotate(315) translate(0,8)" font-family="Space Grotesk" font-size="10px" fill="#000" opacity="1">Green Tea Latte</text><text text-anchor="end" transform="translate(641.1666666666667,7) rotate(315) translate(0,8)" font-family="Space Grotesk" font-size="10px" fill="#000" opacity="1">Caramel Mac</text><text text-anchor="end" transform="translate(657.8333333333333,7) rotate(315) translate(0,8)" font-family="Space Grotesk" font-size="10px" fill="#000" opacity="1">Irish Capp</text><text text-anchor="end" transform="translate(674.5,7) rotate(315) translate(0,8)" font-family="Space Grotesk" font-size="10px" fill="#000" opacity="1">Choc Macchiato</text><text text-anchor="end" transform="translate(691.1666666666667,7) rotate(315) translate(0,8)" font-family="Space Grotesk" font-size="10px" fill="#000" opacity="1">Almond Mocha</text><text text-anchor="end" transform="translate(707.8333333333333,7) rotate(315) translate(0,8)" font-family="Space Grotesk" font-size="10px" fill="#000" opacity="1">Choc Cappuccino</text><text text-anchor="end" transform="translate(724.5,7) rotate(315) translate(0,8)" font-family="Space Grotesk" font-size="10px" fill="#000" opacity="1">Mocha</text><text text-anchor="end" transform="translate(741.1666666666667,7) rotate(315) translate(0,8)" font-family="Space Grotesk" font-size="10px" fill="#000" opacity="1">Vanilla Chai</text><text text-anchor="end" transform="translate(757.8333333333333,7) rotate(315) translate(0,8)" font-family="Space Grotesk" font-size="10px" fill="#000" opacity="1">Iced Coffee</text><text text-anchor="end" transform="translate(774.5,7) rotate(315) translate(0,8)" font-family="Space Grotesk" font-size="10px" fill="#000" opacity="1">Java Chip</text><text text-anchor="end" transform="translate(791.1666666666667,7) rotate(315) translate(0,8)" font-family="Space Grotesk" font-size="10px" fill="#000" opacity="1">Peppermint Mocha</text></g><g class="mark-rule role-axis-domain" pointer-events="none"><line transform="translate(0,0)" x2="800" y2="0" stroke="#888" stroke-width="1" opacity="1"/></g><g class="mark-text role-axis-title" pointer-events="none"><text text-anchor="middle" transform="translate(400,91.58748901678302)" font-family="Space Grotesk" font-size="11px" font-weight="bold" fill="#000" opacity="1">BSC Locations</text></g></g><path class="foreground" aria-hidden="true" d="" pointer-events="none" display="none"/></g></g><g class="mark-group role-axis" role="graphics-symbol" aria-roledescription="axis" aria-label="Y-axis titled 'Number of Customers' for a linear scale with values from 0 to 11"><g transform="translate(0.5,0.5)"><path class="background" aria-hidden="true" d="M0,0h0v0h0Z" pointer-events="none"/><g><g class="mark-rule role-axis-tick" pointer-events="none"><line transform="translate(0,300)" x2="-5" y2="0" stroke="#888" stroke-width="1" opacity="1"/><line transform="translate(0,273)" x2="-5" y2="0" stroke="#888" stroke-width="1" opacity="1"/><line transform="translate(0,245)" x2="-5" y2="0" stroke="#888" stroke-width="1" opacity="1"/><line transform="translate(0,218)" x2="-5" y2="0" stroke="#888" stroke-width="1" opacity="1"/><line transform="translate(0,191)" x2="-5" y2="0" stroke="#888" stroke-width="1" opacity="1"/><line transform="translate(0,164)" x2="-5" y2="0" stroke="#888" stroke-width="1" opacity="1"/><line transform="translate(0,136)" x2="-5" y2="0" stroke="#888" stroke-width="1" opacity="1"/><line transform="translate(0,109)" x2="-5" y2="0" stroke="#888" stroke-width="1" opacity="1"/><line transform="translate(0,82)" x2="-5" y2="0" stroke="#888" stroke-width="1" opacity="1"/><line transform="translate(0,55)" x2="-5" y2="0" stroke="#888" stroke-width="1" opacity="1"/><line transform="translate(0,27)" x2="-5" y2="0" stroke="#888" stroke-width="1" opacity="1"/><line transform="translate(0,0)" x2="-5" y2="0" stroke="#888" stroke-width="1" opacity="1"/></g><g class="mark-text role-axis-label" pointer-events="none"><text text-anchor="end" transform="translate(-7,303)" font-family="Space Grotesk" font-size="10px" fill="#000" opacity="1">0</text><text text-anchor="end" transform="translate(-7,275.7272727272727)" font-family="Space Grotesk" font-size="10px" fill="#000" opacity="1">1</text><text text-anchor="end" transform="translate(-7,248.45454545454544)" font-family="Space Grotesk" font-size="10px" fill="#000" opacity="1">2</text><text text-anchor="end" transform="translate(-7,221.1818181818182)" font-family="Space Grotesk" font-size="10px" fill="#000" opacity="1">3</text><text text-anchor="end" transform="translate(-7,193.9090909090909)" font-family="Space Grotesk" font-size="10px" fill="#000" opacity="1">4</text><text text-anchor="end" transform="translate(-7,166.63636363636363)" font-family="Space Grotesk" font-size="10px" fill="#000" opacity="1">5</text><text text-anchor="end" transform="translate(-7,139.36363636363637)" font-family="Space Grotesk" font-size="10px" fill="#000" opacity="1">6</text><text text-anchor="end" transform="translate(-7,112.0909090909091)" font-family="Space Grotesk" font-size="10px" fill="#000" opacity="1">7</text><text text-anchor="end" transform="translate(-7,84.81818181818181)" font-family="Space Grotesk" font-size="10px" fill="#000" opacity="1">8</text><text text-anchor="end" transform="translate(-7,57.54545454545453)" font-family="Space Grotesk" font-size="10px" fill="#000" opacity="1">9</text><text text-anchor="end" transform="translate(-7,30.27272727272728)" font-family="Space Grotesk" font-size="10px" fill="#000" opacity="1">10</text><text text-anchor="end" transform="translate(-7,3)" font-family="Space Grotesk" font-size="10px" fill="#000" opacity="1">11</text></g><g class="mark-rule role-axis-domain" pointer-events="none"><line transform="translate(0,300)" x2="0" y2="-300" stroke="#888" stroke-width="1" opacity="1"/></g><g class="mark-text role-axis-title" pointer-events="none"><text text-anchor="middle" transform="translate(-21.59000015258789,150) rotate(-90) translate(0,-2)" font-family="Space Grotesk" font-size="11px" font-weight="bold" fill="#000" opacity="1">Number of Customers</text></g></g><path class="foreground" aria-hidden="true" d="" pointer-events="none" display="none"/></g></g><g class="mark-group role-scope" role="graphics-object" aria-roledescription="group mark container"><g transform="translate(0.8333333333333144,0)"><path class="background" aria-hidden="true" d="M3,0L12.000000000000002,0C13.655745073482002,0,15.000000000000002,1.344254926518,15.000000000000002,3L15.000000000000002,300C15.000000000000002,300,15.000000000000002,300,15.000000000000002,300L0,300C0,300,0,300,0,300L0,3C0,1.344254926518,1.344254926518,0,3,0Z"/><g clip-path="url(#clip63)"><g class="mark-group role-scope" role="graphics-object" aria-roledescription="group mark container"><g transform="translate(0,0)"><path class="background" aria-hidden="true" d="M0,0h15.000000000000002v0h-15.000000000000002Z"/><g><g class="mark-rect role-mark marks" role="graphics-object" aria-roledescription="rect mark container"><path aria-label="BSC Locations: Coconut Mocha; Number of Customers: 11" role="graphics-symbol" aria-roledescription="bar" d="M0,0h15.000000000000002v300h-15.000000000000002Z" fill="#03A9F4"/></g></g><path class="foreground" aria-hidden="true" d="" display="none"/></g></g></g><path class="foreground" aria-hidden="true" d="" display="none"/></g><g transform="translate(17.499999999999982,27.27272727272728)"><path class="background" aria-hidden="true" d="M3,0L12.000000000000002,0C13.655745073482002,0,15.000000000000002,1.344254926518,15.000000000000002,3L15.000000000000002,272.72727272727275C15.000000000000002,272.72727272727275,15.000000000000002,272.72727272727275,15.000000000000002,272.72727272727275L0,272.72727272727275C0,272.72727272727275,0,272.72727272727275,0,272.72727272727275L0,3C0,1.344254926518,1.344254926518,0,3,0Z"/><g clip-path="url(#clip64)"><g class="mark-group role-scope" role="graphics-object" aria-roledescription="group mark container"><g transform="translate(0,-27.27272727272728)"><path class="background" aria-hidden="true" d="M0,0h15.000000000000002v0h-15.000000000000002Z"/><g><g class="mark-rect role-mark marks" role="graphics-object" aria-roledescription="rect mark container"><path aria-label="BSC Locations: Mocha Frappe; Number of Customers: 10" role="graphics-symbol" aria-roledescription="bar" d="M0,27.27272727272728h15.000000000000002v272.72727272727275h-15.000000000000002Z" fill="#03A9F4"/></g></g><path class="foreground" aria-hidden="true" d="" display="none"/></g></g></g><path class="foreground" aria-hidden="true" d="" display="none"/></g><g transform="translate(34.16666666666665,54.54545454545453)"><path class="background" aria-hidden="true" d="M3,0L12.000000000000002,0C13.655745073482002,0,15.000000000000002,1.344254926518,15.000000000000002,3L15.000000000000002,245.45454545454547C15.000000000000002,245.45454545454547,15.000000000000002,245.45454545454547,15.000000000000002,245.45454545454547L0,245.45454545454547C0,245.45454545454547,0,245.45454545454547,0,245.45454545454547L0,3C0,1.344254926518,1.344254926518,0,3,0Z"/><g clip-path="url(#clip65)"><g class="mark-group role-scope" role="graphics-object" aria-roledescription="group mark container"><g transform="translate(0,-54.54545454545453)"><path class="background" aria-hidden="true" d="M0,0h15.000000000000002v0h-15.000000000000002Z"/><g><g class="mark-rect role-mark marks" role="graphics-object" aria-roledescription="rect mark container"><path aria-label="BSC Locations: Turkish; Number of Customers: 9" role="graphics-symbol" aria-roledescription="bar" d="M0,54.54545454545453h15.000000000000002v245.45454545454547h-15.000000000000002Z" fill="#03A9F4"/></g></g><path class="foreground" aria-hidden="true" d="" display="none"/></g></g></g><path class="foreground" aria-hidden="true" d="" display="none"/></g><g transform="translate(50.833333333333314,54.54545454545453)"><path class="background" aria-hidden="true" d="M3,0L12.000000000000002,0C13.655745073482002,0,15.000000000000002,1.344254926518,15.000000000000002,3L15.000000000000002,245.45454545454547C15.000000000000002,245.45454545454547,15.000000000000002,245.45454545454547,15.000000000000002,245.45454545454547L0,245.45454545454547C0,245.45454545454547,0,245.45454545454547,0,245.45454545454547L0,3C0,1.344254926518,1.344254926518,0,3,0Z"/><g clip-path="url(#clip66)"><g class="mark-group role-scope" role="graphics-object" aria-roledescription="group mark container"><g transform="translate(0,-54.54545454545453)"><path class="background" aria-hidden="true" d="M0,0h15.000000000000002v0h-15.000000000000002Z"/><g><g class="mark-rect role-mark marks" role="graphics-object" aria-roledescription="rect mark container"><path aria-label="BSC Locations: Kopi Tubruk; Number of Customers: 9" role="graphics-symbol" aria-roledescription="bar" d="M0,54.54545454545453h15.000000000000002v245.45454545454547h-15.000000000000002Z" fill="#03A9F4"/></g></g><path class="foreground" aria-hidden="true" d="" display="none"/></g></g></g><path class="foreground" aria-hidden="true" d="" display="none"/></g><g transform="translate(67.49999999999999,54.54545454545453)"><path class="background" aria-hidden="true" d="M3,0L12.000000000000002,0C13.655745073482002,0,15.000000000000002,1.344254926518,15.000000000000002,3L15.000000000000002,245.45454545454547C15.000000000000002,245.45454545454547,15.000000000000002,245.45454545454547,15.000000000000002,245.45454545454547L0,245.45454545454547C0,245.45454545454547,0,245.45454545454547,0,245.45454545454547L0,3C0,1.344254926518,1.344254926518,0,3,0Z"/><g clip-path="url(#clip67)"><g class="mark-group role-scope" role="graphics-object" aria-roledescription="group mark container"><g transform="translate(0,-54.54545454545453)"><path class="background" aria-hidden="true" d="M0,0h15.000000000000002v0h-15.000000000000002Z"/><g><g class="mark-rect role-mark marks" role="graphics-object" aria-roledescription="rect mark container"><path aria-label="BSC Locations: Hazelnut Mocha; Number of Customers: 9" role="graphics-symbol" aria-roledescription="bar" d="M0,54.54545454545453h15.000000000000002v245.45454545454547h-15.000000000000002Z" fill="#03A9F4"/></g></g><path class="foreground" aria-hidden="true" d="" display="none"/></g></g></g><path class="foreground" aria-hidden="true" d="" display="none"/></g><g transform="translate(84.16666666666666,81.81818181818181)"><path class="background" aria-hidden="true" d="M3,0L12.000000000000002,0C13.655745073482002,0,15.000000000000002,1.344254926518,15.000000000000002,3L15.000000000000002,218.1818181818182C15.000000000000002,218.1818181818182,15.000000000000002,218.1818181818182,15.000000000000002,218.1818181818182L0,218.1818181818182C0,218.1818181818182,0,218.1818181818182,0,218.1818181818182L0,3C0,1.344254926518,1.344254926518,0,3,0Z"/><g clip-path="url(#clip68)"><g class="mark-group role-scope" role="graphics-object" aria-roledescription="group mark container"><g transform="translate(0,-81.81818181818181)"><path class="background" aria-hidden="true" d="M0,0h15.000000000000002v0h-15.000000000000002Z"/><g><g class="mark-rect role-mark marks" role="graphics-object" aria-roledescription="rect mark container"><path aria-label="BSC Locations: Macchiato; Number of Customers: 8" role="graphics-symbol" aria-roledescription="bar" d="M0,81.81818181818181h15.000000000000002v218.1818181818182h-15.000000000000002Z" fill="#03A9F4"/></g></g><path class="foreground" aria-hidden="true" d="" display="none"/></g></g></g><path class="foreground" aria-hidden="true" d="" display="none"/></g><g transform="translate(100.83333333333331,109.0909090909091)"><path class="background" aria-hidden="true" d="M3,0L12.000000000000002,0C13.655745073482002,0,15.000000000000002,1.344254926518,15.000000000000002,3L15.000000000000002,190.9090909090909C15.000000000000002,190.9090909090909,15.000000000000002,190.9090909090909,15.000000000000002,190.9090909090909L0,190.9090909090909C0,190.9090909090909,0,190.9090909090909,0,190.9090909090909L0,3C0,1.344254926518,1.344254926518,0,3,0Z"/><g clip-path="url(#clip69)"><g class="mark-group role-scope" role="graphics-object" aria-roledescription="group mark container"><g transform="translate(0,-109.0909090909091)"><path class="background" aria-hidden="true" d="M0,0h15.000000000000002v0h-15.000000000000002Z"/><g><g class="mark-rect role-mark marks" role="graphics-object" aria-roledescription="rect mark container"><path aria-label="BSC Locations: Spiced Mocha; Number of Customers: 7" role="graphics-symbol" aria-roledescription="bar" d="M0,109.0909090909091h15.000000000000002v190.9090909090909h-15.000000000000002Z" fill="#03A9F4"/></g></g><path class="foreground" aria-hidden="true" d="" display="none"/></g></g></g><path class="foreground" aria-hidden="true" d="" display="none"/></g><g transform="translate(117.49999999999999,109.0909090909091)"><path class="background" aria-hidden="true" d="M3,0L12.000000000000002,0C13.655745073482002,0,15.000000000000002,1.344254926518,15.000000000000002,3L15.000000000000002,190.9090909090909C15.000000000000002,190.9090909090909,15.000000000000002,190.9090909090909,15.000000000000002,190.9090909090909L0,190.9090909090909C0,190.9090909090909,0,190.9090909090909,0,190.9090909090909L0,3C0,1.344254926518,1.344254926518,0,3,0Z"/><g clip-path="url(#clip70)"><g class="mark-group role-scope" role="graphics-object" aria-roledescription="group mark container"><g transform="translate(0,-109.0909090909091)"><path class="background" aria-hidden="true" d="M0,0h15.000000000000002v0h-15.000000000000002Z"/><g><g class="mark-rect role-mark marks" role="graphics-object" aria-roledescription="rect mark container"><path aria-label="BSC Locations: Breve; Number of Customers: 7" role="graphics-symbol" aria-roledescription="bar" d="M0,109.0909090909091h15.000000000000002v190.9090909090909h-15.000000000000002Z" fill="#03A9F4"/></g></g><path class="foreground" aria-hidden="true" d="" display="none"/></g></g></g><path class="foreground" aria-hidden="true" d="" display="none"/></g><g transform="translate(134.16666666666666,136.36363636363637)"><path class="background" aria-hidden="true" d="M3,0L12.000000000000002,0C13.655745073482002,0,15.000000000000002,1.344254926518,15.000000000000002,3L15.000000000000002,163.63636363636363C15.000000000000002,163.63636363636363,15.000000000000002,163.63636363636363,15.000000000000002,163.63636363636363L0,163.63636363636363C0,163.63636363636363,0,163.63636363636363,0,163.63636363636363L0,3C0,1.344254926518,1.344254926518,0,3,0Z"/><g clip-path="url(#clip71)"><g class="mark-group role-scope" role="graphics-object" aria-roledescription="group mark container"><g transform="translate(0,-136.36363636363637)"><path class="background" aria-hidden="true" d="M0,0h15.000000000000002v0h-15.000000000000002Z"/><g><g class="mark-rect role-mark marks" role="graphics-object" aria-roledescription="rect mark container"><path aria-label="BSC Locations: Caramel Latte; Number of Customers: 6" role="graphics-symbol" aria-roledescription="bar" d="M0,136.36363636363637h15.000000000000002v163.63636363636363h-15.000000000000002Z" fill="#03A9F4"/></g></g><path class="foreground" aria-hidden="true" d="" display="none"/></g></g></g><path class="foreground" aria-hidden="true" d="" display="none"/></g><g transform="translate(150.83333333333331,136.36363636363637)"><path class="background" aria-hidden="true" d="M3,0L12.000000000000002,0C13.655745073482002,0,15.000000000000002,1.344254926518,15.000000000000002,3L15.000000000000002,163.63636363636363C15.000000000000002,163.63636363636363,15.000000000000002,163.63636363636363,15.000000000000002,163.63636363636363L0,163.63636363636363C0,163.63636363636363,0,163.63636363636363,0,163.63636363636363L0,3C0,1.344254926518,1.344254926518,0,3,0Z"/><g clip-path="url(#clip72)"><g class="mark-group role-scope" role="graphics-object" aria-roledescription="group mark container"><g transform="translate(0,-136.36363636363637)"><path class="background" aria-hidden="true" d="M0,0h15.000000000000002v0h-15.000000000000002Z"/><g><g class="mark-rect role-mark marks" role="graphics-object" aria-roledescription="rect mark container"><path aria-label="BSC Locations: Chai Latte; Number of Customers: 6" role="graphics-symbol" aria-roledescription="bar" d="M0,136.36363636363637h15.000000000000002v163.63636363636363h-15.000000000000002Z" fill="#03A9F4"/></g></g><path class="foreground" aria-hidden="true" d="" display="none"/></g></g></g><path class="foreground" aria-hidden="true" d="" display="none"/></g><g transform="translate(167.5,136.36363636363637)"><path class="background" aria-hidden="true" d="M3,0L12.000000000000002,0C13.655745073482002,0,15.000000000000002,1.344254926518,15.000000000000002,3L15.000000000000002,163.63636363636363C15.000000000000002,163.63636363636363,15.000000000000002,163.63636363636363,15.000000000000002,163.63636363636363L0,163.63636363636363C0,163.63636363636363,0,163.63636363636363,0,163.63636363636363L0,3C0,1.344254926518,1.344254926518,0,3,0Z"/><g clip-path="url(#clip73)"><g class="mark-group role-scope" role="graphics-object" aria-roledescription="group mark container"><g transform="translate(0,-136.36363636363637)"><path class="background" aria-hidden="true" d="M0,0h15.000000000000002v0h-15.000000000000002Z"/><g><g class="mark-rect role-mark marks" role="graphics-object" aria-roledescription="rect mark container"><path aria-label="BSC Locations: Irish Mocha; Number of Customers: 6" role="graphics-symbol" aria-roledescription="bar" d="M0,136.36363636363637h15.000000000000002v163.63636363636363h-15.000000000000002Z" fill="#03A9F4"/></g></g><path class="foreground" aria-hidden="true" d="" display="none"/></g></g></g><path class="foreground" aria-hidden="true" d="" display="none"/></g><g transform="translate(184.16666666666666,136.36363636363637)"><path class="background" aria-hidden="true" d="M3,0L12.000000000000002,0C13.655745073482002,0,15.000000000000002,1.344254926518,15.000000000000002,3L15.000000000000002,163.63636363636363C15.000000000000002,163.63636363636363,15.000000000000002,163.63636363636363,15.000000000000002,163.63636363636363L0,163.63636363636363C0,163.63636363636363,0,163.63636363636363,0,163.63636363636363L0,3C0,1.344254926518,1.344254926518,0,3,0Z"/><g clip-path="url(#clip74)"><g class="mark-group role-scope" role="graphics-object" aria-roledescription="group mark container"><g transform="translate(0,-136.36363636363637)"><path class="background" aria-hidden="true" d="M0,0h15.000000000000002v0h-15.000000000000002Z"/><g><g class="mark-rect role-mark marks" role="graphics-object" aria-roledescription="rect mark container"><path aria-label="BSC Locations: Choc Espresso; Number of Customers: 6" role="graphics-symbol" aria-roledescription="bar" d="M0,136.36363636363637h15.000000000000002v163.63636363636363h-15.000000000000002Z" fill="#03A9F4"/></g></g><path class="foreground" aria-hidden="true" d="" display="none"/></g></g></g><path class="foreground" aria-hidden="true" d="" display="none"/></g><g transform="translate(200.83333333333331,136.36363636363637)"><path class="background" aria-hidden="true" d="M3,0L12.000000000000002,0C13.655745073482002,0,15.000000000000002,1.344254926518,15.000000000000002,3L15.000000000000002,163.63636363636363C15.000000000000002,163.63636363636363,15.000000000000002,163.63636363636363,15.000000000000002,163.63636363636363L0,163.63636363636363C0,163.63636363636363,0,163.63636363636363,0,163.63636363636363L0,3C0,1.344254926518,1.344254926518,0,3,0Z"/><g clip-path="url(#clip75)"><g class="mark-group role-scope" role="graphics-object" aria-roledescription="group mark container"><g transform="translate(0,-136.36363636363637)"><path class="background" aria-hidden="true" d="M0,0h15.000000000000002v0h-15.000000000000002Z"/><g><g class="mark-rect role-mark marks" role="graphics-object" aria-roledescription="rect mark container"><path aria-label="BSC Locations: Vienna; Number of Customers: 6" role="graphics-symbol" aria-roledescription="bar" d="M0,136.36363636363637h15.000000000000002v163.63636363636363h-15.000000000000002Z" fill="#03A9F4"/></g></g><path class="foreground" aria-hidden="true" d="" display="none"/></g></g></g><path class="foreground" aria-hidden="true" d="" display="none"/></g><g transform="translate(217.5,136.36363636363637)"><path class="background" aria-hidden="true" d="M3,0L12.000000000000002,0C13.655745073482002,0,15.000000000000002,1.344254926518,15.000000000000002,3L15.000000000000002,163.63636363636363C15.000000000000002,163.63636363636363,15.000000000000002,163.63636363636363,15.000000000000002,163.63636363636363L0,163.63636363636363C0,163.63636363636363,0,163.63636363636363,0,163.63636363636363L0,3C0,1.344254926518,1.344254926518,0,3,0Z"/><g clip-path="url(#clip76)"><g class="mark-group role-scope" role="graphics-object" aria-roledescription="group mark container"><g transform="translate(0,-136.36363636363637)"><path class="background" aria-hidden="true" d="M0,0h15.000000000000002v0h-15.000000000000002Z"/><g><g class="mark-rect role-mark marks" role="graphics-object" aria-roledescription="rect mark container"><path aria-label="BSC Locations: Affogato; Number of Customers: 6" role="graphics-symbol" aria-roledescription="bar" d="M0,136.36363636363637h15.000000000000002v163.63636363636363h-15.000000000000002Z" fill="#03A9F4"/></g></g><path class="foreground" aria-hidden="true" d="" display="none"/></g></g></g><path class="foreground" aria-hidden="true" d="" display="none"/></g><g transform="translate(234.16666666666666,136.36363636363637)"><path class="background" aria-hidden="true" d="M3,0L12.000000000000002,0C13.655745073482002,0,15.000000000000002,1.344254926518,15.000000000000002,3L15.000000000000002,163.63636363636363C15.000000000000002,163.63636363636363,15.000000000000002,163.63636363636363,15.000000000000002,163.63636363636363L0,163.63636363636363C0,163.63636363636363,0,163.63636363636363,0,163.63636363636363L0,3C0,1.344254926518,1.344254926518,0,3,0Z"/><g clip-path="url(#clip77)"><g class="mark-group role-scope" role="graphics-object" aria-roledescription="group mark container"><g transform="translate(0,-136.36363636363637)"><path class="background" aria-hidden="true" d="M0,0h15.000000000000002v0h-15.000000000000002Z"/><g><g class="mark-rect role-mark marks" role="graphics-object" aria-roledescription="rect mark container"><path aria-label="BSC Locations: Cortado; Number of Customers: 6" role="graphics-symbol" aria-roledescription="bar" d="M0,136.36363636363637h15.000000000000002v163.63636363636363h-15.000000000000002Z" fill="#03A9F4"/></g></g><path class="foreground" aria-hidden="true" d="" display="none"/></g></g></g><path class="foreground" aria-hidden="true" d="" display="none"/></g><g transform="translate(250.83333333333334,136.36363636363637)"><path class="background" aria-hidden="true" d="M3,0L12.000000000000002,0C13.655745073482002,0,15.000000000000002,1.344254926518,15.000000000000002,3L15.000000000000002,163.63636363636363C15.000000000000002,163.63636363636363,15.000000000000002,163.63636363636363,15.000000000000002,163.63636363636363L0,163.63636363636363C0,163.63636363636363,0,163.63636363636363,0,163.63636363636363L0,3C0,1.344254926518,1.344254926518,0,3,0Z"/><g clip-path="url(#clip78)"><g class="mark-group role-scope" role="graphics-object" aria-roledescription="group mark container"><g transform="translate(0,-136.36363636363637)"><path class="background" aria-hidden="true" d="M0,0h15.000000000000002v0h-15.000000000000002Z"/><g><g class="mark-rect role-mark marks" role="graphics-object" aria-roledescription="rect mark container"><path aria-label="BSC Locations: Almond Latte; Number of Customers: 6" role="graphics-symbol" aria-roledescription="bar" d="M0,136.36363636363637h15.000000000000002v163.63636363636363h-15.000000000000002Z" fill="#03A9F4"/></g></g><path class="foreground" aria-hidden="true" d="" display="none"/></g></g></g><path class="foreground" aria-hidden="true" d="" display="none"/></g><g transform="translate(267.5,136.36363636363637)"><path class="background" aria-hidden="true" d="M3,0L12.000000000000002,0C13.655745073482002,0,15.000000000000002,1.344254926518,15.000000000000002,3L15.000000000000002,163.63636363636363C15.000000000000002,163.63636363636363,15.000000000000002,163.63636363636363,15.000000000000002,163.63636363636363L0,163.63636363636363C0,163.63636363636363,0,163.63636363636363,0,163.63636363636363L0,3C0,1.344254926518,1.344254926518,0,3,0Z"/><g clip-path="url(#clip79)"><g class="mark-group role-scope" role="graphics-object" aria-roledescription="group mark container"><g transform="translate(0,-136.36363636363637)"><path class="background" aria-hidden="true" d="M0,0h15.000000000000002v0h-15.000000000000002Z"/><g><g class="mark-rect role-mark marks" role="graphics-object" aria-roledescription="rect mark container"><path aria-label="BSC Locations: Vienna Mocha; Number of Customers: 6" role="graphics-symbol" aria-roledescription="bar" d="M0,136.36363636363637h15.000000000000002v163.63636363636363h-15.000000000000002Z" fill="#03A9F4"/></g></g><path class="foreground" aria-hidden="true" d="" display="none"/></g></g></g><path class="foreground" aria-hidden="true" d="" display="none"/></g><g transform="translate(284.1666666666667,136.36363636363637)"><path class="background" aria-hidden="true" d="M3,0L12.000000000000002,0C13.655745073482002,0,15.000000000000002,1.344254926518,15.000000000000002,3L15.000000000000002,163.63636363636363C15.000000000000002,163.63636363636363,15.000000000000002,163.63636363636363,15.000000000000002,163.63636363636363L0,163.63636363636363C0,163.63636363636363,0,163.63636363636363,0,163.63636363636363L0,3C0,1.344254926518,1.344254926518,0,3,0Z"/><g clip-path="url(#clip80)"><g class="mark-group role-scope" role="graphics-object" aria-roledescription="group mark container"><g transform="translate(0,-136.36363636363637)"><path class="background" aria-hidden="true" d="M0,0h15.000000000000002v0h-15.000000000000002Z"/><g><g class="mark-rect role-mark marks" role="graphics-object" aria-roledescription="rect mark container"><path aria-label="BSC Locations: Ginger Latte; Number of Customers: 6" role="graphics-symbol" aria-roledescription="bar" d="M0,136.36363636363637h15.000000000000002v163.63636363636363h-15.000000000000002Z" fill="#03A9F4"/></g></g><path class="foreground" aria-hidden="true" d="" display="none"/></g></g></g><path class="foreground" aria-hidden="true" d="" display="none"/></g><g transform="translate(300.8333333333333,163.63636363636363)"><path class="background" aria-hidden="true" d="M3,0L12.000000000000002,0C13.655745073482002,0,15.000000000000002,1.344254926518,15.000000000000002,3L15.000000000000002,136.36363636363637C15.000000000000002,136.36363636363637,15.000000000000002,136.36363636363637,15.000000000000002,136.36363636363637L0,136.36363636363637C0,136.36363636363637,0,136.36363636363637,0,136.36363636363637L0,3C0,1.344254926518,1.344254926518,0,3,0Z"/><g clip-path="url(#clip81)"><g class="mark-group role-scope" role="graphics-object" aria-roledescription="group mark container"><g transform="translate(0,-163.63636363636363)"><path class="background" aria-hidden="true" d="M0,0h15.000000000000002v0h-15.000000000000002Z"/><g><g class="mark-rect role-mark marks" role="graphics-object" aria-roledescription="rect mark container"><path aria-label="BSC Locations: Vanilla Latte; Number of Customers: 5" role="graphics-symbol" aria-roledescription="bar" d="M0,163.63636363636363h15.000000000000002v136.36363636363637h-15.000000000000002Z" fill="#03A9F4"/></g></g><path class="foreground" aria-hidden="true" d="" display="none"/></g></g></g><path class="foreground" aria-hidden="true" d="" display="none"/></g><g transform="translate(317.5,163.63636363636363)"><path class="background" aria-hidden="true" d="M3,0L12.000000000000002,0C13.655745073482002,0,15.000000000000002,1.344254926518,15.000000000000002,3L15.000000000000002,136.36363636363637C15.000000000000002,136.36363636363637,15.000000000000002,136.36363636363637,15.000000000000002,136.36363636363637L0,136.36363636363637C0,136.36363636363637,0,136.36363636363637,0,136.36363636363637L0,3C0,1.344254926518,1.344254926518,0,3,0Z"/><g clip-path="url(#clip82)"><g class="mark-group role-scope" role="graphics-object" aria-roledescription="group mark container"><g transform="translate(0,-163.63636363636363)"><path class="background" aria-hidden="true" d="M0,0h15.000000000000002v0h-15.000000000000002Z"/><g><g class="mark-rect role-mark marks" role="graphics-object" aria-roledescription="rect mark container"><path aria-label="BSC Locations: Con Panna; Number of Customers: 5" role="graphics-symbol" aria-roledescription="bar" d="M0,163.63636363636363h15.000000000000002v136.36363636363637h-15.000000000000002Z" fill="#03A9F4"/></g></g><path class="foreground" aria-hidden="true" d="" display="none"/></g></g></g><path class="foreground" aria-hidden="true" d="" display="none"/></g><g transform="translate(334.1666666666667,163.63636363636363)"><path class="background" aria-hidden="true" d="M3,0L12.000000000000002,0C13.655745073482002,0,15.000000000000002,1.344254926518,15.000000000000002,3L15.000000000000002,136.36363636363637C15.000000000000002,136.36363636363637,15.000000000000002,136.36363636363637,15.000000000000002,136.36363636363637L0,136.36363636363637C0,136.36363636363637,0,136.36363636363637,0,136.36363636363637L0,3C0,1.344254926518,1.344254926518,0,3,0Z"/><g clip-path="url(#clip83)"><g class="mark-group role-scope" role="graphics-object" aria-roledescription="group mark container"><g transform="translate(0,-163.63636363636363)"><path class="background" aria-hidden="true" d="M0,0h15.000000000000002v0h-15.000000000000002Z"/><g><g class="mark-rect role-mark marks" role="graphics-object" aria-roledescription="rect mark container"><path aria-label="BSC Locations: Hazelnut Latte; Number of Customers: 5" role="graphics-symbol" aria-roledescription="bar" d="M0,163.63636363636363h15.000000000000002v136.36363636363637h-15.000000000000002Z" fill="#03A9F4"/></g></g><path class="foreground" aria-hidden="true" d="" display="none"/></g></g></g><path class="foreground" aria-hidden="true" d="" display="none"/></g><g transform="translate(350.8333333333333,163.63636363636363)"><path class="background" aria-hidden="true" d="M3,0L12.000000000000002,0C13.655745073482002,0,15.000000000000002,1.344254926518,15.000000000000002,3L15.000000000000002,136.36363636363637C15.000000000000002,136.36363636363637,15.000000000000002,136.36363636363637,15.000000000000002,136.36363636363637L0,136.36363636363637C0,136.36363636363637,0,136.36363636363637,0,136.36363636363637L0,3C0,1.344254926518,1.344254926518,0,3,0Z"/><g clip-path="url(#clip84)"><g class="mark-group role-scope" role="graphics-object" aria-roledescription="group mark container"><g transform="translate(0,-163.63636363636363)"><path class="background" aria-hidden="true" d="M0,0h15.000000000000002v0h-15.000000000000002Z"/><g><g class="mark-rect role-mark marks" role="graphics-object" aria-roledescription="rect mark container"><path aria-label="BSC Locations: Latte; Number of Customers: 5" role="graphics-symbol" aria-roledescription="bar" d="M0,163.63636363636363h15.000000000000002v136.36363636363637h-15.000000000000002Z" fill="#03A9F4"/></g></g><path class="foreground" aria-hidden="true" d="" display="none"/></g></g></g><path class="foreground" aria-hidden="true" d="" display="none"/></g><g transform="translate(367.5,163.63636363636363)"><path class="background" aria-hidden="true" d="M3,0L12.000000000000002,0C13.655745073482002,0,15.000000000000002,1.344254926518,15.000000000000002,3L15.000000000000002,136.36363636363637C15.000000000000002,136.36363636363637,15.000000000000002,136.36363636363637,15.000000000000002,136.36363636363637L0,136.36363636363637C0,136.36363636363637,0,136.36363636363637,0,136.36363636363637L0,3C0,1.344254926518,1.344254926518,0,3,0Z"/><g clip-path="url(#clip85)"><g class="mark-group role-scope" role="graphics-object" aria-roledescription="group mark container"><g transform="translate(0,-163.63636363636363)"><path class="background" aria-hidden="true" d="M0,0h15.000000000000002v0h-15.000000000000002Z"/><g><g class="mark-rect role-mark marks" role="graphics-object" aria-roledescription="rect mark container"><path aria-label="BSC Locations: Breve Mocha; Number of Customers: 5" role="graphics-symbol" aria-roledescription="bar" d="M0,163.63636363636363h15.000000000000002v136.36363636363637h-15.000000000000002Z" fill="#03A9F4"/></g></g><path class="foreground" aria-hidden="true" d="" display="none"/></g></g></g><path class="foreground" aria-hidden="true" d="" display="none"/></g><g transform="translate(384.1666666666667,163.63636363636363)"><path class="background" aria-hidden="true" d="M3,0L12.000000000000002,0C13.655745073482002,0,15.000000000000002,1.344254926518,15.000000000000002,3L15.000000000000002,136.36363636363637C15.000000000000002,136.36363636363637,15.000000000000002,136.36363636363637,15.000000000000002,136.36363636363637L0,136.36363636363637C0,136.36363636363637,0,136.36363636363637,0,136.36363636363637L0,3C0,1.344254926518,1.344254926518,0,3,0Z"/><g clip-path="url(#clip86)"><g class="mark-group role-scope" role="graphics-object" aria-roledescription="group mark container"><g transform="translate(0,-163.63636363636363)"><path class="background" aria-hidden="true" d="M0,0h15.000000000000002v0h-15.000000000000002Z"/><g><g class="mark-rect role-mark marks" role="graphics-object" aria-roledescription="rect mark container"><path aria-label="BSC Locations: Red Eye; Number of Customers: 5" role="graphics-symbol" aria-roledescription="bar" d="M0,163.63636363636363h15.000000000000002v136.36363636363637h-15.000000000000002Z" fill="#03A9F4"/></g></g><path class="foreground" aria-hidden="true" d="" display="none"/></g></g></g><path class="foreground" aria-hidden="true" d="" display="none"/></g><g transform="translate(400.8333333333333,163.63636363636363)"><path class="background" aria-hidden="true" d="M3,0L12.000000000000002,0C13.655745073482002,0,15.000000000000002,1.344254926518,15.000000000000002,3L15.000000000000002,136.36363636363637C15.000000000000002,136.36363636363637,15.000000000000002,136.36363636363637,15.000000000000002,136.36363636363637L0,136.36363636363637C0,136.36363636363637,0,136.36363636363637,0,136.36363636363637L0,3C0,1.344254926518,1.344254926518,0,3,0Z"/><g clip-path="url(#clip87)"><g class="mark-group role-scope" role="graphics-object" aria-roledescription="group mark container"><g transform="translate(0,-163.63636363636363)"><path class="background" aria-hidden="true" d="M0,0h15.000000000000002v0h-15.000000000000002Z"/><g><g class="mark-rect role-mark marks" role="graphics-object" aria-roledescription="rect mark container"><path aria-label="BSC Locations: Ristretto; Number of Customers: 5" role="graphics-symbol" aria-roledescription="bar" d="M0,163.63636363636363h15.000000000000002v136.36363636363637h-15.000000000000002Z" fill="#03A9F4"/></g></g><path class="foreground" aria-hidden="true" d="" display="none"/></g></g></g><path class="foreground" aria-hidden="true" d="" display="none"/></g><g transform="translate(417.5,163.63636363636363)"><path class="background" aria-hidden="true" d="M3,0L12.000000000000002,0C13.655745073482002,0,15.000000000000002,1.344254926518,15.000000000000002,3L15.000000000000002,136.36363636363637C15.000000000000002,136.36363636363637,15.000000000000002,136.36363636363637,15.000000000000002,136.36363636363637L0,136.36363636363637C0,136.36363636363637,0,136.36363636363637,0,136.36363636363637L0,3C0,1.344254926518,1.344254926518,0,3,0Z"/><g clip-path="url(#clip88)"><g class="mark-group role-scope" role="graphics-object" aria-roledescription="group mark container"><g transform="translate(0,-163.63636363636363)"><path class="background" aria-hidden="true" d="M0,0h15.000000000000002v0h-15.000000000000002Z"/><g><g class="mark-rect role-mark marks" role="graphics-object" aria-roledescription="rect mark container"><path aria-label="BSC Locations: Cappuccino; Number of Customers: 5" role="graphics-symbol" aria-roledescription="bar" d="M0,163.63636363636363h15.000000000000002v136.36363636363637h-15.000000000000002Z" fill="#03A9F4"/></g></g><path class="foreground" aria-hidden="true" d="" display="none"/></g></g></g><path class="foreground" aria-hidden="true" d="" display="none"/></g><g transform="translate(434.1666666666667,163.63636363636363)"><path class="background" aria-hidden="true" d="M3,0L12.000000000000002,0C13.655745073482002,0,15.000000000000002,1.344254926518,15.000000000000002,3L15.000000000000002,136.36363636363637C15.000000000000002,136.36363636363637,15.000000000000002,136.36363636363637,15.000000000000002,136.36363636363637L0,136.36363636363637C0,136.36363636363637,0,136.36363636363637,0,136.36363636363637L0,3C0,1.344254926518,1.344254926518,0,3,0Z"/><g clip-path="url(#clip89)"><g class="mark-group role-scope" role="graphics-object" aria-roledescription="group mark container"><g transform="translate(0,-163.63636363636363)"><path class="background" aria-hidden="true" d="M0,0h15.000000000000002v0h-15.000000000000002Z"/><g><g class="mark-rect role-mark marks" role="graphics-object" aria-roledescription="rect mark container"><path aria-label="BSC Locations: Americano; Number of Customers: 5" role="graphics-symbol" aria-roledescription="bar" d="M0,163.63636363636363h15.000000000000002v136.36363636363637h-15.000000000000002Z" fill="#03A9F4"/></g></g><path class="foreground" aria-hidden="true" d="" display="none"/></g></g></g><path class="foreground" aria-hidden="true" d="" display="none"/></g><g transform="translate(450.83333333333337,190.9090909090909)"><path class="background" aria-hidden="true" d="M3,0L12.000000000000002,0C13.655745073482002,0,15.000000000000002,1.344254926518,15.000000000000002,3L15.000000000000002,109.0909090909091C15.000000000000002,109.0909090909091,15.000000000000002,109.0909090909091,15.000000000000002,109.0909090909091L0,109.0909090909091C0,109.0909090909091,0,109.0909090909091,0,109.0909090909091L0,3C0,1.344254926518,1.344254926518,0,3,0Z"/><g clip-path="url(#clip90)"><g class="mark-group role-scope" role="graphics-object" aria-roledescription="group mark container"><g transform="translate(0,-190.9090909090909)"><path class="background" aria-hidden="true" d="M0,0h15.000000000000002v0h-15.000000000000002Z"/><g><g class="mark-rect role-mark marks" role="graphics-object" aria-roledescription="rect mark container"><path aria-label="BSC Locations: Toffee Latte; Number of Customers: 4" role="graphics-symbol" aria-roledescription="bar" d="M0,190.9090909090909h15.000000000000002v109.0909090909091h-15.000000000000002Z" fill="#03A9F4"/></g></g><path class="foreground" aria-hidden="true" d="" display="none"/></g></g></g><path class="foreground" aria-hidden="true" d="" display="none"/></g><g transform="translate(467.5,190.9090909090909)"><path class="background" aria-hidden="true" d="M3,0L12.000000000000002,0C13.655745073482002,0,15.000000000000002,1.344254926518,15.000000000000002,3L15.000000000000002,109.0909090909091C15.000000000000002,109.0909090909091,15.000000000000002,109.0909090909091,15.000000000000002,109.0909090909091L0,109.0909090909091C0,109.0909090909091,0,109.0909090909091,0,109.0909090909091L0,3C0,1.344254926518,1.344254926518,0,3,0Z"/><g clip-path="url(#clip91)"><g class="mark-group role-scope" role="graphics-object" aria-roledescription="group mark container"><g transform="translate(0,-190.9090909090909)"><path class="background" aria-hidden="true" d="M0,0h15.000000000000002v0h-15.000000000000002Z"/><g><g class="mark-rect role-mark marks" role="graphics-object" aria-roledescription="rect mark container"><path aria-label="BSC Locations: Babyccino; Number of Customers: 4" role="graphics-symbol" aria-roledescription="bar" d="M0,190.9090909090909h15.000000000000002v109.0909090909091h-15.000000000000002Z" fill="#03A9F4"/></g></g><path class="foreground" aria-hidden="true" d="" display="none"/></g></g></g><path class="foreground" aria-hidden="true" d="" display="none"/></g><g transform="translate(484.1666666666667,190.9090909090909)"><path class="background" aria-hidden="true" d="M3,0L12.000000000000002,0C13.655745073482002,0,15.000000000000002,1.344254926518,15.000000000000002,3L15.000000000000002,109.0909090909091C15.000000000000002,109.0909090909091,15.000000000000002,109.0909090909091,15.000000000000002,109.0909090909091L0,109.0909090909091C0,109.0909090909091,0,109.0909090909091,0,109.0909090909091L0,3C0,1.344254926518,1.344254926518,0,3,0Z"/><g clip-path="url(#clip92)"><g class="mark-group role-scope" role="graphics-object" aria-roledescription="group mark container"><g transform="translate(0,-190.9090909090909)"><path class="background" aria-hidden="true" d="M0,0h15.000000000000002v0h-15.000000000000002Z"/><g><g class="mark-rect role-mark marks" role="graphics-object" aria-roledescription="rect mark container"><path aria-label="BSC Locations: Flat White; Number of Customers: 4" role="graphics-symbol" aria-roledescription="bar" d="M0,190.9090909090909h15.000000000000002v109.0909090909091h-15.000000000000002Z" fill="#03A9F4"/></g></g><path class="foreground" aria-hidden="true" d="" display="none"/></g></g></g><path class="foreground" aria-hidden="true" d="" display="none"/></g><g transform="translate(500.83333333333337,190.9090909090909)"><path class="background" aria-hidden="true" d="M3,0L12.000000000000002,0C13.655745073482002,0,15.000000000000002,1.344254926518,15.000000000000002,3L15.000000000000002,109.0909090909091C15.000000000000002,109.0909090909091,15.000000000000002,109.0909090909091,15.000000000000002,109.0909090909091L0,109.0909090909091C0,109.0909090909091,0,109.0909090909091,0,109.0909090909091L0,3C0,1.344254926518,1.344254926518,0,3,0Z"/><g clip-path="url(#clip93)"><g class="mark-group role-scope" role="graphics-object" aria-roledescription="group mark container"><g transform="translate(0,-190.9090909090909)"><path class="background" aria-hidden="true" d="M0,0h15.000000000000002v0h-15.000000000000002Z"/><g><g class="mark-rect role-mark marks" role="graphics-object" aria-roledescription="rect mark container"><path aria-label="BSC Locations: Frappe; Number of Customers: 4" role="graphics-symbol" aria-roledescription="bar" d="M0,190.9090909090909h15.000000000000002v109.0909090909091h-15.000000000000002Z" fill="#03A9F4"/></g></g><path class="foreground" aria-hidden="true" d="" display="none"/></g></g></g><path class="foreground" aria-hidden="true" d="" display="none"/></g><g transform="translate(517.5,190.9090909090909)"><path class="background" aria-hidden="true" d="M3,0L12.000000000000002,0C13.655745073482002,0,15.000000000000002,1.344254926518,15.000000000000002,3L15.000000000000002,109.0909090909091C15.000000000000002,109.0909090909091,15.000000000000002,109.0909090909091,15.000000000000002,109.0909090909091L0,109.0909090909091C0,109.0909090909091,0,109.0909090909091,0,109.0909090909091L0,3C0,1.344254926518,1.344254926518,0,3,0Z"/><g clip-path="url(#clip94)"><g class="mark-group role-scope" role="graphics-object" aria-roledescription="group mark container"><g transform="translate(0,-190.9090909090909)"><path class="background" aria-hidden="true" d="M0,0h15.000000000000002v0h-15.000000000000002Z"/><g><g class="mark-rect role-mark marks" role="graphics-object" aria-roledescription="rect mark container"><path aria-label="BSC Locations: Dirty Chai; Number of Customers: 4" role="graphics-symbol" aria-roledescription="bar" d="M0,190.9090909090909h15.000000000000002v109.0909090909091h-15.000000000000002Z" fill="#03A9F4"/></g></g><path class="foreground" aria-hidden="true" d="" display="none"/></g></g></g><path class="foreground" aria-hidden="true" d="" display="none"/></g><g transform="translate(534.1666666666667,190.9090909090909)"><path class="background" aria-hidden="true" d="M3,0L12.000000000000002,0C13.655745073482002,0,15.000000000000002,1.344254926518,15.000000000000002,3L15.000000000000002,109.0909090909091C15.000000000000002,109.0909090909091,15.000000000000002,109.0909090909091,15.000000000000002,109.0909090909091L0,109.0909090909091C0,109.0909090909091,0,109.0909090909091,0,109.0909090909091L0,3C0,1.344254926518,1.344254926518,0,3,0Z"/><g clip-path="url(#clip95)"><g class="mark-group role-scope" role="graphics-object" aria-roledescription="group mark container"><g transform="translate(0,-190.9090909090909)"><path class="background" aria-hidden="true" d="M0,0h15.000000000000002v0h-15.000000000000002Z"/><g><g class="mark-rect role-mark marks" role="graphics-object" aria-roledescription="rect mark container"><path aria-label="BSC Locations: Mocha Latte; Number of Customers: 4" role="graphics-symbol" aria-roledescription="bar" d="M0,190.9090909090909h15.000000000000002v109.0909090909091h-15.000000000000002Z" fill="#03A9F4"/></g></g><path class="foreground" aria-hidden="true" d="" display="none"/></g></g></g><path class="foreground" aria-hidden="true" d="" display="none"/></g><g transform="translate(550.8333333333333,218.1818181818182)"><path class="background" aria-hidden="true" d="M3,0L12.000000000000002,0C13.655745073482002,0,15.000000000000002,1.344254926518,15.000000000000002,3L15.000000000000002,81.81818181818181C15.000000000000002,81.81818181818181,15.000000000000002,81.81818181818181,15.000000000000002,81.81818181818181L0,81.81818181818181C0,81.81818181818181,0,81.81818181818181,0,81.81818181818181L0,3C0,1.344254926518,1.344254926518,0,3,0Z"/><g clip-path="url(#clip96)"><g class="mark-group role-scope" role="graphics-object" aria-roledescription="group mark container"><g transform="translate(0,-218.1818181818182)"><path class="background" aria-hidden="true" d="M0,0h15.000000000000002v0h-15.000000000000002Z"/><g><g class="mark-rect role-mark marks" role="graphics-object" aria-roledescription="rect mark container"><path aria-label="BSC Locations: Coconut Latte; Number of Customers: 3" role="graphics-symbol" aria-roledescription="bar" d="M0,218.1818181818182h15.000000000000002v81.81818181818181h-15.000000000000002Z" fill="#03A9F4"/></g></g><path class="foreground" aria-hidden="true" d="" display="none"/></g></g></g><path class="foreground" aria-hidden="true" d="" display="none"/></g><g transform="translate(567.5,218.1818181818182)"><path class="background" aria-hidden="true" d="M3,0L12.000000000000002,0C13.655745073482002,0,15.000000000000002,1.344254926518,15.000000000000002,3L15.000000000000002,81.81818181818181C15.000000000000002,81.81818181818181,15.000000000000002,81.81818181818181,15.000000000000002,81.81818181818181L0,81.81818181818181C0,81.81818181818181,0,81.81818181818181,0,81.81818181818181L0,3C0,1.344254926518,1.344254926518,0,3,0Z"/><g clip-path="url(#clip97)"><g class="mark-group role-scope" role="graphics-object" aria-roledescription="group mark container"><g transform="translate(0,-218.1818181818182)"><path class="background" aria-hidden="true" d="M0,0h15.000000000000002v0h-15.000000000000002Z"/><g><g class="mark-rect role-mark marks" role="graphics-object" aria-roledescription="rect mark container"><path aria-label="BSC Locations: Black Coffee; Number of Customers: 3" role="graphics-symbol" aria-roledescription="bar" d="M0,218.1818181818182h15.000000000000002v81.81818181818181h-15.000000000000002Z" fill="#03A9F4"/></g></g><path class="foreground" aria-hidden="true" d="" display="none"/></g></g></g><path class="foreground" aria-hidden="true" d="" display="none"/></g><g transform="translate(584.1666666666667,218.1818181818182)"><path class="background" aria-hidden="true" d="M3,0L12.000000000000002,0C13.655745073482002,0,15.000000000000002,1.344254926518,15.000000000000002,3L15.000000000000002,81.81818181818181C15.000000000000002,81.81818181818181,15.000000000000002,81.81818181818181,15.000000000000002,81.81818181818181L0,81.81818181818181C0,81.81818181818181,0,81.81818181818181,0,81.81818181818181L0,3C0,1.344254926518,1.344254926518,0,3,0Z"/><g clip-path="url(#clip98)"><g class="mark-group role-scope" role="graphics-object" aria-roledescription="group mark container"><g transform="translate(0,-218.1818181818182)"><path class="background" aria-hidden="true" d="M0,0h15.000000000000002v0h-15.000000000000002Z"/><g><g class="mark-rect role-mark marks" role="graphics-object" aria-roledescription="rect mark container"><path aria-label="BSC Locations: Espresso; Number of Customers: 3" role="graphics-symbol" aria-roledescription="bar" d="M0,218.1818181818182h15.000000000000002v81.81818181818181h-15.000000000000002Z" fill="#03A9F4"/></g></g><path class="foreground" aria-hidden="true" d="" display="none"/></g></g></g><path class="foreground" aria-hidden="true" d="" display="none"/></g><g transform="translate(600.8333333333333,218.1818181818182)"><path class="background" aria-hidden="true" d="M3,0L12.000000000000002,0C13.655745073482002,0,15.000000000000002,1.344254926518,15.000000000000002,3L15.000000000000002,81.81818181818181C15.000000000000002,81.81818181818181,15.000000000000002,81.81818181818181,15.000000000000002,81.81818181818181L0,81.81818181818181C0,81.81818181818181,0,81.81818181818181,0,81.81818181818181L0,3C0,1.344254926518,1.344254926518,0,3,0Z"/><g clip-path="url(#clip99)"><g class="mark-group role-scope" role="graphics-object" aria-roledescription="group mark container"><g transform="translate(0,-218.1818181818182)"><path class="background" aria-hidden="true" d="M0,0h15.000000000000002v0h-15.000000000000002Z"/><g><g class="mark-rect role-mark marks" role="graphics-object" aria-roledescription="rect mark container"><path aria-label="BSC Locations: Irish Coffee; Number of Customers: 3" role="graphics-symbol" aria-roledescription="bar" d="M0,218.1818181818182h15.000000000000002v81.81818181818181h-15.000000000000002Z" fill="#03A9F4"/></g></g><path class="foreground" aria-hidden="true" d="" display="none"/></g></g></g><path class="foreground" aria-hidden="true" d="" display="none"/></g><g transform="translate(617.5,218.1818181818182)"><path class="background" aria-hidden="true" d="M3,0L12.000000000000002,0C13.655745073482002,0,15.000000000000002,1.344254926518,15.000000000000002,3L15.000000000000002,81.81818181818181C15.000000000000002,81.81818181818181,15.000000000000002,81.81818181818181,15.000000000000002,81.81818181818181L0,81.81818181818181C0,81.81818181818181,0,81.81818181818181,0,81.81818181818181L0,3C0,1.344254926518,1.344254926518,0,3,0Z"/><g clip-path="url(#clip100)"><g class="mark-group role-scope" role="graphics-object" aria-roledescription="group mark container"><g transform="translate(0,-218.1818181818182)"><path class="background" aria-hidden="true" d="M0,0h15.000000000000002v0h-15.000000000000002Z"/><g><g class="mark-rect role-mark marks" role="graphics-object" aria-roledescription="rect mark container"><path aria-label="BSC Locations: Green Tea Latte; Number of Customers: 3" role="graphics-symbol" aria-roledescription="bar" d="M0,218.1818181818182h15.000000000000002v81.81818181818181h-15.000000000000002Z" fill="#03A9F4"/></g></g><path class="foreground" aria-hidden="true" d="" display="none"/></g></g></g><path class="foreground" aria-hidden="true" d="" display="none"/></g><g transform="translate(634.1666666666667,218.1818181818182)"><path class="background" aria-hidden="true" d="M3,0L12.000000000000002,0C13.655745073482002,0,15.000000000000002,1.344254926518,15.000000000000002,3L15.000000000000002,81.81818181818181C15.000000000000002,81.81818181818181,15.000000000000002,81.81818181818181,15.000000000000002,81.81818181818181L0,81.81818181818181C0,81.81818181818181,0,81.81818181818181,0,81.81818181818181L0,3C0,1.344254926518,1.344254926518,0,3,0Z"/><g clip-path="url(#clip101)"><g class="mark-group role-scope" role="graphics-object" aria-roledescription="group mark container"><g transform="translate(0,-218.1818181818182)"><path class="background" aria-hidden="true" d="M0,0h15.000000000000002v0h-15.000000000000002Z"/><g><g class="mark-rect role-mark marks" role="graphics-object" aria-roledescription="rect mark container"><path aria-label="BSC Locations: Caramel Mac; Number of Customers: 3" role="graphics-symbol" aria-roledescription="bar" d="M0,218.1818181818182h15.000000000000002v81.81818181818181h-15.000000000000002Z" fill="#03A9F4"/></g></g><path class="foreground" aria-hidden="true" d="" display="none"/></g></g></g><path class="foreground" aria-hidden="true" d="" display="none"/></g><g transform="translate(650.8333333333333,245.45454545454544)"><path class="background" aria-hidden="true" d="M3,0L12.000000000000002,0C13.655745073482002,0,15.000000000000002,1.344254926518,15.000000000000002,3L15.000000000000002,54.54545454545456C15.000000000000002,54.54545454545456,15.000000000000002,54.54545454545456,15.000000000000002,54.54545454545456L0,54.54545454545456C0,54.54545454545456,0,54.54545454545456,0,54.54545454545456L0,3C0,1.344254926518,1.344254926518,0,3,0Z"/><g clip-path="url(#clip102)"><g class="mark-group role-scope" role="graphics-object" aria-roledescription="group mark container"><g transform="translate(0,-245.45454545454544)"><path class="background" aria-hidden="true" d="M0,0h15.000000000000002v0h-15.000000000000002Z"/><g><g class="mark-rect role-mark marks" role="graphics-object" aria-roledescription="rect mark container"><path aria-label="BSC Locations: Irish Capp; Number of Customers: 2" role="graphics-symbol" aria-roledescription="bar" d="M0,245.45454545454544h15.000000000000002v54.54545454545456h-15.000000000000002Z" fill="#03A9F4"/></g></g><path class="foreground" aria-hidden="true" d="" display="none"/></g></g></g><path class="foreground" aria-hidden="true" d="" display="none"/></g><g transform="translate(667.5,245.45454545454544)"><path class="background" aria-hidden="true" d="M3,0L12.000000000000002,0C13.655745073482002,0,15.000000000000002,1.344254926518,15.000000000000002,3L15.000000000000002,54.54545454545456C15.000000000000002,54.54545454545456,15.000000000000002,54.54545454545456,15.000000000000002,54.54545454545456L0,54.54545454545456C0,54.54545454545456,0,54.54545454545456,0,54.54545454545456L0,3C0,1.344254926518,1.344254926518,0,3,0Z"/><g clip-path="url(#clip103)"><g class="mark-group role-scope" role="graphics-object" aria-roledescription="group mark container"><g transform="translate(0,-245.45454545454544)"><path class="background" aria-hidden="true" d="M0,0h15.000000000000002v0h-15.000000000000002Z"/><g><g class="mark-rect role-mark marks" role="graphics-object" aria-roledescription="rect mark container"><path aria-label="BSC Locations: Choc Macchiato; Number of Customers: 2" role="graphics-symbol" aria-roledescription="bar" d="M0,245.45454545454544h15.000000000000002v54.54545454545456h-15.000000000000002Z" fill="#03A9F4"/></g></g><path class="foreground" aria-hidden="true" d="" display="none"/></g></g></g><path class="foreground" aria-hidden="true" d="" display="none"/></g><g transform="translate(684.1666666666667,245.45454545454544)"><path class="background" aria-hidden="true" d="M3,0L12.000000000000002,0C13.655745073482002,0,15.000000000000002,1.344254926518,15.000000000000002,3L15.000000000000002,54.54545454545456C15.000000000000002,54.54545454545456,15.000000000000002,54.54545454545456,15.000000000000002,54.54545454545456L0,54.54545454545456C0,54.54545454545456,0,54.54545454545456,0,54.54545454545456L0,3C0,1.344254926518,1.344254926518,0,3,0Z"/><g clip-path="url(#clip104)"><g class="mark-group role-scope" role="graphics-object" aria-roledescription="group mark container"><g transform="translate(0,-245.45454545454544)"><path class="background" aria-hidden="true" d="M0,0h15.000000000000002v0h-15.000000000000002Z"/><g><g class="mark-rect role-mark marks" role="graphics-object" aria-roledescription="rect mark container"><path aria-label="BSC Locations: Almond Mocha; Number of Customers: 2" role="graphics-symbol" aria-roledescription="bar" d="M0,245.45454545454544h15.000000000000002v54.54545454545456h-15.000000000000002Z" fill="#03A9F4"/></g></g><path class="foreground" aria-hidden="true" d="" display="none"/></g></g></g><path class="foreground" aria-hidden="true" d="" display="none"/></g><g transform="translate(700.8333333333333,245.45454545454544)"><path class="background" aria-hidden="true" d="M3,0L12.000000000000002,0C13.655745073482002,0,15.000000000000002,1.344254926518,15.000000000000002,3L15.000000000000002,54.54545454545456C15.000000000000002,54.54545454545456,15.000000000000002,54.54545454545456,15.000000000000002,54.54545454545456L0,54.54545454545456C0,54.54545454545456,0,54.54545454545456,0,54.54545454545456L0,3C0,1.344254926518,1.344254926518,0,3,0Z"/><g clip-path="url(#clip105)"><g class="mark-group role-scope" role="graphics-object" aria-roledescription="group mark container"><g transform="translate(0,-245.45454545454544)"><path class="background" aria-hidden="true" d="M0,0h15.000000000000002v0h-15.000000000000002Z"/><g><g class="mark-rect role-mark marks" role="graphics-object" aria-roledescription="rect mark container"><path aria-label="BSC Locations: Choc Cappuccino; Number of Customers: 2" role="graphics-symbol" aria-roledescription="bar" d="M0,245.45454545454544h15.000000000000002v54.54545454545456h-15.000000000000002Z" fill="#03A9F4"/></g></g><path class="foreground" aria-hidden="true" d="" display="none"/></g></g></g><path class="foreground" aria-hidden="true" d="" display="none"/></g><g transform="translate(717.5,245.45454545454544)"><path class="background" aria-hidden="true" d="M3,0L12.000000000000002,0C13.655745073482002,0,15.000000000000002,1.344254926518,15.000000000000002,3L15.000000000000002,54.54545454545456C15.000000000000002,54.54545454545456,15.000000000000002,54.54545454545456,15.000000000000002,54.54545454545456L0,54.54545454545456C0,54.54545454545456,0,54.54545454545456,0,54.54545454545456L0,3C0,1.344254926518,1.344254926518,0,3,0Z"/><g clip-path="url(#clip106)"><g class="mark-group role-scope" role="graphics-object" aria-roledescription="group mark container"><g transform="translate(0,-245.45454545454544)"><path class="background" aria-hidden="true" d="M0,0h15.000000000000002v0h-15.000000000000002Z"/><g><g class="mark-rect role-mark marks" role="graphics-object" aria-roledescription="rect mark container"><path aria-label="BSC Locations: Mocha; Number of Customers: 2" role="graphics-symbol" aria-roledescription="bar" d="M0,245.45454545454544h15.000000000000002v54.54545454545456h-15.000000000000002Z" fill="#03A9F4"/></g></g><path class="foreground" aria-hidden="true" d="" display="none"/></g></g></g><path class="foreground" aria-hidden="true" d="" display="none"/></g><g transform="translate(734.1666666666667,245.45454545454544)"><path class="background" aria-hidden="true" d="M3,0L12.000000000000002,0C13.655745073482002,0,15.000000000000002,1.344254926518,15.000000000000002,3L15.000000000000002,54.54545454545456C15.000000000000002,54.54545454545456,15.000000000000002,54.54545454545456,15.000000000000002,54.54545454545456L0,54.54545454545456C0,54.54545454545456,0,54.54545454545456,0,54.54545454545456L0,3C0,1.344254926518,1.344254926518,0,3,0Z"/><g clip-path="url(#clip107)"><g class="mark-group role-scope" role="graphics-object" aria-roledescription="group mark container"><g transform="translate(0,-245.45454545454544)"><path class="background" aria-hidden="true" d="M0,0h15.000000000000002v0h-15.000000000000002Z"/><g><g class="mark-rect role-mark marks" role="graphics-object" aria-roledescription="rect mark container"><path aria-label="BSC Locations: Vanilla Chai; Number of Customers: 2" role="graphics-symbol" aria-roledescription="bar" d="M0,245.45454545454544h15.000000000000002v54.54545454545456h-15.000000000000002Z" fill="#03A9F4"/></g></g><path class="foreground" aria-hidden="true" d="" display="none"/></g></g></g><path class="foreground" aria-hidden="true" d="" display="none"/></g><g transform="translate(750.8333333333333,245.45454545454544)"><path class="background" aria-hidden="true" d="M3,0L12.000000000000002,0C13.655745073482002,0,15.000000000000002,1.344254926518,15.000000000000002,3L15.000000000000002,54.54545454545456C15.000000000000002,54.54545454545456,15.000000000000002,54.54545454545456,15.000000000000002,54.54545454545456L0,54.54545454545456C0,54.54545454545456,0,54.54545454545456,0,54.54545454545456L0,3C0,1.344254926518,1.344254926518,0,3,0Z"/><g clip-path="url(#clip108)"><g class="mark-group role-scope" role="graphics-object" aria-roledescription="group mark container"><g transform="translate(0,-245.45454545454544)"><path class="background" aria-hidden="true" d="M0,0h15.000000000000002v0h-15.000000000000002Z"/><g><g class="mark-rect role-mark marks" role="graphics-object" aria-roledescription="rect mark container"><path aria-label="BSC Locations: Iced Coffee; Number of Customers: 2" role="graphics-symbol" aria-roledescription="bar" d="M0,245.45454545454544h15.000000000000002v54.54545454545456h-15.000000000000002Z" fill="#03A9F4"/></g></g><path class="foreground" aria-hidden="true" d="" display="none"/></g></g></g><path class="foreground" aria-hidden="true" d="" display="none"/></g><g transform="translate(767.5,272.7272727272727)"><path class="background" aria-hidden="true" d="M3,0L12.000000000000002,0C13.655745073482002,0,15.000000000000002,1.344254926518,15.000000000000002,3L15.000000000000002,27.27272727272731C15.000000000000002,27.27272727272731,15.000000000000002,27.27272727272731,15.000000000000002,27.27272727272731L0,27.27272727272731C0,27.27272727272731,0,27.27272727272731,0,27.27272727272731L0,3C0,1.344254926518,1.344254926518,0,3,0Z"/><g clip-path="url(#clip109)"><g class="mark-group role-scope" role="graphics-object" aria-roledescription="group mark container"><g transform="translate(0,-272.7272727272727)"><path class="background" aria-hidden="true" d="M0,0h15.000000000000002v0h-15.000000000000002Z"/><g><g class="mark-rect role-mark marks" role="graphics-object" aria-roledescription="rect mark container"><path aria-label="BSC Locations: Java Chip; Number of Customers: 1" role="graphics-symbol" aria-roledescription="bar" d="M0,272.7272727272727h15.000000000000002v27.27272727272731h-15.000000000000002Z" fill="#03A9F4"/></g></g><path class="foreground" aria-hidden="true" d="" display="none"/></g></g></g><path class="foreground" aria-hidden="true" d="" display="none"/></g><g transform="translate(784.1666666666667,272.7272727272727)"><path class="background" aria-hidden="true" d="M3,0L12.000000000000002,0C13.655745073482002,0,15.000000000000002,1.344254926518,15.000000000000002,3L15.000000000000002,27.27272727272731C15.000000000000002,27.27272727272731,15.000000000000002,27.27272727272731,15.000000000000002,27.27272727272731L0,27.27272727272731C0,27.27272727272731,0,27.27272727272731,0,27.27272727272731L0,3C0,1.344254926518,1.344254926518,0,3,0Z"/><g clip-path="url(#clip110)"><g class="mark-group role-scope" role="graphics-object" aria-roledescription="group mark container"><g transform="translate(0,-272.7272727272727)"><path class="background" aria-hidden="true" d="M0,0h15.000000000000002v0h-15.000000000000002Z"/><g><g class="mark-rect role-mark marks" role="graphics-object" aria-roledescription="rect mark container"><path aria-label="BSC Locations: Peppermint Mocha; Number of Customers: 1" role="graphics-symbol" aria-roledescription="bar" d="M0,272.7272727272727h15.000000000000002v27.27272727272731h-15.000000000000002Z" fill="#03A9F4"/></g></g><path class="foreground" aria-hidden="true" d="" display="none"/></g></g></g><path class="foreground" aria-hidden="true" d="" display="none"/></g></g><g class="mark-group role-title"><g transform="translate(400,-22)"><path class="background" aria-hidden="true" d="M0,0h0v0h0Z" pointer-events="none"/><g><g class="mark-text role-title-text" role="graphics-symbol" aria-roledescription="title" aria-label="Title text 'BSC Location Popularity'" pointer-events="none"><text text-anchor="middle" transform="translate(0,10)" font-family="Space Grotesk" font-size="13px" font-weight="bold" fill="#000" opacity="1">BSC Location Popularity</text></g></g><path class="foreground" aria-hidden="true" d="" pointer-events="none" display="none"/></g></g></g><path class="foreground" aria-hidden="true" d="" display="none"/></g></g></g><defs><clipPath id="clip63"><path d="M3,0L12.000000000000002,0C13.655745073482002,0,15.000000000000002,1.344254926518,15.000000000000002,3L15.000000000000002,300C15.000000000000002,300,15.000000000000002,300,15.000000000000002,300L0,300C0,300,0,300,0,300L0,3C0,1.344254926518,1.344254926518,0,3,0Z"/></clipPath><clipPath id="clip64"><path d="M3,0L12.000000000000002,0C13.655745073482002,0,15.000000000000002,1.344254926518,15.000000000000002,3L15.000000000000002,272.72727272727275C15.000000000000002,272.72727272727275,15.000000000000002,272.72727272727275,15.000000000000002,272.72727272727275L0,272.72727272727275C0,272.72727272727275,0,272.72727272727275,0,272.72727272727275L0,3C0,1.344254926518,1.344254926518,0,3,0Z"/></clipPath><clipPath id="clip65"><path d="M3,0L12.000000000000002,0C13.655745073482002,0,15.000000000000002,1.344254926518,15.000000000000002,3L15.000000000000002,245.45454545454547C15.000000000000002,245.45454545454547,15.000000000000002,245.45454545454547,15.000000000000002,245.45454545454547L0,245.45454545454547C0,245.45454545454547,0,245.45454545454547,0,245.45454545454547L0,3C0,1.344254926518,1.344254926518,0,3,0Z"/></clipPath><clipPath id="clip66"><path d="M3,0L12.000000000000002,0C13.655745073482002,0,15.000000000000002,1.344254926518,15.000000000000002,3L15.000000000000002,245.45454545454547C15.000000000000002,245.45454545454547,15.000000000000002,245.45454545454547,15.000000000000002,245.45454545454547L0,245.45454545454547C0,245.45454545454547,0,245.45454545454547,0,245.45454545454547L0,3C0,1.344254926518,1.344254926518,0,3,0Z"/></clipPath><clipPath id="clip67"><path d="M3,0L12.000000000000002,0C13.655745073482002,0,15.000000000000002,1.344254926518,15.000000000000002,3L15.000000000000002,245.45454545454547C15.000000000000002,245.45454545454547,15.000000000000002,245.45454545454547,15.000000000000002,245.45454545454547L0,245.45454545454547C0,245.45454545454547,0,245.45454545454547,0,245.45454545454547L0,3C0,1.344254926518,1.344254926518,0,3,0Z"/></clipPath><clipPath id="clip68"><path d="M3,0L12.000000000000002,0C13.655745073482002,0,15.000000000000002,1.344254926518,15.000000000000002,3L15.000000000000002,218.1818181818182C15.000000000000002,218.1818181818182,15.000000000000002,218.1818181818182,15.000000000000002,218.1818181818182L0,218.1818181818182C0,218.1818181818182,0,218.1818181818182,0,218.1818181818182L0,3C0,1.344254926518,1.344254926518,0,3,0Z"/></clipPath><clipPath id="clip69"><path d="M3,0L12.000000000000002,0C13.655745073482002,0,15.000000000000002,1.344254926518,15.000000000000002,3L15.000000000000002,190.9090909090909C15.000000000000002,190.9090909090909,15.000000000000002,190.9090909090909,15.000000000000002,190.9090909090909L0,190.9090909090909C0,190.9090909090909,0,190.9090909090909,0,190.9090909090909L0,3C0,1.344254926518,1.344254926518,0,3,0Z"/></clipPath><clipPath id="clip70"><path d="M3,0L12.000000000000002,0C13.655745073482002,0,15.000000000000002,1.344254926518,15.000000000000002,3L15.000000000000002,190.9090909090909C15.000000000000002,190.9090909090909,15.000000000000002,190.9090909090909,15.000000000000002,190.9090909090909L0,190.9090909090909C0,190.9090909090909,0,190.9090909090909,0,190.9090909090909L0,3C0,1.344254926518,1.344254926518,0,3,0Z"/></clipPath><clipPath id="clip71"><path d="M3,0L12.000000000000002,0C13.655745073482002,0,15.000000000000002,1.344254926518,15.000000000000002,3L15.000000000000002,163.63636363636363C15.000000000000002,163.63636363636363,15.000000000000002,163.63636363636363,15.000000000000002,163.63636363636363L0,163.63636363636363C0,163.63636363636363,0,163.63636363636363,0,163.63636363636363L0,3C0,1.344254926518,1.344254926518,0,3,0Z"/></clipPath><clipPath id="clip72"><path d="M3,0L12.000000000000002,0C13.655745073482002,0,15.000000000000002,1.344254926518,15.000000000000002,3L15.000000000000002,163.63636363636363C15.000000000000002,163.63636363636363,15.000000000000002,163.63636363636363,15.000000000000002,163.63636363636363L0,163.63636363636363C0,163.63636363636363,0,163.63636363636363,0,163.63636363636363L0,3C0,1.344254926518,1.344254926518,0,3,0Z"/></clipPath><clipPath id="clip73"><path d="M3,0L12.000000000000002,0C13.655745073482002,0,15.000000000000002,1.344254926518,15.000000000000002,3L15.000000000000002,163.63636363636363C15.000000000000002,163.63636363636363,15.000000000000002,163.63636363636363,15.000000000000002,163.63636363636363L0,163.63636363636363C0,163.63636363636363,0,163.63636363636363,0,163.63636363636363L0,3C0,1.344254926518,1.344254926518,0,3,0Z"/></clipPath><clipPath id="clip74"><path d="M3,0L12.000000000000002,0C13.655745073482002,0,15.000000000000002,1.344254926518,15.000000000000002,3L15.000000000000002,163.63636363636363C15.000000000000002,163.63636363636363,15.000000000000002,163.63636363636363,15.000000000000002,163.63636363636363L0,163.63636363636363C0,163.63636363636363,0,163.63636363636363,0,163.63636363636363L0,3C0,1.344254926518,1.344254926518,0,3,0Z"/></clipPath><clipPath id="clip75"><path d="M3,0L12.000000000000002,0C13.655745073482002,0,15.000000000000002,1.344254926518,15.000000000000002,3L15.000000000000002,163.63636363636363C15.000000000000002,163.63636363636363,15.000000000000002,163.63636363636363,15.000000000000002,163.63636363636363L0,163.63636363636363C0,163.63636363636363,0,163.63636363636363,0,163.63636363636363L0,3C0,1.344254926518,1.344254926518,0,3,0Z"/></clipPath><clipPath id="clip76"><path d="M3,0L12.000000000000002,0C13.655745073482002,0,15.000000000000002,1.344254926518,15.000000000000002,3L15.000000000000002,163.63636363636363C15.000000000000002,163.63636363636363,15.000000000000002,163.63636363636363,15.000000000000002,163.63636363636363L0,163.63636363636363C0,163.63636363636363,0,163.63636363636363,0,163.63636363636363L0,3C0,1.344254926518,1.344254926518,0,3,0Z"/></clipPath><clipPath id="clip77"><path d="M3,0L12.000000000000002,0C13.655745073482002,0,15.000000000000002,1.344254926518,15.000000000000002,3L15.000000000000002,163.63636363636363C15.000000000000002,163.63636363636363,15.000000000000002,163.63636363636363,15.000000000000002,163.63636363636363L0,163.63636363636363C0,163.63636363636363,0,163.63636363636363,0,163.63636363636363L0,3C0,1.344254926518,1.344254926518,0,3,0Z"/></clipPath><clipPath id="clip78"><path d="M3,0L12.000000000000002,0C13.655745073482002,0,15.000000000000002,1.344254926518,15.000000000000002,3L15.000000000000002,163.63636363636363C15.000000000000002,163.63636363636363,15.000000000000002,163.63636363636363,15.000000000000002,163.63636363636363L0,163.63636363636363C0,163.63636363636363,0,163.63636363636363,0,163.63636363636363L0,3C0,1.344254926518,1.344254926518,0,3,0Z"/></clipPath><clipPath id="clip79"><path d="M3,0L12.000000000000002,0C13.655745073482002,0,15.000000000000002,1.344254926518,15.000000000000002,3L15.000000000000002,163.63636363636363C15.000000000000002,163.63636363636363,15.000000000000002,163.63636363636363,15.000000000000002,163.63636363636363L0,163.63636363636363C0,163.63636363636363,0,163.63636363636363,0,163.63636363636363L0,3C0,1.344254926518,1.344254926518,0,3,0Z"/></clipPath><clipPath id="clip80"><path d="M3,0L12.000000000000002,0C13.655745073482002,0,15.000000000000002,1.344254926518,15.000000000000002,3L15.000000000000002,163.63636363636363C15.000000000000002,163.63636363636363,15.000000000000002,163.63636363636363,15.000000000000002,163.63636363636363L0,163.63636363636363C0,163.63636363636363,0,163.63636363636363,0,163.63636363636363L0,3C0,1.344254926518,1.344254926518,0,3,0Z"/></clipPath><clipPath id="clip81"><path d="M3,0L12.000000000000002,0C13.655745073482002,0,15.000000000000002,1.344254926518,15.000000000000002,3L15.000000000000002,136.36363636363637C15.000000000000002,136.36363636363637,15.000000000000002,136.36363636363637,15.000000000000002,136.36363636363637L0,136.36363636363637C0,136.36363636363637,0,136.36363636363637,0,136.36363636363637L0,3C0,1.344254926518,1.344254926518,0,3,0Z"/></clipPath><clipPath id="clip82"><path d="M3,0L12.000000000000002,0C13.655745073482002,0,15.000000000000002,1.344254926518,15.000000000000002,3L15.000000000000002,136.36363636363637C15.000000000000002,136.36363636363637,15.000000000000002,136.36363636363637,15.000000000000002,136.36363636363637L0,136.36363636363637C0,136.36363636363637,0,136.36363636363637,0,136.36363636363637L0,3C0,1.344254926518,1.344254926518,0,3,0Z"/></clipPath><clipPath id="clip83"><path d="M3,0L12.000000000000002,0C13.655745073482002,0,15.000000000000002,1.344254926518,15.000000000000002,3L15.000000000000002,136.36363636363637C15.000000000000002,136.36363636363637,15.000000000000002,136.36363636363637,15.000000000000002,136.36363636363637L0,136.36363636363637C0,136.36363636363637,0,136.36363636363637,0,136.36363636363637L0,3C0,1.344254926518,1.344254926518,0,3,0Z"/></clipPath><clipPath id="clip84"><path d="M3,0L12.000000000000002,0C13.655745073482002,0,15.000000000000002,1.344254926518,15.000000000000002,3L15.000000000000002,136.36363636363637C15.000000000000002,136.36363636363637,15.000000000000002,136.36363636363637,15.000000000000002,136.36363636363637L0,136.36363636363637C0,136.36363636363637,0,136.36363636363637,0,136.36363636363637L0,3C0,1.344254926518,1.344254926518,0,3,0Z"/></clipPath><clipPath id="clip85"><path d="M3,0L12.000000000000002,0C13.655745073482002,0,15.000000000000002,1.344254926518,15.000000000000002,3L15.000000000000002,136.36363636363637C15.000000000000002,136.36363636363637,15.000000000000002,136.36363636363637,15.000000000000002,136.36363636363637L0,136.36363636363637C0,136.36363636363637,0,136.36363636363637,0,136.36363636363637L0,3C0,1.344254926518,1.344254926518,0,3,0Z"/></clipPath><clipPath id="clip86"><path d="M3,0L12.000000000000002,0C13.655745073482002,0,15.000000000000002,1.344254926518,15.000000000000002,3L15.000000000000002,136.36363636363637C15.000000000000002,136.36363636363637,15.000000000000002,136.36363636363637,15.000000000000002,136.36363636363637L0,136.36363636363637C0,136.36363636363637,0,136.36363636363637,0,136.36363636363637L0,3C0,1.344254926518,1.344254926518,0,3,0Z"/></clipPath><clipPath id="clip87"><path d="M3,0L12.000000000000002,0C13.655745073482002,0,15.000000000000002,1.344254926518,15.000000000000002,3L15.000000000000002,136.36363636363637C15.000000000000002,136.36363636363637,15.000000000000002,136.36363636363637,15.000000000000002,136.36363636363637L0,136.36363636363637C0,136.36363636363637,0,136.36363636363637,0,136.36363636363637L0,3C0,1.344254926518,1.344254926518,0,3,0Z"/></clipPath><clipPath id="clip88"><path d="M3,0L12.000000000000002,0C13.655745073482002,0,15.000000000000002,1.344254926518,15.000000000000002,3L15.000000000000002,136.36363636363637C15.000000000000002,136.36363636363637,15.000000000000002,136.36363636363637,15.000000000000002,136.36363636363637L0,136.36363636363637C0,136.36363636363637,0,136.36363636363637,0,136.36363636363637L0,3C0,1.344254926518,1.344254926518,0,3,0Z"/></clipPath><clipPath id="clip89"><path d="M3,0L12.000000000000002,0C13.655745073482002,0,15.000000000000002,1.344254926518,15.000000000000002,3L15.000000000000002,136.36363636363637C15.000000000000002,136.36363636363637,15.000000000000002,136.36363636363637,15.000000000000002,136.36363636363637L0,136.36363636363637C0,136.36363636363637,0,136.36363636363637,0,136.36363636363637L0,3C0,1.344254926518,1.344254926518,0,3,0Z"/></clipPath><clipPath id="clip90"><path d="M3,0L12.000000000000002,0C13.655745073482002,0,15.000000000000002,1.344254926518,15.000000000000002,3L15.000000000000002,109.0909090909091C15.000000000000002,109.0909090909091,15.000000000000002,109.0909090909091,15.000000000000002,109.0909090909091L0,109.0909090909091C0,109.0909090909091,0,109.0909090909091,0,109.0909090909091L0,3C0,1.344254926518,1.344254926518,0,3,0Z"/></clipPath><clipPath id="clip91"><path d="M3,0L12.000000000000002,0C13.655745073482002,0,15.000000000000002,1.344254926518,15.000000000000002,3L15.000000000000002,109.0909090909091C15.000000000000002,109.0909090909091,15.000000000000002,109.0909090909091,15.000000000000002,109.0909090909091L0,109.0909090909091C0,109.0909090909091,0,109.0909090909091,0,109.0909090909091L0,3C0,1.344254926518,1.344254926518,0,3,0Z"/></clipPath><clipPath id="clip92"><path d="M3,0L12.000000000000002,0C13.655745073482002,0,15.000000000000002,1.344254926518,15.000000000000002,3L15.000000000000002,109.0909090909091C15.000000000000002,109.0909090909091,15.000000000000002,109.0909090909091,15.000000000000002,109.0909090909091L0,109.0909090909091C0,109.0909090909091,0,109.0909090909091,0,109.0909090909091L0,3C0,1.344254926518,1.344254926518,0,3,0Z"/></clipPath><clipPath id="clip93"><path d="M3,0L12.000000000000002,0C13.655745073482002,0,15.000000000000002,1.344254926518,15.000000000000002,3L15.000000000000002,109.0909090909091C15.000000000000002,109.0909090909091,15.000000000000002,109.0909090909091,15.000000000000002,109.0909090909091L0,109.0909090909091C0,109.0909090909091,0,109.0909090909091,0,109.0909090909091L0,3C0,1.344254926518,1.344254926518,0,3,0Z"/></clipPath><clipPath id="clip94"><path d="M3,0L12.000000000000002,0C13.655745073482002,0,15.000000000000002,1.344254926518,15.000000000000002,3L15.000000000000002,109.0909090909091C15.000000000000002,109.0909090909091,15.000000000000002,109.0909090909091,15.000000000000002,109.0909090909091L0,109.0909090909091C0,109.0909090909091,0,109.0909090909091,0,109.0909090909091L0,3C0,1.344254926518,1.344254926518,0,3,0Z"/></clipPath><clipPath id="clip95"><path d="M3,0L12.000000000000002,0C13.655745073482002,0,15.000000000000002,1.344254926518,15.000000000000002,3L15.000000000000002,109.0909090909091C15.000000000000002,109.0909090909091,15.000000000000002,109.0909090909091,15.000000000000002,109.0909090909091L0,109.0909090909091C0,109.0909090909091,0,109.0909090909091,0,109.0909090909091L0,3C0,1.344254926518,1.344254926518,0,3,0Z"/></clipPath><clipPath id="clip96"><path d="M3,0L12.000000000000002,0C13.655745073482002,0,15.000000000000002,1.344254926518,15.000000000000002,3L15.000000000000002,81.81818181818181C15.000000000000002,81.81818181818181,15.000000000000002,81.81818181818181,15.000000000000002,81.81818181818181L0,81.81818181818181C0,81.81818181818181,0,81.81818181818181,0,81.81818181818181L0,3C0,1.344254926518,1.344254926518,0,3,0Z"/></clipPath><clipPath id="clip97"><path d="M3,0L12.000000000000002,0C13.655745073482002,0,15.000000000000002,1.344254926518,15.000000000000002,3L15.000000000000002,81.81818181818181C15.000000000000002,81.81818181818181,15.000000000000002,81.81818181818181,15.000000000000002,81.81818181818181L0,81.81818181818181C0,81.81818181818181,0,81.81818181818181,0,81.81818181818181L0,3C0,1.344254926518,1.344254926518,0,3,0Z"/></clipPath><clipPath id="clip98"><path d="M3,0L12.000000000000002,0C13.655745073482002,0,15.000000000000002,1.344254926518,15.000000000000002,3L15.000000000000002,81.81818181818181C15.000000000000002,81.81818181818181,15.000000000000002,81.81818181818181,15.000000000000002,81.81818181818181L0,81.81818181818181C0,81.81818181818181,0,81.81818181818181,0,81.81818181818181L0,3C0,1.344254926518,1.344254926518,0,3,0Z"/></clipPath><clipPath id="clip99"><path d="M3,0L12.000000000000002,0C13.655745073482002,0,15.000000000000002,1.344254926518,15.000000000000002,3L15.000000000000002,81.81818181818181C15.000000000000002,81.81818181818181,15.000000000000002,81.81818181818181,15.000000000000002,81.81818181818181L0,81.81818181818181C0,81.81818181818181,0,81.81818181818181,0,81.81818181818181L0,3C0,1.344254926518,1.344254926518,0,3,0Z"/></clipPath><clipPath id="clip100"><path d="M3,0L12.000000000000002,0C13.655745073482002,0,15.000000000000002,1.344254926518,15.000000000000002,3L15.000000000000002,81.81818181818181C15.000000000000002,81.81818181818181,15.000000000000002,81.81818181818181,15.000000000000002,81.81818181818181L0,81.81818181818181C0,81.81818181818181,0,81.81818181818181,0,81.81818181818181L0,3C0,1.344254926518,1.344254926518,0,3,0Z"/></clipPath><clipPath id="clip101"><path d="M3,0L12.000000000000002,0C13.655745073482002,0,15.000000000000002,1.344254926518,15.000000000000002,3L15.000000000000002,81.81818181818181C15.000000000000002,81.81818181818181,15.000000000000002,81.81818181818181,15.000000000000002,81.81818181818181L0,81.81818181818181C0,81.81818181818181,0,81.81818181818181,0,81.81818181818181L0,3C0,1.344254926518,1.344254926518,0,3,0Z"/></clipPath><clipPath id="clip102"><path d="M3,0L12.000000000000002,0C13.655745073482002,0,15.000000000000002,1.344254926518,15.000000000000002,3L15.000000000000002,54.54545454545456C15.000000000000002,54.54545454545456,15.000000000000002,54.54545454545456,15.000000000000002,54.54545454545456L0,54.54545454545456C0,54.54545454545456,0,54.54545454545456,0,54.54545454545456L0,3C0,1.344254926518,1.344254926518,0,3,0Z"/></clipPath><clipPath id="clip103"><path d="M3,0L12.000000000000002,0C13.655745073482002,0,15.000000000000002,1.344254926518,15.000000000000002,3L15.000000000000002,54.54545454545456C15.000000000000002,54.54545454545456,15.000000000000002,54.54545454545456,15.000000000000002,54.54545454545456L0,54.54545454545456C0,54.54545454545456,0,54.54545454545456,0,54.54545454545456L0,3C0,1.344254926518,1.344254926518,0,3,0Z"/></clipPath><clipPath id="clip104"><path d="M3,0L12.000000000000002,0C13.655745073482002,0,15.000000000000002,1.344254926518,15.000000000000002,3L15.000000000000002,54.54545454545456C15.000000000000002,54.54545454545456,15.000000000000002,54.54545454545456,15.000000000000002,54.54545454545456L0,54.54545454545456C0,54.54545454545456,0,54.54545454545456,0,54.54545454545456L0,3C0,1.344254926518,1.344254926518,0,3,0Z"/></clipPath><clipPath id="clip105"><path d="M3,0L12.000000000000002,0C13.655745073482002,0,15.000000000000002,1.344254926518,15.000000000000002,3L15.000000000000002,54.54545454545456C15.000000000000002,54.54545454545456,15.000000000000002,54.54545454545456,15.000000000000002,54.54545454545456L0,54.54545454545456C0,54.54545454545456,0,54.54545454545456,0,54.54545454545456L0,3C0,1.344254926518,1.344254926518,0,3,0Z"/></clipPath><clipPath id="clip106"><path d="M3,0L12.000000000000002,0C13.655745073482002,0,15.000000000000002,1.344254926518,15.000000000000002,3L15.000000000000002,54.54545454545456C15.000000000000002,54.54545454545456,15.000000000000002,54.54545454545456,15.000000000000002,54.54545454545456L0,54.54545454545456C0,54.54545454545456,0,54.54545454545456,0,54.54545454545456L0,3C0,1.344254926518,1.344254926518,0,3,0Z"/></clipPath><clipPath id="clip107"><path d="M3,0L12.000000000000002,0C13.655745073482002,0,15.000000000000002,1.344254926518,15.000000000000002,3L15.000000000000002,54.54545454545456C15.000000000000002,54.54545454545456,15.000000000000002,54.54545454545456,15.000000000000002,54.54545454545456L0,54.54545454545456C0,54.54545454545456,0,54.54545454545456,0,54.54545454545456L0,3C0,1.344254926518,1.344254926518,0,3,0Z"/></clipPath><clipPath id="clip108"><path d="M3,0L12.000000000000002,0C13.655745073482002,0,15.000000000000002,1.344254926518,15.000000000000002,3L15.000000000000002,54.54545454545456C15.000000000000002,54.54545454545456,15.000000000000002,54.54545454545456,15.000000000000002,54.54545454545456L0,54.54545454545456C0,54.54545454545456,0,54.54545454545456,0,54.54545454545456L0,3C0,1.344254926518,1.344254926518,0,3,0Z"/></clipPath><clipPath id="clip109"><path d="M3,0L12.000000000000002,0C13.655745073482002,0,15.000000000000002,1.344254926518,15.000000000000002,3L15.000000000000002,27.27272727272731C15.000000000000002,27.27272727272731,15.000000000000002,27.27272727272731,15.000000000000002,27.27272727272731L0,27.27272727272731C0,27.27272727272731,0,27.27272727272731,0,27.27272727272731L0,3C0,1.344254926518,1.344254926518,0,3,0Z"/></clipPath><clipPath id="clip110"><path d="M3,0L12.000000000000002,0C13.655745073482002,0,15.000000000000002,1.344254926518,15.000000000000002,3L15.000000000000002,27.27272727272731C15.000000000000002,27.27272727272731,15.000000000000002,27.27272727272731,15.000000000000002,27.27272727272731L0,27.27272727272731C0,27.27272727272731,0,27.27272727272731,0,27.27272727272731L0,3C0,1.344254926518,1.344254926518,0,3,0Z"/></clipPath></defs></svg>