<svg xmlns="http://www.w3.org/2000/svg" xmlns:xlink="http://www.w3.org/1999/xlink" version="1.1" class="marks" width="365" height="332" viewBox="0 0 365 332"><rect width="365" height="332" fill="white"/><g fill="none" stroke-miterlimit="10" transform="translate(66,27)"><g class="mark-group role-frame root" role="graphics-object" aria-roledescription="group mark container"><g transform="translate(0,0)"><path class="background" aria-hidden="true" d="M0.5,0.5h280v200h-280Z" stroke="#ddd"/><g><g class="mark-group role-axis" aria-hidden="true"><g transform="translate(0.5,0.5)"><path class="background" aria-hidden="true" d="M0,0h0v0h0Z" pointer-events="none"/><g><g class="mark-rule role-axis-grid" pointer-events="none"><line transform="translate(0,200)" x2="280" y2="0" stroke="#ddd" stroke-width="1" opacity="1"/><line transform="translate(0,171)" x2="280" y2="0" stroke="#ddd" stroke-width="1" opacity="1"/><line transform="translate(0,143)" x2="280" y2="0" stroke="#ddd" stroke-width="1" opacity="1"/><line transform="translate(0,114)" x2="280" y2="0" stroke="#ddd" stroke-width="1" opacity="1"/><line transform="translate(0,86)" x2="280" y2="0" stroke="#ddd" stroke-width="1" opacity="1"/><line transform="translate(0,57)" x2="280" y2="0" stroke="#ddd" stroke-width="1" opacity="1"/><line transform="translate(0,29)" x2="280" y2="0" stroke="#ddd" stroke-width="1" opacity="1"/><line transform="translate(0,0)" x2="280" y2="0" stroke="#ddd" stroke-width="1" opacity="1"/></g></g><path class="foreground" aria-hidden="true" d="" pointer-events="none" display="none"/></g></g><g class="mark-group role-axis" role="graphics-symbol" aria-roledescription="axis" aria-label="X-axis titled 'Buildings' for a discrete scale with 14 values: garage - id_247210204, garage - id_249123032, detached - id_248391393, BSC - Kopi Tubruk, garage - id_248842160, ending with BSC - Dirty Chai"><g transform="translate(0.5,200.5)"><path class="background" aria-hidden="true" d="M0,0h0v0h0Z" pointer-events="none"/><g><g class="mark-rule role-axis-tick" pointer-events="none"><line transform="translate(10,0)" x2="0" y2="5" stroke="#888" stroke-width="1" opacity="1"/><line transform="translate(30,0)" x2="0" y2="5" stroke="#888" stroke-width="1" opacity="1"/><line transform="translate(50,0)" x2="0" y2="5" stroke="#888" stroke-width="1" opacity="1"/><line transform="translate(70,0)" x2="0" y2="5" stroke="#888" stroke-width="1" opacity="1"/><line transform="translate(90,0)" x2="0" y2="5" stroke="#888" stroke-width="1" opacity="1"/><line transform="translate(110,0)" x2="0" y2="5" stroke="#888" stroke-width="1" opacity="1"/><line transform="translate(130,0)" x2="0" y2="5" stroke="#888" stroke-width="1" opacity="1"/><line transform="translate(150,0)" x2="0" y2="5" stroke="#888" stroke-width="1" opacity="1"/><line transform="translate(170,0)" x2="0" y2="5" stroke="#888" stroke-width="1" opacity="1"/><line transform="translate(190,0)" x2="0" y2="5" stroke="#888" stroke-width="1" opacity="1"/><line transform="translate(210,0)" x2="0" y2="5" stroke="#888" stroke-width="1" opacity="1"/><line transform="translate(230,0)" x2="0" y2="5" stroke="#888" stroke-width="1" opacity="1"/><line transform="translate(250,0)" x2="0" y2="5" stroke="#888" stroke-width="1" opacity="1"/><line transform="translate(270,0)" x2="0" y2="5" stroke="#888" stroke-width="1" opacity="1"/></g><g class="mark-text role-axis-label" pointer-events="none"><text text-anchor="end" transform="translate(9.5,7) rotate(315) translate(0,8)" font-family="Space Grotesk" font-size="10px" fill="#000" opacity="1">garage - id_247210…</text><text text-anchor="end" transform="translate(29.5,7) rotate(315) translate(0,8)" font-family="Space Grotesk" font-size="10px" fill="#000" opacity="1">garage - id_249123…</text><text text-anchor="end" transform="translate(49.5,7) rotate(315) translate(0,8)" font-family="Space Grotesk" font-size="10px" fill="#000" opacity="1">detached - id_248…</text><text text-anchor="end" transform="translate(69.5,7) rotate(315) translate(0,8)" font-family="Space Grotesk" font-size="10px" fill="#000" opacity="1">BSC - Kopi Tubruk</text><text text-anchor="end" transform="translate(89.5,7) rotate(315) translate(0,8)" font-family="Space Grotesk" font-size="10px" fill="#000" opacity="1">garage - id_24884…</text><text text-anchor="end" transform="translate(109.5,7) rotate(315) translate(0,8)" font-family="Space Grotesk" font-size="10px" fill="#000" opacity="1">detached - id_1174…</text><text text-anchor="end" transform="translate(129.5,7) rotate(315) translate(0,8)" font-family="Space Grotesk" font-size="10px" fill="#000" opacity="1">garage - id_24826…</text><text text-anchor="end" transform="translate(149.5,7) rotate(315) translate(0,8)" font-family="Space Grotesk" font-size="10px" fill="#000" opacity="1">garage - id_24880…</text><text text-anchor="end" transform="translate(169.5,7) rotate(315) translate(0,8)" font-family="Space Grotesk" font-size="10px" fill="#000" opacity="1">garage - id_24830…</text><text text-anchor="end" transform="translate(189.5,7) rotate(315) translate(0,8)" font-family="Space Grotesk" font-size="10px" fill="#000" opacity="1">garage - id_250119…</text><text text-anchor="end" transform="translate(209.5,7) rotate(315) translate(0,8)" font-family="Space Grotesk" font-size="10px" fill="#000" opacity="1">The NOMA - apart…</text><text text-anchor="end" transform="translate(229.5,7) rotate(315) translate(0,8)" font-family="Space Grotesk" font-size="10px" fill="#000" opacity="1">garage - id_24829…</text><text text-anchor="end" transform="translate(249.5,7) rotate(315) translate(0,8)" font-family="Space Grotesk" font-size="10px" fill="#000" opacity="1">garage - id_24886…</text><text text-anchor="end" transform="translate(269.5,7) rotate(315) translate(0,8)" font-family="Space Grotesk" font-size="10px" fill="#000" opacity="1">BSC - Dirty Chai</text></g><g class="mark-rule role-axis-domain" pointer-events="none"><line transform="translate(0,0)" x2="280" y2="0" stroke="#888" stroke-width="1" opacity="1"/></g><g class="mark-text role-axis-title" pointer-events="none"><text text-anchor="middle" transform="translate(140,97.49795804967965)" font-family="Space Grotesk" font-size="11px" font-weight="bold" fill="#000" opacity="1">Buildings</text></g></g><path class="foreground" aria-hidden="true" d="" pointer-events="none" display="none"/></g></g><g class="mark-group role-axis" role="graphics-symbol" aria-roledescription="axis" aria-label="Y-axis titled 'Number of Dwells' for a linear scale with values from 0 to 7"><g transform="translate(0.5,0.5)"><path class="background" aria-hidden="true" d="M0,0h0v0h0Z" pointer-events="none"/><g><g class="mark-rule role-axis-tick" pointer-events="none"><line transform="translate(0,200)" x2="-5" y2="0" stroke="#888" stroke-width="1" opacity="1"/><line transform="translate(0,171)" x2="-5" y2="0" stroke="#888" stroke-width="1" opacity="1"/><line transform="translate(0,143)" x2="-5" y2="0" stroke="#888" stroke-width="1" opacity="1"/><line transform="translate(0,114)" x2="-5" y2="0" stroke="#888" stroke-width="1" opacity="1"/><line transform="translate(0,86)" x2="-5" y2="0" stroke="#888" stroke-width="1" opacity="1"/><line transform="translate(0,57)" x2="-5" y2="0" stroke="#888" stroke-width="1" opacity="1"/><line transform="translate(0,29)" x2="-5" y2="0" stroke="#888" stroke-width="1" opacity="1"/><line transform="translate(0,0)" x2="-5" y2="0" stroke="#888" stroke-width="1" opacity="1"/></g><g class="mark-text role-axis-label" pointer-events="none"><text text-anchor="end" transform="translate(-7,203)" font-family="Space Grotesk" font-size="10px" fill="#000" opacity="1">0</text><text text-anchor="end" transform="translate(-7,174.42857142857144)" font-family="Space Grotesk" font-size="10px" fill="#000" opacity="1">1</text><text text-anchor="end" transform="translate(-7,145.85714285714286)" font-family="Space Grotesk" font-size="10px" fill="#000" opacity="1">2</text><text text-anchor="end" transform="translate(-7,117.28571428571428)" font-family="Space Grotesk" font-size="10px" fill="#000" opacity="1">3</text><text text-anchor="end" transform="translate(-7,88.71428571428572)" font-family="Space Grotesk" font-size="10px" fill="#000" opacity="1">4</text><text text-anchor="end" transform="translate(-7,60.14285714285714)" font-family="Space Grotesk" font-size="10px" fill="#000" opacity="1">5</text><text text-anchor="end" transform="translate(-7,31.57142857142858)" font-family="Space Grotesk" font-size="10px" fill="#000" opacity="1">6</text><text text-anchor="end" transform="translate(-7,3)" font-family="Space Grotesk" font-size="10px" fill="#000" opacity="1">7</text></g><g class="mark-rule role-axis-domain" pointer-events="none"><line transform="translate(0,200)" x2="0" y2="-200" stroke="#888" stroke-width="1" opacity="1"/></g><g class="mark-text role-axis-title" pointer-events="none"><text text-anchor="middle" transform="translate(-17.40899658203125,100) rotate(-90) translate(0,-2)" font-family="Space Grotesk" font-size="11px" font-weight="bold" fill="#000" opacity="1">Number of Dwells</text></g></g><path class="foreground" aria-hidden="true" d="" pointer-events="none" display="none"/></g></g><g class="mark-group role-scope" role="graphics-object" aria-roledescription="group mark container"><g transform="translate(1,0)"><path class="background" aria-hidden="true" d="M3,0L15,0C16.655745073482,0,18,1.344254926518,18,3L18,200C18,200,18,200,18,200L0,200C0,200,0,200,0,200L0,3C0,1.344254926518,1.344254926518,0,3,0Z"/><g clip-path="url(#clip1)"><g class="mark-group role-scope" role="graphics-object" aria-roledescription="group mark container"><g transform="translate(0,0)"><path class="background" aria-hidden="true" d="M0,0h18v0h-18Z"/><g><g class="mark-rect role-mark marks" role="graphics-object" aria-roledescription="rect mark container"><path aria-label="Buildings: garage - id_247210204; Number of Dwells: 7" role="graphics-symbol" aria-roledescription="bar" d="M0,0h18v200h-18Z" fill="#03A9F4"/></g></g><path class="foreground" aria-hidden="true" d="" display="none"/></g></g></g><path class="foreground" aria-hidden="true" d="" display="none"/></g><g transform="translate(21,28.57142857142858)"><path class="background" aria-hidden="true" d="M3,0L15,0C16.655745073482,0,18,1.344254926518,18,3L18,171.42857142857142C18,171.42857142857142,18,171.42857142857142,18,171.42857142857142L0,171.42857142857142C0,171.42857142857142,0,171.42857142857142,0,171.42857142857142L0,3C0,1.344254926518,1.344254926518,0,3,0Z"/><g clip-path="url(#clip2)"><g class="mark-group role-scope" role="graphics-object" aria-roledescription="group mark container"><g transform="translate(0,-28.57142857142858)"><path class="background" aria-hidden="true" d="M0,0h18v0h-18Z"/><g><g class="mark-rect role-mark marks" role="graphics-object" aria-roledescription="rect mark container"><path aria-label="Buildings: garage - id_249123032; Number of Dwells: 6" role="graphics-symbol" aria-roledescription="bar" d="M0,28.57142857142858h18v171.42857142857142h-18Z" fill="#03A9F4"/></g></g><path class="foreground" aria-hidden="true" d="" display="none"/></g></g></g><path class="foreground" aria-hidden="true" d="" display="none"/></g><g transform="translate(41,57.14285714285714)"><path class="background" aria-hidden="true" d="M3,0L15,0C16.655745073482,0,18,1.344254926518,18,3L18,142.85714285714286C18,142.85714285714286,18,142.85714285714286,18,142.85714285714286L0,142.85714285714286C0,142.85714285714286,0,142.85714285714286,0,142.85714285714286L0,3C0,1.344254926518,1.344254926518,0,3,0Z"/><g clip-path="url(#clip3)"><g class="mark-group role-scope" role="graphics-object" aria-roledescription="group mark container"><g transform="translate(0,-57.14285714285714)"><path class="background" aria-hidden="true" d="M0,0h18v0h-18Z"/><g><g class="mark-rect role-mark marks" role="graphics-object" aria-roledescription="rect mark container"><path aria-label="Buildings: detached - id_248391393; Number of Dwells: 5" role="graphics-symbol" aria-roledescription="bar" d="M0,57.14285714285714h18v142.85714285714286h-18Z" fill="#03A9F4"/></g></g><path class="foreground" aria-hidden="true" d="" display="none"/></g></g></g><path class="foreground" aria-hidden="true" d="" display="none"/></g><g transform="translate(61,85.71428571428572)"><path class="background" aria-hidden="true" d="M3,0L15,0C16.655745073482,0,18,1.344254926518,18,3L18,114.28571428571428C18,114.28571428571428,18,114.28571428571428,18,114.28571428571428L0,114.28571428571428C0,114.28571428571428,0,114.28571428571428,0,114.28571428571428L0,3C0,1.344254926518,1.344254926518,0,3,0Z"/><g clip-path="url(#clip4)"><g class="mark-group role-scope" role="graphics-object" aria-roledescription="group mark container"><g transform="translate(0,-85.71428571428572)"><path class="background" aria-hidden="true" d="M0,0h18v0h-18Z"/><g><g class="mark-rect role-mark marks" role="graphics-object" aria-roledescription="rect mark container"><path aria-label="Buildings: BSC - Kopi Tubruk; Number of Dwells: 4" role="graphics-symbol" aria-roledescription="bar" d="M0,85.71428571428572h18v114.28571428571428h-18Z" fill="#03A9F4"/></g></g><path class="foreground" aria-hidden="true" d="" display="none"/></g></g></g><path class="foreground" aria-hidden="true" d="" display="none"/></g><g transform="translate(81,85.71428571428572)"><path class="background" aria-hidden="true" d="M3,0L15,0C16.655745073482,0,18,1.344254926518,18,3L18,114.28571428571428C18,114.28571428571428,18,114.28571428571428,18,114.28571428571428L0,114.28571428571428C0,114.28571428571428,0,114.28571428571428,0,114.28571428571428L0,3C0,1.344254926518,1.344254926518,0,3,0Z"/><g clip-path="url(#clip5)"><g class="mark-group role-scope" role="graphics-object" aria-roledescription="group mark container"><g transform="translate(0,-85.71428571428572)"><path class="background" aria-hidden="true" d="M0,0h18v0h-18Z"/><g><g class="mark-rect role-mark marks" role="graphics-object" aria-roledescription="rect mark container"><path aria-label="Buildings: garage - id_248842160; Number of Dwells: 4" role="graphics-symbol" aria-roledescription="bar" d="M0,85.71428571428572h18v114.28571428571428h-18Z" fill="#03A9F4"/></g></g><path class="foreground" aria-hidden="true" d="" display="none"/></g></g></g><path class="foreground" aria-hidden="true" d="" display="none"/></g><g transform="translate(101,114.28571428571428)"><path class="background" aria-hidden="true" d="M3,0L15,0C16.655745073482,0,18,1.344254926518,18,3L18,85.71428571428572C18,85.71428571428572,18,85.71428571428572,18,85.71428571428572L0,85.71428571428572C0,85.71428571428572,0,85.71428571428572,0,85.71428571428572L0,3C0,1.344254926518,1.344254926518,0,3,0Z"/><g clip-path="url(#clip6)"><g class="mark-group role-scope" role="graphics-object" aria-roledescription="group mark container"><g transform="translate(0,-114.28571428571428)"><path class="background" aria-hidden="true" d="M0,0h18v0h-18Z"/><g><g class="mark-rect role-mark marks" role="graphics-object" aria-roledescription="rect mark container"><path aria-label="Buildings: detached - id_1174080186; Number of Dwells: 3" role="graphics-symbol" aria-roledescription="bar" d="M0,114.28571428571428h18v85.71428571428572h-18Z" fill="#03A9F4"/></g></g><path class="foreground" aria-hidden="true" d="" display="none"/></g></g></g><path class="foreground" aria-hidden="true" d="" display="none"/></g><g transform="translate(121,114.28571428571428)"><path class="background" aria-hidden="true" d="M3,0L15,0C16.655745073482,0,18,1.344254926518,18,3L18,85.71428571428572C18,85.71428571428572,18,85.71428571428572,18,85.71428571428572L0,85.71428571428572C0,85.71428571428572,0,85.71428571428572,0,85.71428571428572L0,3C0,1.344254926518,1.344254926518,0,3,0Z"/><g clip-path="url(#clip7)"><g class="mark-group role-scope" role="graphics-object" aria-roledescription="group mark container"><g transform="translate(0,-114.28571428571428)"><path class="background" aria-hidden="true" d="M0,0h18v0h-18Z"/><g><g class="mark-rect role-mark marks" role="graphics-object" aria-roledescription="rect mark container"><path aria-label="Buildings: garage - id_248263771; Number of Dwells: 3" role="graphics-symbol" aria-roledescription="bar" d="M0,114.28571428571428h18v85.71428571428572h-18Z" fill="#03A9F4"/></g></g><path class="foreground" aria-hidden="true" d="" display="none"/></g></g></g><path class="foreground" aria-hidden="true" d="" display="none"/></g><g transform="translate(141,114.28571428571428)"><path class="background" aria-hidden="true" d="M3,0L15,0C16.655745073482,0,18,1.344254926518,18,3L18,85.71428571428572C18,85.71428571428572,18,85.71428571428572,18,85.71428571428572L0,85.71428571428572C0,85.71428571428572,0,85.71428571428572,0,85.71428571428572L0,3C0,1.344254926518,1.344254926518,0,3,0Z"/><g clip-path="url(#clip8)"><g class="mark-group role-scope" role="graphics-object" aria-roledescription="group mark container"><g transform="translate(0,-114.28571428571428)"><path class="background" aria-hidden="true" d="M0,0h18v0h-18Z"/><g><g class="mark-rect role-mark marks" role="graphics-object" aria-roledescription="rect mark container"><path aria-label="Buildings: garage - id_248808695; Number of Dwells: 3" role="graphics-symbol" aria-roledescription="bar" d="M0,114.28571428571428h18v85.71428571428572h-18Z" fill="#03A9F4"/></g></g><path class="foreground" aria-hidden="true" d="" display="none"/></g></g></g><path class="foreground" aria-hidden="true" d="" display="none"/></g><g transform="translate(161,142.85714285714286)"><path class="background" aria-hidden="true" d="M3,0L15,0C16.655745073482,0,18,1.344254926518,18,3L18,57.14285714285714C18,57.14285714285714,18,57.14285714285714,18,57.14285714285714L0,57.14285714285714C0,57.14285714285714,0,57.14285714285714,0,57.14285714285714L0,3C0,1.344254926518,1.344254926518,0,3,0Z"/><g clip-path="url(#clip9)"><g class="mark-group role-scope" role="graphics-object" aria-roledescription="group mark container"><g transform="translate(0,-142.85714285714286)"><path class="background" aria-hidden="true" d="M0,0h18v0h-18Z"/><g><g class="mark-rect role-mark marks" role="graphics-object" aria-roledescription="rect mark container"><path aria-label="Buildings: garage - id_248306462; Number of Dwells: 2" role="graphics-symbol" aria-roledescription="bar" d="M0,142.85714285714286h18v57.14285714285714h-18Z" fill="#03A9F4"/></g></g><path class="foreground" aria-hidden="true" d="" display="none"/></g></g></g><path class="foreground" aria-hidden="true" d="" display="none"/></g><g transform="translate(181,142.85714285714286)"><path class="background" aria-hidden="true" d="M3,0L15,0C16.655745073482,0,18,1.344254926518,18,3L18,57.14285714285714C18,57.14285714285714,18,57.14285714285714,18,57.14285714285714L0,57.14285714285714C0,57.14285714285714,0,57.14285714285714,0,57.14285714285714L0,3C0,1.344254926518,1.344254926518,0,3,0Z"/><g clip-path="url(#clip10)"><g class="mark-group role-scope" role="graphics-object" aria-roledescription="group mark container"><g transform="translate(0,-142.85714285714286)"><path class="background" aria-hidden="true" d="M0,0h18v0h-18Z"/><g><g class="mark-rect role-mark marks" role="graphics-object" aria-roledescription="rect mark container"><path aria-label="Buildings: garage - id_250119427; Number of Dwells: 2" role="graphics-symbol" aria-roledescription="bar" d="M0,142.85714285714286h18v57.14285714285714h-18Z" fill="#03A9F4"/></g></g><path class="foreground" aria-hidden="true" d="" display="none"/></g></g></g><path class="foreground" aria-hidden="true" d="" display="none"/></g><g transform="translate(201,171.42857142857144)"><path class="background" aria-hidden="true" d="M3,0L15,0C16.655745073482,0,18,1.344254926518,18,3L18,28.571428571428555C18,28.571428571428555,18,28.571428571428555,18,28.571428571428555L0,28.571428571428555C0,28.571428571428555,0,28.571428571428555,0,28.571428571428555L0,3C0,1.344254926518,1.344254926518,0,3,0Z"/><g clip-path="url(#clip11)"><g class="mark-group role-scope" role="graphics-object" aria-roledescription="group mark container"><g transform="translate(0,-171.42857142857144)"><path class="background" aria-hidden="true" d="M0,0h18v0h-18Z"/><g><g class="mark-rect role-mark marks" role="graphics-object" aria-roledescription="rect mark container"><path aria-label="Buildings: The NOMA - apartments - id_265042572; Number of Dwells: 1" role="graphics-symbol" aria-roledescription="bar" d="M0,171.42857142857144h18v28.571428571428555h-18Z" fill="#03A9F4"/></g></g><path class="foreground" aria-hidden="true" d="" display="none"/></g></g></g><path class="foreground" aria-hidden="true" d="" display="none"/></g><g transform="translate(221,171.42857142857144)"><path class="background" aria-hidden="true" d="M3,0L15,0C16.655745073482,0,18,1.344254926518,18,3L18,28.571428571428555C18,28.571428571428555,18,28.571428571428555,18,28.571428571428555L0,28.571428571428555C0,28.571428571428555,0,28.571428571428555,0,28.571428571428555L0,3C0,1.344254926518,1.344254926518,0,3,0Z"/><g clip-path="url(#clip12)"><g class="mark-group role-scope" role="graphics-object" aria-roledescription="group mark container"><g transform="translate(0,-171.42857142857144)"><path class="background" aria-hidden="true" d="M0,0h18v0h-18Z"/><g><g class="mark-rect role-mark marks" role="graphics-object" aria-roledescription="rect mark container"><path aria-label="Buildings: garage - id_248293702; Number of Dwells: 1" role="graphics-symbol" aria-roledescription="bar" d="M0,171.42857142857144h18v28.571428571428555h-18Z" fill="#03A9F4"/></g></g><path class="foreground" aria-hidden="true" d="" display="none"/></g></g></g><path class="foreground" aria-hidden="true" d="" display="none"/></g><g transform="translate(241,171.42857142857144)"><path class="background" aria-hidden="true" d="M3,0L15,0C16.655745073482,0,18,1.344254926518,18,3L18,28.571428571428555C18,28.571428571428555,18,28.571428571428555,18,28.571428571428555L0,28.571428571428555C0,28.571428571428555,0,28.571428571428555,0,28.571428571428555L0,3C0,1.344254926518,1.344254926518,0,3,0Z"/><g clip-path="url(#clip13)"><g class="mark-group role-scope" role="graphics-object" aria-roledescription="group mark container"><g transform="translate(0,-171.42857142857144)"><path class="background" aria-hidden="true" d="M0,0h18v0h-18Z"/><g><g class="mark-rect role-mark marks" role="graphics-object" aria-roledescription="rect mark container"><path aria-label="Buildings: garage - id_248865998; Number of Dwells: 1" role="graphics-symbol" aria-roledescription="bar" d="M0,171.42857142857144h18v28.571428571428555h-18Z" fill="#03A9F4"/></g></g><path class="foreground" aria-hidden="true" d="" display="none"/></g></g></g><path class="foreground" aria-hidden="true" d="" display="none"/></g><g transform="translate(261,171.42857142857144)"><path class="background" aria-hidden="true" d="M3,0L15,0C16.655745073482,0,18,1.344254926518,18,3L18,28.571428571428555C18,28.571428571428555,18,28.571428571428555,18,28.571428571428555L0,28.571428571428555C0,28.571428571428555,0,28.571428571428555,0,28.571428571428555L0,3C0,1.344254926518,1.344254926518,0,3,0Z"/><g clip-path="url(#clip14)"><g class="mark-group role-scope" role="graphics-object" aria-roledescription="group mark container"><g transform="translate(0,-171.42857142857144)"><path class="background" aria-hidden="true" d="M0,0h18v0h-18Z"/><g><g class="mark-rect role-mark marks" role="graphics-object" aria-roledescription="rect mark container"><path aria-label="Buildings: BSC - Dirty Chai; Number of Dwells: 1" role="graphics-symbol" aria-roledescription="bar" d="M0,171.42857142857144h18v28.571428571428555h-18Z" fill="#03A9F4"/></g></g><path class="foreground" aria-hidden="true" d="" display="none"/></g></g></g><path class="foreground" aria-hidden="true" d="" display="none"/></g></g><g class="mark-group role-title"><g transform="translate(140,-22)"><path class="background" aria-hidden="true" d="M0,0h0v0h0Z" pointer-events="none"/><g><g class="mark-text role-title-text" role="graphics-symbol" aria-roledescription="title" aria-label="Title text 'This customer visited 'BSC - Kopi Tubruk' 4 times'" pointer-events="none"><text text-anchor="middle" transform="translate(0,10)" font-family="Space Grotesk" font-size="13px" font-weight="bold" fill="#000" opacity="1">This customer visited 'BSC - Kopi Tubruk' 4 times</text></g></g><path class="foreground" aria-hidden="true" d="" pointer-events="none" display="none"/></g></g></g><path class="foreground" aria-hidden="true" d="" display="none"/></g></g></g><defs><clipPath id="clip1"><path d="M3,0L15,0C16.655745073482,0,18,1.344254926518,18,3L18,200C18,200,18,200,18,200L0,200C0,200,0,200,0,200L0,3C0,1.344254926518,1.344254926518,0,3,0Z"/></clipPath><clipPath id="clip2"><path d="M3,0L15,0C16.655745073482,0,18,1.344254926518,18,3L18,171.42857142857142C18,171.42857142857142,18,171.42857142857142,18,171.42857142857142L0,171.42857142857142C0,171.42857142857142,0,171.42857142857142,0,171.42857142857142L0,3C0,1.344254926518,1.344254926518,0,3,0Z"/></clipPath><clipPath id="clip3"><path d="M3,0L15,0C16.655745073482,0,18,1.344254926518,18,3L18,142.85714285714286C18,142.85714285714286,18,142.85714285714286,18,142.85714285714286L0,142.85714285714286C0,142.85714285714286,0,142.85714285714286,0,142.85714285714286L0,3C0,1.344254926518,1.344254926518,0,3,0Z"/></clipPath><clipPath id="clip4"><path d="M3,0L15,0C16.655745073482,0,18,1.344254926518,18,3L18,114.28571428571428C18,114.28571428571428,18,114.28571428571428,18,114.28571428571428L0,114.28571428571428C0,114.28571428571428,0,114.28571428571428,0,114.28571428571428L0,3C0,1.344254926518,1.344254926518,0,3,0Z"/></clipPath><clipPath id="clip5"><path d="M3,0L15,0C16.655745073482,0,18,1.344254926518,18,3L18,114.28571428571428C18,114.28571428571428,18,114.28571428571428,18,114.28571428571428L0,114.28571428571428C0,114.28571428571428,0,114.28571428571428,0,114.28571428571428L0,3C0,1.344254926518,1.344254926518,0,3,0Z"/></clipPath><clipPath id="clip6"><path d="M3,0L15,0C16.655745073482,0,18,1.344254926518,18,3L18,85.71428571428572C18,85.71428571428572,18,85.71428571428572,18,85.71428571428572L0,85.71428571428572C0,85.71428571428572,0,85.71428571428572,0,85.71428571428572L0,3C0,1.344254926518,1.344254926518,0,3,0Z"/></clipPath><clipPath id="clip7"><path d="M3,0L15,0C16.655745073482,0,18,1.344254926518,18,3L18,85.71428571428572C18,85.71428571428572,18,85.71428571428572,18,85.71428571428572L0,85.71428571428572C0,85.71428571428572,0,85.71428571428572,0,85.71428571428572L0,3C0,1.344254926518,1.344254926518,0,3,0Z"/></clipPath><clipPath id="clip8"><path d="M3,0L15,0C16.655745073482,0,18,1.344254926518,18,3L18,85.71428571428572C18,85.71428571428572,18,85.71428571428572,18,85.71428571428572L0,85.71428571428572C0,85.71428571428572,0,85.71428571428572,0,85.71428571428572L0,3C0,1.344254926518,1.344254926518,0,3,0Z"/></clipPath><clipPath id="clip9"><path d="M3,0L15,0C16.655745073482,0,18,1.344254926518,18,3L18,57.14285714285714C18,57.14285714285714,18,57.14285714285714,18,57.14285714285714L0,57.14285714285714C0,57.14285714285714,0,57.14285714285714,0,57.14285714285714L0,3C0,1.344254926518,1.344254926518,0,3,0Z"/></clipPath><clipPath id="clip10"><path d="M3,0L15,0C16.655745073482,0,18,1.344254926518,18,3L18,57.14285714285714C18,57.14285714285714,18,57.14285714285714,18,57.14285714285714L0,57.14285714285714C0,57.14285714285714,0,57.14285714285714,0,57.14285714285714L0,3C0,1.344254926518,1.344254926518,0,3,0Z"/></clipPath><clipPath id="clip11"><path d="M3,0L15,0C16.655745073482,0,18,1.344254926518,18,3L18,28.571428571428555C18,28.571428571428555,18,28.571428571428555,18,28.571428571428555L0,28.571428571428555C0,28.571428571428555,0,28.571428571428555,0,28.571428571428555L0,3C0,1.344254926518,1.344254926518,0,3,0Z"/></clipPath><clipPath id="clip12"><path d="M3,0L15,0C16.655745073482,0,18,1.344254926518,18,3L18,28.571428571428555C18,28.571428571428555,18,28.571428571428555,18,28.571428571428555L0,28.571428571428555C0,28.571428571428555,0,28.571428571428555,0,28.571428571428555L0,3C0,1.344254926518,1.344254926518,0,3,0Z"/></clipPath><clipPath id="clip13"><path d="M3,0L15,0C16.655745073482,0,18,1.344254926518,18,3L18,28.571428571428555C18,28.571428571428555,18,28.571428571428555,18,28.571428571428555L0,28.571428571428555C0,28.571428571428555,0,28.571428571428555,0,28.571428571428555L0,3C0,1.344254926518,1.344254926518,0,3,0Z"/></clipPath><clipPath id="clip14"><path d="M3,0L15,0C16.655745073482,0,18,1.344254926518,18,3L18,28.571428571428555C18,28.571428571428555,18,28.571428571428555,18,28.571428571428555L0,28.571428571428555C0,28.571428571428555,0,28.571428571428555,0,28.571428571428555L0,3C0,1.344254926518,1.344254926518,0,3,0Z"/></clipPath></defs></svg>