<svg xmlns="http://www.w3.org/2000/svg" xmlns:xlink="http://www.w3.org/1999/xlink" version="1.1" class="marks" width="680" height="202" viewBox="0 0 680 202"><rect width="680" height="202" fill="white"/><g fill="none" stroke-miterlimit="10" transform="translate(84,22)"><g class="mark-group role-frame root" role="graphics-object" aria-roledescription="group mark container"><g transform="translate(0,0)"><path class="background" aria-hidden="true" d="M0.5,0.5h480v140h-480Z" stroke="#ddd"/><g><g class="mark-rect role-mark marks" role="graphics-object" aria-roledescription="rect mark container"><path aria-label="Hour of Day: 0; Day of Week: Monday; Number of Dwells: 2" role="graphics-symbol" aria-roledescription="rect mark" d="M5,0L15,0C17.75957512247,0,20,2.24042487753,20,5L20,15C20,17.75957512247,17.75957512247,20,15,20L5,20C2.24042487753,20,0,17.75957512247,0,15L0,5C0,2.24042487753,2.24042487753,0,5,0Z" fill="rgba(255, 80, 8, 0.10526315789473684)"/><path aria-label="Hour of Day: 1; Day of Week: Monday; Number of Dwells: 0" role="graphics-symbol" aria-roledescription="rect mark" d="M25,0L35,0C37.75957512247,0,40,2.24042487753,40,5L40,15C40,17.75957512247,37.75957512247,20,35,20L25,20C22.24042487753,20,20,17.75957512247,20,15L20,5C20,2.24042487753,22.24042487753,0,25,0Z" fill="rgba(255, 80, 8, 0)"/><path aria-label="Hour of Day: 2; Day of Week: Monday; Number of Dwells: 4" role="graphics-symbol" aria-roledescription="rect mark" d="M45,0L55,0C57.75957512247,0,60,2.24042487753,60,5L60,15C60,17.75957512247,57.75957512247,20,55,20L45,20C42.24042487753,20,40,17.75957512247,40,15L40,5C40,2.24042487753,42.24042487753,0,45,0Z" fill="rgba(255, 80, 8, 0.21052631578947367)"/><path aria-label="Hour of Day: 3; Day of Week: Monday; Number of Dwells: 2" role="graphics-symbol" aria-roledescription="rect mark" d="M65,0L75,0C77.75957512247,0,80,2.24042487753,80,5L80,15C80,17.75957512247,77.75957512247,20,75,20L65,20C62.24042487753,20,60,17.75957512247,60,15L60,5C60,2.24042487753,62.24042487753,0,65,0Z" fill="rgba(255, 80, 8, 0.10526315789473684)"/><path aria-label="Hour of Day: 4; Day of Week: Monday; Number of Dwells: 1" role="graphics-symbol" aria-roledescription="rect mark" d="M85,0L95,0C97.75957512247,0,100,2.24042487753,100,5L100,15C100,17.75957512247,97.75957512247,20,95,20L85,20C82.24042487753,20,80,17.75957512247,80,15L80,5C80,2.24042487753,82.24042487753,0,85,0Z" fill="rgba(255, 80, 8, 0.05263157894736842)"/><path aria-label="Hour of Day: 5; Day of Week: Monday; Number of Dwells: 7" role="graphics-symbol" aria-roledescription="rect mark" d="M105,0L115,0C117.75957512247,0,120,2.24042487753,120,5L120,15C120,17.75957512247,117.75957512247,20,115,20L105,20C102.24042487753,20,100,17.75957512247,100,15L100,5C100,2.24042487753,102.24042487753,0,105,0Z" fill="rgba(255, 80, 8, 0.3684210526315789)"/><path aria-label="Hour of Day: 6; Day of Week: Monday; Number of Dwells: 8" role="graphics-symbol" aria-roledescription="rect mark" d="M125,0L135,0C137.75957512247,0,140,2.24042487753,140,5L140,15C140,17.75957512247,137.75957512247,20,135,20L125,20C122.24042487753,20,120,17.75957512247,120,15L120,5C120,2.24042487753,122.24042487753,0,125,0Z" fill="rgba(255, 80, 8, 0.42105263157894735)"/><path aria-label="Hour of Day: 7; Day of Week: Monday; Number of Dwells: 10" role="graphics-symbol" aria-roledescription="rect mark" d="M145,0L155,0C157.75957512247,0,160,2.24042487753,160,5L160,15C160,17.75957512247,157.75957512247,20,155,20L145,20C142.24042487753,20,140,17.75957512247,140,15L140,5C140,2.24042487753,142.24042487753,0,145,0Z" fill="rgba(255, 80, 8, 0.5263157894736842)"/><path aria-label="Hour of Day: 8; Day of Week: Monday; Number of Dwells: 13" role="graphics-symbol" aria-roledescription="rect mark" d="M165,0L175,0C177.75957512247,0,180,2.24042487753,180,5L180,15C180,17.75957512247,177.75957512247,20,175,20L165,20C162.24042487753,20,160,17.75957512247,160,15L160,5C160,2.24042487753,162.24042487753,0,165,0Z" fill="rgba(255, 80, 8, 0.6842105263157894)"/><path aria-label="Hour of Day: 9; Day of Week: Monday; Number of Dwells: 17" role="graphics-symbol" aria-roledescription="rect mark" d="M185,0L195,0C197.75957512247,0,200,2.24042487753,200,5L200,15C200,17.75957512247,197.75957512247,20,195,20L185,20C182.24042487753,20,180,17.75957512247,180,15L180,5C180,2.24042487753,182.24042487753,0,185,0Z" fill="rgba(255, 80, 8, 0.894736842105263)"/><path aria-label="Hour of Day: 10; Day of Week: Monday; Number of Dwells: 8" role="graphics-symbol" aria-roledescription="rect mark" d="M205,0L215,0C217.75957512247,0,220,2.24042487753,220,5L220,15C220,17.75957512247,217.75957512247,20,215,20L205,20C202.24042487753,20,200,17.75957512247,200,15L200,5C200,2.24042487753,202.24042487753,0,205,0Z" fill="rgba(255, 80, 8, 0.42105263157894735)"/><path aria-label="Hour of Day: 11; Day of Week: Monday; Number of Dwells: 8" role="graphics-symbol" aria-roledescription="rect mark" d="M225,0L235,0C237.75957512247,0,240,2.24042487753,240,5L240,15C240,17.75957512247,237.75957512247,20,235,20L225,20C222.24042487753,20,220,17.75957512247,220,15L220,5C220,2.24042487753,222.24042487753,0,225,0Z" fill="rgba(255, 80, 8, 0.42105263157894735)"/><path aria-label="Hour of Day: 12; Day of Week: Monday; Number of Dwells: 8" role="graphics-symbol" aria-roledescription="rect mark" d="M245,0L255,0C257.75957512247,0,260,2.24042487753,260,5L260,15C260,17.75957512247,257.75957512247,20,255,20L245,20C242.24042487753,20,240,17.75957512247,240,15L240,5C240,2.24042487753,242.24042487753,0,245,0Z" fill="rgba(255, 80, 8, 0.42105263157894735)"/><path aria-label="Hour of Day: 13; Day of Week: Monday; Number of Dwells: 3" role="graphics-symbol" aria-roledescription="rect mark" d="M265,0L275,0C277.75957512247,0,280,2.24042487753,280,5L280,15C280,17.75957512247,277.75957512247,20,275,20L265,20C262.24042487753,20,260,17.75957512247,260,15L260,5C260,2.24042487753,262.24042487753,0,265,0Z" fill="rgba(255, 80, 8, 0.15789473684210525)"/><path aria-label="Hour of Day: 14; Day of Week: Monday; Number of Dwells: 1" role="graphics-symbol" aria-roledescription="rect mark" d="M285,0L295,0C297.75957512247,0,300,2.24042487753,300,5L300,15C300,17.75957512247,297.75957512247,20,295,20L285,20C282.24042487753,20,280,17.75957512247,280,15L280,5C280,2.24042487753,282.24042487753,0,285,0Z" fill="rgba(255, 80, 8, 0.05263157894736842)"/><path aria-label="Hour of Day: 15; Day of Week: Monday; Number of Dwells: 2" role="graphics-symbol" aria-roledescription="rect mark" d="M305,0L315,0C317.75957512247,0,320,2.24042487753,320,5L320,15C320,17.75957512247,317.75957512247,20,315,20L305,20C302.24042487753,20,300,17.75957512247,300,15L300,5C300,2.24042487753,302.24042487753,0,305,0Z" fill="rgba(255, 80, 8, 0.10526315789473684)"/><path aria-label="Hour of Day: 16; Day of Week: Monday; Number of Dwells: 1" role="graphics-symbol" aria-roledescription="rect mark" d="M325,0L335,0C337.75957512247,0,340,2.24042487753,340,5L340,15C340,17.75957512247,337.75957512247,20,335,20L325,20C322.24042487753,20,320,17.75957512247,320,15L320,5C320,2.24042487753,322.24042487753,0,325,0Z" fill="rgba(255, 80, 8, 0.05263157894736842)"/><path aria-label="Hour of Day: 17; Day of Week: Monday; Number of Dwells: 0" role="graphics-symbol" aria-roledescription="rect mark" d="M345,0L355,0C357.75957512247,0,360,2.24042487753,360,5L360,15C360,17.75957512247,357.75957512247,20,355,20L345,20C342.24042487753,20,340,17.75957512247,340,15L340,5C340,2.24042487753,342.24042487753,0,345,0Z" fill="rgba(255, 80, 8, 0)"/><path aria-label="Hour of Day: 18; Day of Week: Monday; Number of Dwells: 0" role="graphics-symbol" aria-roledescription="rect mark" d="M365,0L375,0C377.75957512247,0,380,2.24042487753,380,5L380,15C380,17.75957512247,377.75957512247,20,375,20L365,20C362.24042487753,20,360,17.75957512247,360,15L360,5C360,2.24042487753,362.24042487753,0,365,0Z" fill="rgba(255, 80, 8, 0)"/><path aria-label="Hour of Day: 19; Day of Week: Monday; Number of Dwells: 0" role="graphics-symbol" aria-roledescription="rect mark" d="M385,0L395,0C397.75957512247,0,400,2.24042487753,400,5L400,15C400,17.75957512247,397.75957512247,20,395,20L385,20C382.24042487753,20,380,17.75957512247,380,15L380,5C380,2.24042487753,382.24042487753,0,385,0Z" fill="rgba(255, 80, 8, 0)"/><path aria-label="Hour of Day: 20; Day of Week: Monday; Number of Dwells: 0" role="graphics-symbol" aria-roledescription="rect mark" d="M405,0L415,0C417.75957512247,0,420,2.24042487753,420,5L420,15C420,17.75957512247,417.75957512247,20,415,20L405,20C402.24042487753,20,400,17.75957512247,400,15L400,5C400,2.24042487753,402.24042487753,0,405,0Z" fill="rgba(255, 80, 8, 0)"/><path aria-label="Hour of Day: 21; Day of Week: Monday; Number of Dwells: 0" role="graphics-symbol" aria-roledescription="rect mark" d="M425,0L435,0C437.75957512247,0,440,2.24042487753,440,5L440,15C440,17.75957512247,437.75957512247,20,435,20L425,20C422.24042487753,20,420,17.75957512247,420,15L420,5C420,2.24042487753,422.24042487753,0,425,0Z" fill="rgba(255, 80, 8, 0)"/><path aria-label="Hour of Day: 22; Day of Week: Monday; Number of Dwells: 0" role="graphics-symbol" aria-roledescription="rect mark" d="M445,0L455,0C457.75957512247,0,460,2.24042487753,460,5L460,15C460,17.75957512247,457.75957512247,20,455,20L445,20C442.24042487753,20,440,17.75957512247,440,15L440,5C440,2.24042487753,442.24042487753,0,445,0Z" fill="rgba(255, 80, 8, 0)"/><path aria-label="Hour of Day: 23; Day of Week: Monday; Number of Dwells: 0" role="graphics-symbol" aria-roledescription="rect mark" d="M465,0L475,0C477.75957512247,0,480,2.24042487753,480,5L480,15C480,17.75957512247,477.75957512247,20,475,20L465,20C462.24042487753,20,460,17.75957512247,460,15L460,5C460,2.24042487753,462.24042487753,0,465,0Z" fill="rgba(255, 80, 8, 0)"/><path aria-label="Hour of Day: 0; Day of Week: Tuesday; Number of Dwells: 2" role="graphics-symbol" aria-roledescription="rect mark" d="M5,20L15,20C17.75957512247,20,20,22.24042487753,20,25L20,35C20,37.75957512247,17.75957512247,40,15,40L5,40C2.24042487753,40,0,37.75957512247,0,35L0,25C0,22.24042487753,2.24042487753,20,5,20Z" fill="rgba(255, 80, 8, 0.10526315789473684)"/><path aria-label="Hour of Day: 1; Day of Week: Tuesday; Number of Dwells: 1" role="graphics-symbol" aria-roledescription="rect mark" d="M25,20L35,20C37.75957512247,20,40,22.24042487753,40,25L40,35C40,37.75957512247,37.75957512247,40,35,40L25,40C22.24042487753,40,20,37.75957512247,20,35L20,25C20,22.24042487753,22.24042487753,20,25,20Z" fill="rgba(255, 80, 8, 0.05263157894736842)"/><path aria-label="Hour of Day: 2; Day of Week: Tuesday; Number of Dwells: 3" role="graphics-symbol" aria-roledescription="rect mark" d="M45,20L55,20C57.75957512247,20,60,22.24042487753,60,25L60,35C60,37.75957512247,57.75957512247,40,55,40L45,40C42.24042487753,40,40,37.75957512247,40,35L40,25C40,22.24042487753,42.24042487753,20,45,20Z" fill="rgba(255, 80, 8, 0.15789473684210525)"/><path aria-label="Hour of Day: 3; Day of Week: Tuesday; Number of Dwells: 3" role="graphics-symbol" aria-roledescription="rect mark" d="M65,20L75,20C77.75957512247,20,80,22.24042487753,80,25L80,35C80,37.75957512247,77.75957512247,40,75,40L65,40C62.24042487753,40,60,37.75957512247,60,35L60,25C60,22.24042487753,62.24042487753,20,65,20Z" fill="rgba(255, 80, 8, 0.15789473684210525)"/><path aria-label="Hour of Day: 4; Day of Week: Tuesday; Number of Dwells: 5" role="graphics-symbol" aria-roledescription="rect mark" d="M85,20L95,20C97.75957512247,20,100,22.24042487753,100,25L100,35C100,37.75957512247,97.75957512247,40,95,40L85,40C82.24042487753,40,80,37.75957512247,80,35L80,25C80,22.24042487753,82.24042487753,20,85,20Z" fill="rgba(255, 80, 8, 0.2631578947368421)"/><path aria-label="Hour of Day: 5; Day of Week: Tuesday; Number of Dwells: 9" role="graphics-symbol" aria-roledescription="rect mark" d="M105,20L115,20C117.75957512247,20,120,22.24042487753,120,25L120,35C120,37.75957512247,117.75957512247,40,115,40L105,40C102.24042487753,40,100,37.75957512247,100,35L100,25C100,22.24042487753,102.24042487753,20,105,20Z" fill="rgba(255, 80, 8, 0.47368421052631576)"/><path aria-label="Hour of Day: 6; Day of Week: Tuesday; Number of Dwells: 11" role="graphics-symbol" aria-roledescription="rect mark" d="M125,20L135,20C137.75957512247,20,140,22.24042487753,140,25L140,35C140,37.75957512247,137.75957512247,40,135,40L125,40C122.24042487753,40,120,37.75957512247,120,35L120,25C120,22.24042487753,122.24042487753,20,125,20Z" fill="rgba(255, 80, 8, 0.5789473684210527)"/><path aria-label="Hour of Day: 7; Day of Week: Tuesday; Number of Dwells: 18" role="graphics-symbol" aria-roledescription="rect mark" d="M145,20L155,20C157.75957512247,20,160,22.24042487753,160,25L160,35C160,37.75957512247,157.75957512247,40,155,40L145,40C142.24042487753,40,140,37.75957512247,140,35L140,25C140,22.24042487753,142.24042487753,20,145,20Z" fill="rgba(255, 80, 8, 0.9473684210526315)"/><path aria-label="Hour of Day: 8; Day of Week: Tuesday; Number of Dwells: 17" role="graphics-symbol" aria-roledescription="rect mark" d="M165,20L175,20C177.75957512247,20,180,22.24042487753,180,25L180,35C180,37.75957512247,177.75957512247,40,175,40L165,40C162.24042487753,40,160,37.75957512247,160,35L160,25C160,22.24042487753,162.24042487753,20,165,20Z" fill="rgba(255, 80, 8, 0.894736842105263)"/><path aria-label="Hour of Day: 9; Day of Week: Tuesday; Number of Dwells: 19" role="graphics-symbol" aria-roledescription="rect mark" d="M185,20L195,20C197.75957512247,20,200,22.24042487753,200,25L200,35C200,37.75957512247,197.75957512247,40,195,40L185,40C182.24042487753,40,180,37.75957512247,180,35L180,25C180,22.24042487753,182.24042487753,20,185,20Z" fill="rgb(255, 80, 8)"/><path aria-label="Hour of Day: 10; Day of Week: Tuesday; Number of Dwells: 10" role="graphics-symbol" aria-roledescription="rect mark" d="M205,20L215,20C217.75957512247,20,220,22.24042487753,220,25L220,35C220,37.75957512247,217.75957512247,40,215,40L205,40C202.24042487753,40,200,37.75957512247,200,35L200,25C200,22.24042487753,202.24042487753,20,205,20Z" fill="rgba(255, 80, 8, 0.5263157894736842)"/><path aria-label="Hour of Day: 11; Day of Week: Tuesday; Number of Dwells: 6" role="graphics-symbol" aria-roledescription="rect mark" d="M225,20L235,20C237.75957512247,20,240,22.24042487753,240,25L240,35C240,37.75957512247,237.75957512247,40,235,40L225,40C222.24042487753,40,220,37.75957512247,220,35L220,25C220,22.24042487753,222.24042487753,20,225,20Z" fill="rgba(255, 80, 8, 0.3157894736842105)"/><path aria-label="Hour of Day: 12; Day of Week: Tuesday; Number of Dwells: 2" role="graphics-symbol" aria-roledescription="rect mark" d="M245,20L255,20C257.75957512247,20,260,22.24042487753,260,25L260,35C260,37.75957512247,257.75957512247,40,255,40L245,40C242.24042487753,40,240,37.75957512247,240,35L240,25C240,22.24042487753,242.24042487753,20,245,20Z" fill="rgba(255, 80, 8, 0.10526315789473684)"/><path aria-label="Hour of Day: 13; Day of Week: Tuesday; Number of Dwells: 0" role="graphics-symbol" aria-roledescription="rect mark" d="M265,20L275,20C277.75957512247,20,280,22.24042487753,280,25L280,35C280,37.75957512247,277.75957512247,40,275,40L265,40C262.24042487753,40,260,37.75957512247,260,35L260,25C260,22.24042487753,262.24042487753,20,265,20Z" fill="rgba(255, 80, 8, 0)"/><path aria-label="Hour of Day: 14; Day of Week: Tuesday; Number of Dwells: 0" role="graphics-symbol" aria-roledescription="rect mark" d="M285,20L295,20C297.75957512247,20,300,22.24042487753,300,25L300,35C300,37.75957512247,297.75957512247,40,295,40L285,40C282.24042487753,40,280,37.75957512247,280,35L280,25C280,22.24042487753,282.24042487753,20,285,20Z" fill="rgba(255, 80, 8, 0)"/><path aria-label="Hour of Day: 15; Day of Week: Tuesday; Number of Dwells: 0" role="graphics-symbol" aria-roledescription="rect mark" d="M305,20L315,20C317.75957512247,20,320,22.24042487753,320,25L320,35C320,37.75957512247,317.75957512247,40,315,40L305,40C302.24042487753,40,300,37.75957512247,300,35L300,25C300,22.24042487753,302.24042487753,20,305,20Z" fill="rgba(255, 80, 8, 0)"/><path aria-label="Hour of Day: 16; Day of Week: Tuesday; Number of Dwells: 0" role="graphics-symbol" aria-roledescription="rect mark" d="M325,20L335,20C337.75957512247,20,340,22.24042487753,340,25L340,35C340,37.75957512247,337.75957512247,40,335,40L325,40C322.24042487753,40,320,37.75957512247,320,35L320,25C320,22.24042487753,322.24042487753,20,325,20Z" fill="rgba(255, 80, 8, 0)"/><path aria-label="Hour of Day: 17; Day of Week: Tuesday; Number of Dwells: 0" role="graphics-symbol" aria-roledescription="rect mark" d="M345,20L355,20C357.75957512247,20,360,22.24042487753,360,25L360,35C360,37.75957512247,357.75957512247,40,355,40L345,40C342.24042487753,40,340,37.75957512247,340,35L340,25C340,22.24042487753,342.24042487753,20,345,20Z" fill="rgba(255, 80, 8, 0)"/><path aria-label="Hour of Day: 18; Day of Week: Tuesday; Number of Dwells: 0" role="graphics-symbol" aria-roledescription="rect mark" d="M365,20L375,20C377.75957512247,20,380,22.24042487753,380,25L380,35C380,37.75957512247,377.75957512247,40,375,40L365,40C362.24042487753,40,360,37.75957512247,360,35L360,25C360,22.24042487753,362.24042487753,20,365,20Z" fill="rgba(255, 80, 8, 0)"/><path aria-label="Hour of Day: 19; Day of Week: Tuesday; Number of Dwells: 0" role="graphics-symbol" aria-roledescription="rect mark" d="M385,20L395,20C397.75957512247,20,400,22.24042487753,400,25L400,35C400,37.75957512247,397.75957512247,40,395,40L385,40C382.24042487753,40,380,37.75957512247,380,35L380,25C380,22.24042487753,382.24042487753,20,385,20Z" fill="rgba(255, 80, 8, 0)"/><path aria-label="Hour of Day: 20; Day of Week: Tuesday; Number of Dwells: 0" role="graphics-symbol" aria-roledescription="rect mark" d="M405,20L415,20C417.75957512247,20,420,22.24042487753,420,25L420,35C420,37.75957512247,417.75957512247,40,415,40L405,40C402.24042487753,40,400,37.75957512247,400,35L400,25C400,22.24042487753,402.24042487753,20,405,20Z" fill="rgba(255, 80, 8, 0)"/><path aria-label="Hour of Day: 21; Day of Week: Tuesday; Number of Dwells: 0" role="graphics-symbol" aria-roledescription="rect mark" d="M425,20L435,20C437.75957512247,20,440,22.24042487753,440,25L440,35C440,37.75957512247,437.75957512247,40,435,40L425,40C422.24042487753,40,420,37.75957512247,420,35L420,25C420,22.24042487753,422.24042487753,20,425,20Z" fill="rgba(255, 80, 8, 0)"/><path aria-label="Hour of Day: 22; Day of Week: Tuesday; Number of Dwells: 0" role="graphics-symbol" aria-roledescription="rect mark" d="M445,20L455,20C457.75957512247,20,460,22.24042487753,460,25L460,35C460,37.75957512247,457.75957512247,40,455,40L445,40C442.24042487753,40,440,37.75957512247,440,35L440,25C440,22.24042487753,442.24042487753,20,445,20Z" fill="rgba(255, 80, 8, 0)"/><path aria-label="Hour of Day: 23; Day of Week: Tuesday; Number of Dwells: 0" role="graphics-symbol" aria-roledescription="rect mark" d="M465,20L475,20C477.75957512247,20,480,22.24042487753,480,25L480,35C480,37.75957512247,477.75957512247,40,475,40L465,40C462.24042487753,40,460,37.75957512247,460,35L460,25C460,22.24042487753,462.24042487753,20,465,20Z" fill="rgba(255, 80, 8, 0)"/><path aria-label="Hour of Day: 0; Day of Week: Wednesday; Number of Dwells: 2" role="graphics-symbol" aria-roledescription="rect mark" d="M5,40L15,40C17.75957512247,40,20,42.24042487753,20,45L20,55C20,57.75957512247,17.75957512247,60,15,60L5,60C2.24042487753,60,0,57.75957512247,0,55L0,45C0,42.24042487753,2.24042487753,40,5,40Z" fill="rgba(255, 80, 8, 0.10526315789473684)"/><path aria-label="Hour of Day: 1; Day of Week: Wednesday; Number of Dwells: 3" role="graphics-symbol" aria-roledescription="rect mark" d="M25,40L35,40C37.75957512247,40,40,42.24042487753,40,45L40,55C40,57.75957512247,37.75957512247,60,35,60L25,60C22.24042487753,60,20,57.75957512247,20,55L20,45C20,42.24042487753,22.24042487753,40,25,40Z" fill="rgba(255, 80, 8, 0.15789473684210525)"/><path aria-label="Hour of Day: 2; Day of Week: Wednesday; Number of Dwells: 0" role="graphics-symbol" aria-roledescription="rect mark" d="M45,40L55,40C57.75957512247,40,60,42.24042487753,60,45L60,55C60,57.75957512247,57.75957512247,60,55,60L45,60C42.24042487753,60,40,57.75957512247,40,55L40,45C40,42.24042487753,42.24042487753,40,45,40Z" fill="rgba(255, 80, 8, 0)"/><path aria-label="Hour of Day: 3; Day of Week: Wednesday; Number of Dwells: 6" role="graphics-symbol" aria-roledescription="rect mark" d="M65,40L75,40C77.75957512247,40,80,42.24042487753,80,45L80,55C80,57.75957512247,77.75957512247,60,75,60L65,60C62.24042487753,60,60,57.75957512247,60,55L60,45C60,42.24042487753,62.24042487753,40,65,40Z" fill="rgba(255, 80, 8, 0.3157894736842105)"/><path aria-label="Hour of Day: 4; Day of Week: Wednesday; Number of Dwells: 3" role="graphics-symbol" aria-roledescription="rect mark" d="M85,40L95,40C97.75957512247,40,100,42.24042487753,100,45L100,55C100,57.75957512247,97.75957512247,60,95,60L85,60C82.24042487753,60,80,57.75957512247,80,55L80,45C80,42.24042487753,82.24042487753,40,85,40Z" fill="rgba(255, 80, 8, 0.15789473684210525)"/><path aria-label="Hour of Day: 5; Day of Week: Wednesday; Number of Dwells: 6" role="graphics-symbol" aria-roledescription="rect mark" d="M105,40L115,40C117.75957512247,40,120,42.24042487753,120,45L120,55C120,57.75957512247,117.75957512247,60,115,60L105,60C102.24042487753,60,100,57.75957512247,100,55L100,45C100,42.24042487753,102.24042487753,40,105,40Z" fill="rgba(255, 80, 8, 0.3157894736842105)"/><path aria-label="Hour of Day: 6; Day of Week: Wednesday; Number of Dwells: 9" role="graphics-symbol" aria-roledescription="rect mark" d="M125,40L135,40C137.75957512247,40,140,42.24042487753,140,45L140,55C140,57.75957512247,137.75957512247,60,135,60L125,60C122.24042487753,60,120,57.75957512247,120,55L120,45C120,42.24042487753,122.24042487753,40,125,40Z" fill="rgba(255, 80, 8, 0.47368421052631576)"/><path aria-label="Hour of Day: 7; Day of Week: Wednesday; Number of Dwells: 14" role="graphics-symbol" aria-roledescription="rect mark" d="M145,40L155,40C157.75957512247,40,160,42.24042487753,160,45L160,55C160,57.75957512247,157.75957512247,60,155,60L145,60C142.24042487753,60,140,57.75957512247,140,55L140,45C140,42.24042487753,142.24042487753,40,145,40Z" fill="rgba(255, 80, 8, 0.7368421052631579)"/><path aria-label="Hour of Day: 8; Day of Week: Wednesday; Number of Dwells: 14" role="graphics-symbol" aria-roledescription="rect mark" d="M165,40L175,40C177.75957512247,40,180,42.24042487753,180,45L180,55C180,57.75957512247,177.75957512247,60,175,60L165,60C162.24042487753,60,160,57.75957512247,160,55L160,45C160,42.24042487753,162.24042487753,40,165,40Z" fill="rgba(255, 80, 8, 0.7368421052631579)"/><path aria-label="Hour of Day: 9; Day of Week: Wednesday; Number of Dwells: 6" role="graphics-symbol" aria-roledescription="rect mark" d="M185,40L195,40C197.75957512247,40,200,42.24042487753,200,45L200,55C200,57.75957512247,197.75957512247,60,195,60L185,60C182.24042487753,60,180,57.75957512247,180,55L180,45C180,42.24042487753,182.24042487753,40,185,40Z" fill="rgba(255, 80, 8, 0.3157894736842105)"/><path aria-label="Hour of Day: 10; Day of Week: Wednesday; Number of Dwells: 14" role="graphics-symbol" aria-roledescription="rect mark" d="M205,40L215,40C217.75957512247,40,220,42.24042487753,220,45L220,55C220,57.75957512247,217.75957512247,60,215,60L205,60C202.24042487753,60,200,57.75957512247,200,55L200,45C200,42.24042487753,202.24042487753,40,205,40Z" fill="rgba(255, 80, 8, 0.7368421052631579)"/><path aria-label="Hour of Day: 11; Day of Week: Wednesday; Number of Dwells: 4" role="graphics-symbol" aria-roledescription="rect mark" d="M225,40L235,40C237.75957512247,40,240,42.24042487753,240,45L240,55C240,57.75957512247,237.75957512247,60,235,60L225,60C222.24042487753,60,220,57.75957512247,220,55L220,45C220,42.24042487753,222.24042487753,40,225,40Z" fill="rgba(255, 80, 8, 0.21052631578947367)"/><path aria-label="Hour of Day: 12; Day of Week: Wednesday; Number of Dwells: 4" role="graphics-symbol" aria-roledescription="rect mark" d="M245,40L255,40C257.75957512247,40,260,42.24042487753,260,45L260,55C260,57.75957512247,257.75957512247,60,255,60L245,60C242.24042487753,60,240,57.75957512247,240,55L240,45C240,42.24042487753,242.24042487753,40,245,40Z" fill="rgba(255, 80, 8, 0.21052631578947367)"/><path aria-label="Hour of Day: 13; Day of Week: Wednesday; Number of Dwells: 0" role="graphics-symbol" aria-roledescription="rect mark" d="M265,40L275,40C277.75957512247,40,280,42.24042487753,280,45L280,55C280,57.75957512247,277.75957512247,60,275,60L265,60C262.24042487753,60,260,57.75957512247,260,55L260,45C260,42.24042487753,262.24042487753,40,265,40Z" fill="rgba(255, 80, 8, 0)"/><path aria-label="Hour of Day: 14; Day of Week: Wednesday; Number of Dwells: 0" role="graphics-symbol" aria-roledescription="rect mark" d="M285,40L295,40C297.75957512247,40,300,42.24042487753,300,45L300,55C300,57.75957512247,297.75957512247,60,295,60L285,60C282.24042487753,60,280,57.75957512247,280,55L280,45C280,42.24042487753,282.24042487753,40,285,40Z" fill="rgba(255, 80, 8, 0)"/><path aria-label="Hour of Day: 15; Day of Week: Wednesday; Number of Dwells: 1" role="graphics-symbol" aria-roledescription="rect mark" d="M305,40L315,40C317.75957512247,40,320,42.24042487753,320,45L320,55C320,57.75957512247,317.75957512247,60,315,60L305,60C302.24042487753,60,300,57.75957512247,300,55L300,45C300,42.24042487753,302.24042487753,40,305,40Z" fill="rgba(255, 80, 8, 0.05263157894736842)"/><path aria-label="Hour of Day: 16; Day of Week: Wednesday; Number of Dwells: 0" role="graphics-symbol" aria-roledescription="rect mark" d="M325,40L335,40C337.75957512247,40,340,42.24042487753,340,45L340,55C340,57.75957512247,337.75957512247,60,335,60L325,60C322.24042487753,60,320,57.75957512247,320,55L320,45C320,42.24042487753,322.24042487753,40,325,40Z" fill="rgba(255, 80, 8, 0)"/><path aria-label="Hour of Day: 17; Day of Week: Wednesday; Number of Dwells: 1" role="graphics-symbol" aria-roledescription="rect mark" d="M345,40L355,40C357.75957512247,40,360,42.24042487753,360,45L360,55C360,57.75957512247,357.75957512247,60,355,60L345,60C342.24042487753,60,340,57.75957512247,340,55L340,45C340,42.24042487753,342.24042487753,40,345,40Z" fill="rgba(255, 80, 8, 0.05263157894736842)"/><path aria-label="Hour of Day: 18; Day of Week: Wednesday; Number of Dwells: 1" role="graphics-symbol" aria-roledescription="rect mark" d="M365,40L375,40C377.75957512247,40,380,42.24042487753,380,45L380,55C380,57.75957512247,377.75957512247,60,375,60L365,60C362.24042487753,60,360,57.75957512247,360,55L360,45C360,42.24042487753,362.24042487753,40,365,40Z" fill="rgba(255, 80, 8, 0.05263157894736842)"/><path aria-label="Hour of Day: 19; Day of Week: Wednesday; Number of Dwells: 0" role="graphics-symbol" aria-roledescription="rect mark" d="M385,40L395,40C397.75957512247,40,400,42.24042487753,400,45L400,55C400,57.75957512247,397.75957512247,60,395,60L385,60C382.24042487753,60,380,57.75957512247,380,55L380,45C380,42.24042487753,382.24042487753,40,385,40Z" fill="rgba(255, 80, 8, 0)"/><path aria-label="Hour of Day: 20; Day of Week: Wednesday; Number of Dwells: 0" role="graphics-symbol" aria-roledescription="rect mark" d="M405,40L415,40C417.75957512247,40,420,42.24042487753,420,45L420,55C420,57.75957512247,417.75957512247,60,415,60L405,60C402.24042487753,60,400,57.75957512247,400,55L400,45C400,42.24042487753,402.24042487753,40,405,40Z" fill="rgba(255, 80, 8, 0)"/><path aria-label="Hour of Day: 21; Day of Week: Wednesday; Number of Dwells: 0" role="graphics-symbol" aria-roledescription="rect mark" d="M425,40L435,40C437.75957512247,40,440,42.24042487753,440,45L440,55C440,57.75957512247,437.75957512247,60,435,60L425,60C422.24042487753,60,420,57.75957512247,420,55L420,45C420,42.24042487753,422.24042487753,40,425,40Z" fill="rgba(255, 80, 8, 0)"/><path aria-label="Hour of Day: 22; Day of Week: Wednesday; Number of Dwells: 0" role="graphics-symbol" aria-roledescription="rect mark" d="M445,40L455,40C457.75957512247,40,460,42.24042487753,460,45L460,55C460,57.75957512247,457.75957512247,60,455,60L445,60C442.24042487753,60,440,57.75957512247,440,55L440,45C440,42.24042487753,442.24042487753,40,445,40Z" fill="rgba(255, 80, 8, 0)"/><path aria-label="Hour of Day: 23; Day of Week: Wednesday; Number of Dwells: 0" role="graphics-symbol" aria-roledescription="rect mark" d="M465,40L475,40C477.75957512247,40,480,42.24042487753,480,45L480,55C480,57.75957512247,477.75957512247,60,475,60L465,60C462.24042487753,60,460,57.75957512247,460,55L460,45C460,42.24042487753,462.24042487753,40,465,40Z" fill="rgba(255, 80, 8, 0)"/><path aria-label="Hour of Day: 0; Day of Week: Thursday; Number of Dwells: 0" role="graphics-symbol" aria-roledescription="rect mark" d="M5,60L15,60C17.75957512247,60,20,62.24042487753,20,65L20,75C20,77.75957512247,17.75957512247,80,15,80L5,80C2.24042487753,80,0,77.75957512247,0,75L0,65C0,62.24042487753,2.24042487753,60,5,60Z" fill="rgba(255, 80, 8, 0)"/><path aria-label="Hour of Day: 1; Day of Week: Thursday; Number of Dwells: 1" role="graphics-symbol" aria-roledescription="rect mark" d="M25,60L35,60C37.75957512247,60,40,62.24042487753,40,65L40,75C40,77.75957512247,37.75957512247,80,35,80L25,80C22.24042487753,80,20,77.75957512247,20,75L20,65C20,62.24042487753,22.24042487753,60,25,60Z" fill="rgba(255, 80, 8, 0.05263157894736842)"/><path aria-label="Hour of Day: 2; Day of Week: Thursday; Number of Dwells: 2" role="graphics-symbol" aria-roledescription="rect mark" d="M45,60L55,60C57.75957512247,60,60,62.24042487753,60,65L60,75C60,77.75957512247,57.75957512247,80,55,80L45,80C42.24042487753,80,40,77.75957512247,40,75L40,65C40,62.24042487753,42.24042487753,60,45,60Z" fill="rgba(255, 80, 8, 0.10526315789473684)"/><path aria-label="Hour of Day: 3; Day of Week: Thursday; Number of Dwells: 6" role="graphics-symbol" aria-roledescription="rect mark" d="M65,60L75,60C77.75957512247,60,80,62.24042487753,80,65L80,75C80,77.75957512247,77.75957512247,80,75,80L65,80C62.24042487753,80,60,77.75957512247,60,75L60,65C60,62.24042487753,62.24042487753,60,65,60Z" fill="rgba(255, 80, 8, 0.3157894736842105)"/><path aria-label="Hour of Day: 4; Day of Week: Thursday; Number of Dwells: 3" role="graphics-symbol" aria-roledescription="rect mark" d="M85,60L95,60C97.75957512247,60,100,62.24042487753,100,65L100,75C100,77.75957512247,97.75957512247,80,95,80L85,80C82.24042487753,80,80,77.75957512247,80,75L80,65C80,62.24042487753,82.24042487753,60,85,60Z" fill="rgba(255, 80, 8, 0.15789473684210525)"/><path aria-label="Hour of Day: 5; Day of Week: Thursday; Number of Dwells: 5" role="graphics-symbol" aria-roledescription="rect mark" d="M105,60L115,60C117.75957512247,60,120,62.24042487753,120,65L120,75C120,77.75957512247,117.75957512247,80,115,80L105,80C102.24042487753,80,100,77.75957512247,100,75L100,65C100,62.24042487753,102.24042487753,60,105,60Z" fill="rgba(255, 80, 8, 0.2631578947368421)"/><path aria-label="Hour of Day: 6; Day of Week: Thursday; Number of Dwells: 6" role="graphics-symbol" aria-roledescription="rect mark" d="M125,60L135,60C137.75957512247,60,140,62.24042487753,140,65L140,75C140,77.75957512247,137.75957512247,80,135,80L125,80C122.24042487753,80,120,77.75957512247,120,75L120,65C120,62.24042487753,122.24042487753,60,125,60Z" fill="rgba(255, 80, 8, 0.3157894736842105)"/><path aria-label="Hour of Day: 7; Day of Week: Thursday; Number of Dwells: 16" role="graphics-symbol" aria-roledescription="rect mark" d="M145,60L155,60C157.75957512247,60,160,62.24042487753,160,65L160,75C160,77.75957512247,157.75957512247,80,155,80L145,80C142.24042487753,80,140,77.75957512247,140,75L140,65C140,62.24042487753,142.24042487753,60,145,60Z" fill="rgba(255, 80, 8, 0.8421052631578947)"/><path aria-label="Hour of Day: 8; Day of Week: Thursday; Number of Dwells: 10" role="graphics-symbol" aria-roledescription="rect mark" d="M165,60L175,60C177.75957512247,60,180,62.24042487753,180,65L180,75C180,77.75957512247,177.75957512247,80,175,80L165,80C162.24042487753,80,160,77.75957512247,160,75L160,65C160,62.24042487753,162.24042487753,60,165,60Z" fill="rgba(255, 80, 8, 0.5263157894736842)"/><path aria-label="Hour of Day: 9; Day of Week: Thursday; Number of Dwells: 17" role="graphics-symbol" aria-roledescription="rect mark" d="M185,60L195,60C197.75957512247,60,200,62.24042487753,200,65L200,75C200,77.75957512247,197.75957512247,80,195,80L185,80C182.24042487753,80,180,77.75957512247,180,75L180,65C180,62.24042487753,182.24042487753,60,185,60Z" fill="rgba(255, 80, 8, 0.894736842105263)"/><path aria-label="Hour of Day: 10; Day of Week: Thursday; Number of Dwells: 13" role="graphics-symbol" aria-roledescription="rect mark" d="M205,60L215,60C217.75957512247,60,220,62.24042487753,220,65L220,75C220,77.75957512247,217.75957512247,80,215,80L205,80C202.24042487753,80,200,77.75957512247,200,75L200,65C200,62.24042487753,202.24042487753,60,205,60Z" fill="rgba(255, 80, 8, 0.6842105263157894)"/><path aria-label="Hour of Day: 11; Day of Week: Thursday; Number of Dwells: 11" role="graphics-symbol" aria-roledescription="rect mark" d="M225,60L235,60C237.75957512247,60,240,62.24042487753,240,65L240,75C240,77.75957512247,237.75957512247,80,235,80L225,80C222.24042487753,80,220,77.75957512247,220,75L220,65C220,62.24042487753,222.24042487753,60,225,60Z" fill="rgba(255, 80, 8, 0.5789473684210527)"/><path aria-label="Hour of Day: 12; Day of Week: Thursday; Number of Dwells: 2" role="graphics-symbol" aria-roledescription="rect mark" d="M245,60L255,60C257.75957512247,60,260,62.24042487753,260,65L260,75C260,77.75957512247,257.75957512247,80,255,80L245,80C242.24042487753,80,240,77.75957512247,240,75L240,65C240,62.24042487753,242.24042487753,60,245,60Z" fill="rgba(255, 80, 8, 0.10526315789473684)"/><path aria-label="Hour of Day: 13; Day of Week: Thursday; Number of Dwells: 2" role="graphics-symbol" aria-roledescription="rect mark" d="M265,60L275,60C277.75957512247,60,280,62.24042487753,280,65L280,75C280,77.75957512247,277.75957512247,80,275,80L265,80C262.24042487753,80,260,77.75957512247,260,75L260,65C260,62.24042487753,262.24042487753,60,265,60Z" fill="rgba(255, 80, 8, 0.10526315789473684)"/><path aria-label="Hour of Day: 14; Day of Week: Thursday; Number of Dwells: 0" role="graphics-symbol" aria-roledescription="rect mark" d="M285,60L295,60C297.75957512247,60,300,62.24042487753,300,65L300,75C300,77.75957512247,297.75957512247,80,295,80L285,80C282.24042487753,80,280,77.75957512247,280,75L280,65C280,62.24042487753,282.24042487753,60,285,60Z" fill="rgba(255, 80, 8, 0)"/><path aria-label="Hour of Day: 15; Day of Week: Thursday; Number of Dwells: 0" role="graphics-symbol" aria-roledescription="rect mark" d="M305,60L315,60C317.75957512247,60,320,62.24042487753,320,65L320,75C320,77.75957512247,317.75957512247,80,315,80L305,80C302.24042487753,80,300,77.75957512247,300,75L300,65C300,62.24042487753,302.24042487753,60,305,60Z" fill="rgba(255, 80, 8, 0)"/><path aria-label="Hour of Day: 16; Day of Week: Thursday; Number of Dwells: 0" role="graphics-symbol" aria-roledescription="rect mark" d="M325,60L335,60C337.75957512247,60,340,62.24042487753,340,65L340,75C340,77.75957512247,337.75957512247,80,335,80L325,80C322.24042487753,80,320,77.75957512247,320,75L320,65C320,62.24042487753,322.24042487753,60,325,60Z" fill="rgba(255, 80, 8, 0)"/><path aria-label="Hour of Day: 17; Day of Week: Thursday; Number of Dwells: 0" role="graphics-symbol" aria-roledescription="rect mark" d="M345,60L355,60C357.75957512247,60,360,62.24042487753,360,65L360,75C360,77.75957512247,357.75957512247,80,355,80L345,80C342.24042487753,80,340,77.75957512247,340,75L340,65C340,62.24042487753,342.24042487753,60,345,60Z" fill="rgba(255, 80, 8, 0)"/><path aria-label="Hour of Day: 18; Day of Week: Thursday; Number of Dwells: 1" role="graphics-symbol" aria-roledescription="rect mark" d="M365,60L375,60C377.75957512247,60,380,62.24042487753,380,65L380,75C380,77.75957512247,377.75957512247,80,375,80L365,80C362.24042487753,80,360,77.75957512247,360,75L360,65C360,62.24042487753,362.24042487753,60,365,60Z" fill="rgba(255, 80, 8, 0.05263157894736842)"/><path aria-label="Hour of Day: 19; Day of Week: Thursday; Number of Dwells: 0" role="graphics-symbol" aria-roledescription="rect mark" d="M385,60L395,60C397.75957512247,60,400,62.24042487753,400,65L400,75C400,77.75957512247,397.75957512247,80,395,80L385,80C382.24042487753,80,380,77.75957512247,380,75L380,65C380,62.24042487753,382.24042487753,60,385,60Z" fill="rgba(255, 80, 8, 0)"/><path aria-label="Hour of Day: 20; Day of Week: Thursday; Number of Dwells: 0" role="graphics-symbol" aria-roledescription="rect mark" d="M405,60L415,60C417.75957512247,60,420,62.24042487753,420,65L420,75C420,77.75957512247,417.75957512247,80,415,80L405,80C402.24042487753,80,400,77.75957512247,400,75L400,65C400,62.24042487753,402.24042487753,60,405,60Z" fill="rgba(255, 80, 8, 0)"/><path aria-label="Hour of Day: 21; Day of Week: Thursday; Number of Dwells: 0" role="graphics-symbol" aria-roledescription="rect mark" d="M425,60L435,60C437.75957512247,60,440,62.24042487753,440,65L440,75C440,77.75957512247,437.75957512247,80,435,80L425,80C422.24042487753,80,420,77.75957512247,420,75L420,65C420,62.24042487753,422.24042487753,60,425,60Z" fill="rgba(255, 80, 8, 0)"/><path aria-label="Hour of Day: 22; Day of Week: Thursday; Number of Dwells: 0" role="graphics-symbol" aria-roledescription="rect mark" d="M445,60L455,60C457.75957512247,60,460,62.24042487753,460,65L460,75C460,77.75957512247,457.75957512247,80,455,80L445,80C442.24042487753,80,440,77.75957512247,440,75L440,65C440,62.24042487753,442.24042487753,60,445,60Z" fill="rgba(255, 80, 8, 0)"/><path aria-label="Hour of Day: 23; Day of Week: Thursday; Number of Dwells: 0" role="graphics-symbol" aria-roledescription="rect mark" d="M465,60L475,60C477.75957512247,60,480,62.24042487753,480,65L480,75C480,77.75957512247,477.75957512247,80,475,80L465,80C462.24042487753,80,460,77.75957512247,460,75L460,65C460,62.24042487753,462.24042487753,60,465,60Z" fill="rgba(255, 80, 8, 0)"/><path aria-label="Hour of Day: 0; Day of Week: Friday; Number of Dwells: 0" role="graphics-symbol" aria-roledescription="rect mark" d="M5,80L15,80C17.75957512247,80,20,82.24042487753,20,85L20,95C20,97.75957512247,17.75957512247,100,15,100L5,100C2.24042487753,100,0,97.75957512247,0,95L0,85C0,82.24042487753,2.24042487753,80,5,80Z" fill="rgba(255, 80, 8, 0)"/><path aria-label="Hour of Day: 1; Day of Week: Friday; Number of Dwells: 2" role="graphics-symbol" aria-roledescription="rect mark" d="M25,80L35,80C37.75957512247,80,40,82.24042487753,40,85L40,95C40,97.75957512247,37.75957512247,100,35,100L25,100C22.24042487753,100,20,97.75957512247,20,95L20,85C20,82.24042487753,22.24042487753,80,25,80Z" fill="rgba(255, 80, 8, 0.10526315789473684)"/><path aria-label="Hour of Day: 2; Day of Week: Friday; Number of Dwells: 4" role="graphics-symbol" aria-roledescription="rect mark" d="M45,80L55,80C57.75957512247,80,60,82.24042487753,60,85L60,95C60,97.75957512247,57.75957512247,100,55,100L45,100C42.24042487753,100,40,97.75957512247,40,95L40,85C40,82.24042487753,42.24042487753,80,45,80Z" fill="rgba(255, 80, 8, 0.21052631578947367)"/><path aria-label="Hour of Day: 3; Day of Week: Friday; Number of Dwells: 2" role="graphics-symbol" aria-roledescription="rect mark" d="M65,80L75,80C77.75957512247,80,80,82.24042487753,80,85L80,95C80,97.75957512247,77.75957512247,100,75,100L65,100C62.24042487753,100,60,97.75957512247,60,95L60,85C60,82.24042487753,62.24042487753,80,65,80Z" fill="rgba(255, 80, 8, 0.10526315789473684)"/><path aria-label="Hour of Day: 4; Day of Week: Friday; Number of Dwells: 6" role="graphics-symbol" aria-roledescription="rect mark" d="M85,80L95,80C97.75957512247,80,100,82.24042487753,100,85L100,95C100,97.75957512247,97.75957512247,100,95,100L85,100C82.24042487753,100,80,97.75957512247,80,95L80,85C80,82.24042487753,82.24042487753,80,85,80Z" fill="rgba(255, 80, 8, 0.3157894736842105)"/><path aria-label="Hour of Day: 5; Day of Week: Friday; Number of Dwells: 10" role="graphics-symbol" aria-roledescription="rect mark" d="M105,80L115,80C117.75957512247,80,120,82.24042487753,120,85L120,95C120,97.75957512247,117.75957512247,100,115,100L105,100C102.24042487753,100,100,97.75957512247,100,95L100,85C100,82.24042487753,102.24042487753,80,105,80Z" fill="rgba(255, 80, 8, 0.5263157894736842)"/><path aria-label="Hour of Day: 6; Day of Week: Friday; Number of Dwells: 12" role="graphics-symbol" aria-roledescription="rect mark" d="M125,80L135,80C137.75957512247,80,140,82.24042487753,140,85L140,95C140,97.75957512247,137.75957512247,100,135,100L125,100C122.24042487753,100,120,97.75957512247,120,95L120,85C120,82.24042487753,122.24042487753,80,125,80Z" fill="rgba(255, 80, 8, 0.631578947368421)"/><path aria-label="Hour of Day: 7; Day of Week: Friday; Number of Dwells: 17" role="graphics-symbol" aria-roledescription="rect mark" d="M145,80L155,80C157.75957512247,80,160,82.24042487753,160,85L160,95C160,97.75957512247,157.75957512247,100,155,100L145,100C142.24042487753,100,140,97.75957512247,140,95L140,85C140,82.24042487753,142.24042487753,80,145,80Z" fill="rgba(255, 80, 8, 0.894736842105263)"/><path aria-label="Hour of Day: 8; Day of Week: Friday; Number of Dwells: 18" role="graphics-symbol" aria-roledescription="rect mark" d="M165,80L175,80C177.75957512247,80,180,82.24042487753,180,85L180,95C180,97.75957512247,177.75957512247,100,175,100L165,100C162.24042487753,100,160,97.75957512247,160,95L160,85C160,82.24042487753,162.24042487753,80,165,80Z" fill="rgba(255, 80, 8, 0.9473684210526315)"/><path aria-label="Hour of Day: 9; Day of Week: Friday; Number of Dwells: 15" role="graphics-symbol" aria-roledescription="rect mark" d="M185,80L195,80C197.75957512247,80,200,82.24042487753,200,85L200,95C200,97.75957512247,197.75957512247,100,195,100L185,100C182.24042487753,100,180,97.75957512247,180,95L180,85C180,82.24042487753,182.24042487753,80,185,80Z" fill="rgba(255, 80, 8, 0.7894736842105263)"/><path aria-label="Hour of Day: 10; Day of Week: Friday; Number of Dwells: 10" role="graphics-symbol" aria-roledescription="rect mark" d="M205,80L215,80C217.75957512247,80,220,82.24042487753,220,85L220,95C220,97.75957512247,217.75957512247,100,215,100L205,100C202.24042487753,100,200,97.75957512247,200,95L200,85C200,82.24042487753,202.24042487753,80,205,80Z" fill="rgba(255, 80, 8, 0.5263157894736842)"/><path aria-label="Hour of Day: 11; Day of Week: Friday; Number of Dwells: 10" role="graphics-symbol" aria-roledescription="rect mark" d="M225,80L235,80C237.75957512247,80,240,82.24042487753,240,85L240,95C240,97.75957512247,237.75957512247,100,235,100L225,100C222.24042487753,100,220,97.75957512247,220,95L220,85C220,82.24042487753,222.24042487753,80,225,80Z" fill="rgba(255, 80, 8, 0.5263157894736842)"/><path aria-label="Hour of Day: 12; Day of Week: Friday; Number of Dwells: 6" role="graphics-symbol" aria-roledescription="rect mark" d="M245,80L255,80C257.75957512247,80,260,82.24042487753,260,85L260,95C260,97.75957512247,257.75957512247,100,255,100L245,100C242.24042487753,100,240,97.75957512247,240,95L240,85C240,82.24042487753,242.24042487753,80,245,80Z" fill="rgba(255, 80, 8, 0.3157894736842105)"/><path aria-label="Hour of Day: 13; Day of Week: Friday; Number of Dwells: 0" role="graphics-symbol" aria-roledescription="rect mark" d="M265,80L275,80C277.75957512247,80,280,82.24042487753,280,85L280,95C280,97.75957512247,277.75957512247,100,275,100L265,100C262.24042487753,100,260,97.75957512247,260,95L260,85C260,82.24042487753,262.24042487753,80,265,80Z" fill="rgba(255, 80, 8, 0)"/><path aria-label="Hour of Day: 14; Day of Week: Friday; Number of Dwells: 0" role="graphics-symbol" aria-roledescription="rect mark" d="M285,80L295,80C297.75957512247,80,300,82.24042487753,300,85L300,95C300,97.75957512247,297.75957512247,100,295,100L285,100C282.24042487753,100,280,97.75957512247,280,95L280,85C280,82.24042487753,282.24042487753,80,285,80Z" fill="rgba(255, 80, 8, 0)"/><path aria-label="Hour of Day: 15; Day of Week: Friday; Number of Dwells: 0" role="graphics-symbol" aria-roledescription="rect mark" d="M305,80L315,80C317.75957512247,80,320,82.24042487753,320,85L320,95C320,97.75957512247,317.75957512247,100,315,100L305,100C302.24042487753,100,300,97.75957512247,300,95L300,85C300,82.24042487753,302.24042487753,80,305,80Z" fill="rgba(255, 80, 8, 0)"/><path aria-label="Hour of Day: 16; Day of Week: Friday; Number of Dwells: 0" role="graphics-symbol" aria-roledescription="rect mark" d="M325,80L335,80C337.75957512247,80,340,82.24042487753,340,85L340,95C340,97.75957512247,337.75957512247,100,335,100L325,100C322.24042487753,100,320,97.75957512247,320,95L320,85C320,82.24042487753,322.24042487753,80,325,80Z" fill="rgba(255, 80, 8, 0)"/><path aria-label="Hour of Day: 17; Day of Week: Friday; Number of Dwells: 0" role="graphics-symbol" aria-roledescription="rect mark" d="M345,80L355,80C357.75957512247,80,360,82.24042487753,360,85L360,95C360,97.75957512247,357.75957512247,100,355,100L345,100C342.24042487753,100,340,97.75957512247,340,95L340,85C340,82.24042487753,342.24042487753,80,345,80Z" fill="rgba(255, 80, 8, 0)"/><path aria-label="Hour of Day: 18; Day of Week: Friday; Number of Dwells: 0" role="graphics-symbol" aria-roledescription="rect mark" d="M365,80L375,80C377.75957512247,80,380,82.24042487753,380,85L380,95C380,97.75957512247,377.75957512247,100,375,100L365,100C362.24042487753,100,360,97.75957512247,360,95L360,85C360,82.24042487753,362.24042487753,80,365,80Z" fill="rgba(255, 80, 8, 0)"/><path aria-label="Hour of Day: 19; Day of Week: Friday; Number of Dwells: 0" role="graphics-symbol" aria-roledescription="rect mark" d="M385,80L395,80C397.75957512247,80,400,82.24042487753,400,85L400,95C400,97.75957512247,397.75957512247,100,395,100L385,100C382.24042487753,100,380,97.75957512247,380,95L380,85C380,82.24042487753,382.24042487753,80,385,80Z" fill="rgba(255, 80, 8, 0)"/><path aria-label="Hour of Day: 20; Day of Week: Friday; Number of Dwells: 0" role="graphics-symbol" aria-roledescription="rect mark" d="M405,80L415,80C417.75957512247,80,420,82.24042487753,420,85L420,95C420,97.75957512247,417.75957512247,100,415,100L405,100C402.24042487753,100,400,97.75957512247,400,95L400,85C400,82.24042487753,402.24042487753,80,405,80Z" fill="rgba(255, 80, 8, 0)"/><path aria-label="Hour of Day: 21; Day of Week: Friday; Number of Dwells: 0" role="graphics-symbol" aria-roledescription="rect mark" d="M425,80L435,80C437.75957512247,80,440,82.24042487753,440,85L440,95C440,97.75957512247,437.75957512247,100,435,100L425,100C422.24042487753,100,420,97.75957512247,420,95L420,85C420,82.24042487753,422.24042487753,80,425,80Z" fill="rgba(255, 80, 8, 0)"/><path aria-label="Hour of Day: 22; Day of Week: Friday; Number of Dwells: 0" role="graphics-symbol" aria-roledescription="rect mark" d="M445,80L455,80C457.75957512247,80,460,82.24042487753,460,85L460,95C460,97.75957512247,457.75957512247,100,455,100L445,100C442.24042487753,100,440,97.75957512247,440,95L440,85C440,82.24042487753,442.24042487753,80,445,80Z" fill="rgba(255, 80, 8, 0)"/><path aria-label="Hour of Day: 23; Day of Week: Friday; Number of Dwells: 0" role="graphics-symbol" aria-roledescription="rect mark" d="M465,80L475,80C477.75957512247,80,480,82.24042487753,480,85L480,95C480,97.75957512247,477.75957512247,100,475,100L465,100C462.24042487753,100,460,97.75957512247,460,95L460,85C460,82.24042487753,462.24042487753,80,465,80Z" fill="rgba(255, 80, 8, 0)"/><path aria-label="Hour of Day: 0; Day of Week: Saturday; Number of Dwells: 1" role="graphics-symbol" aria-roledescription="rect mark" d="M5,100L15,100C17.75957512247,100,20,102.24042487753,20,105L20,115C20,117.75957512247,17.75957512247,120,15,120L5,120C2.24042487753,120,0,117.75957512247,0,115L0,105C0,102.24042487753,2.24042487753,100,5,100Z" fill="rgba(255, 80, 8, 0.05263157894736842)"/><path aria-label="Hour of Day: 1; Day of Week: Saturday; Number of Dwells: 0" role="graphics-symbol" aria-roledescription="rect mark" d="M25,100L35,100C37.75957512247,100,40,102.24042487753,40,105L40,115C40,117.75957512247,37.75957512247,120,35,120L25,120C22.24042487753,120,20,117.75957512247,20,115L20,105C20,102.24042487753,22.24042487753,100,25,100Z" fill="rgba(255, 80, 8, 0)"/><path aria-label="Hour of Day: 2; Day of Week: Saturday; Number of Dwells: 2" role="graphics-symbol" aria-roledescription="rect mark" d="M45,100L55,100C57.75957512247,100,60,102.24042487753,60,105L60,115C60,117.75957512247,57.75957512247,120,55,120L45,120C42.24042487753,120,40,117.75957512247,40,115L40,105C40,102.24042487753,42.24042487753,100,45,100Z" fill="rgba(255, 80, 8, 0.10526315789473684)"/><path aria-label="Hour of Day: 3; Day of Week: Saturday; Number of Dwells: 3" role="graphics-symbol" aria-roledescription="rect mark" d="M65,100L75,100C77.75957512247,100,80,102.24042487753,80,105L80,115C80,117.75957512247,77.75957512247,120,75,120L65,120C62.24042487753,120,60,117.75957512247,60,115L60,105C60,102.24042487753,62.24042487753,100,65,100Z" fill="rgba(255, 80, 8, 0.15789473684210525)"/><path aria-label="Hour of Day: 4; Day of Week: Saturday; Number of Dwells: 4" role="graphics-symbol" aria-roledescription="rect mark" d="M85,100L95,100C97.75957512247,100,100,102.24042487753,100,105L100,115C100,117.75957512247,97.75957512247,120,95,120L85,120C82.24042487753,120,80,117.75957512247,80,115L80,105C80,102.24042487753,82.24042487753,100,85,100Z" fill="rgba(255, 80, 8, 0.21052631578947367)"/><path aria-label="Hour of Day: 5; Day of Week: Saturday; Number of Dwells: 6" role="graphics-symbol" aria-roledescription="rect mark" d="M105,100L115,100C117.75957512247,100,120,102.24042487753,120,105L120,115C120,117.75957512247,117.75957512247,120,115,120L105,120C102.24042487753,120,100,117.75957512247,100,115L100,105C100,102.24042487753,102.24042487753,100,105,100Z" fill="rgba(255, 80, 8, 0.3157894736842105)"/><path aria-label="Hour of Day: 6; Day of Week: Saturday; Number of Dwells: 10" role="graphics-symbol" aria-roledescription="rect mark" d="M125,100L135,100C137.75957512247,100,140,102.24042487753,140,105L140,115C140,117.75957512247,137.75957512247,120,135,120L125,120C122.24042487753,120,120,117.75957512247,120,115L120,105C120,102.24042487753,122.24042487753,100,125,100Z" fill="rgba(255, 80, 8, 0.5263157894736842)"/><path aria-label="Hour of Day: 7; Day of Week: Saturday; Number of Dwells: 9" role="graphics-symbol" aria-roledescription="rect mark" d="M145,100L155,100C157.75957512247,100,160,102.24042487753,160,105L160,115C160,117.75957512247,157.75957512247,120,155,120L145,120C142.24042487753,120,140,117.75957512247,140,115L140,105C140,102.24042487753,142.24042487753,100,145,100Z" fill="rgba(255, 80, 8, 0.47368421052631576)"/><path aria-label="Hour of Day: 8; Day of Week: Saturday; Number of Dwells: 17" role="graphics-symbol" aria-roledescription="rect mark" d="M165,100L175,100C177.75957512247,100,180,102.24042487753,180,105L180,115C180,117.75957512247,177.75957512247,120,175,120L165,120C162.24042487753,120,160,117.75957512247,160,115L160,105C160,102.24042487753,162.24042487753,100,165,100Z" fill="rgba(255, 80, 8, 0.894736842105263)"/><path aria-label="Hour of Day: 9; Day of Week: Saturday; Number of Dwells: 11" role="graphics-symbol" aria-roledescription="rect mark" d="M185,100L195,100C197.75957512247,100,200,102.24042487753,200,105L200,115C200,117.75957512247,197.75957512247,120,195,120L185,120C182.24042487753,120,180,117.75957512247,180,115L180,105C180,102.24042487753,182.24042487753,100,185,100Z" fill="rgba(255, 80, 8, 0.5789473684210527)"/><path aria-label="Hour of Day: 10; Day of Week: Saturday; Number of Dwells: 8" role="graphics-symbol" aria-roledescription="rect mark" d="M205,100L215,100C217.75957512247,100,220,102.24042487753,220,105L220,115C220,117.75957512247,217.75957512247,120,215,120L205,120C202.24042487753,120,200,117.75957512247,200,115L200,105C200,102.24042487753,202.24042487753,100,205,100Z" fill="rgba(255, 80, 8, 0.42105263157894735)"/><path aria-label="Hour of Day: 11; Day of Week: Saturday; Number of Dwells: 5" role="graphics-symbol" aria-roledescription="rect mark" d="M225,100L235,100C237.75957512247,100,240,102.24042487753,240,105L240,115C240,117.75957512247,237.75957512247,120,235,120L225,120C222.24042487753,120,220,117.75957512247,220,115L220,105C220,102.24042487753,222.24042487753,100,225,100Z" fill="rgba(255, 80, 8, 0.2631578947368421)"/><path aria-label="Hour of Day: 12; Day of Week: Saturday; Number of Dwells: 3" role="graphics-symbol" aria-roledescription="rect mark" d="M245,100L255,100C257.75957512247,100,260,102.24042487753,260,105L260,115C260,117.75957512247,257.75957512247,120,255,120L245,120C242.24042487753,120,240,117.75957512247,240,115L240,105C240,102.24042487753,242.24042487753,100,245,100Z" fill="rgba(255, 80, 8, 0.15789473684210525)"/><path aria-label="Hour of Day: 13; Day of Week: Saturday; Number of Dwells: 2" role="graphics-symbol" aria-roledescription="rect mark" d="M265,100L275,100C277.75957512247,100,280,102.24042487753,280,105L280,115C280,117.75957512247,277.75957512247,120,275,120L265,120C262.24042487753,120,260,117.75957512247,260,115L260,105C260,102.24042487753,262.24042487753,100,265,100Z" fill="rgba(255, 80, 8, 0.10526315789473684)"/><path aria-label="Hour of Day: 14; Day of Week: Saturday; Number of Dwells: 0" role="graphics-symbol" aria-roledescription="rect mark" d="M285,100L295,100C297.75957512247,100,300,102.24042487753,300,105L300,115C300,117.75957512247,297.75957512247,120,295,120L285,120C282.24042487753,120,280,117.75957512247,280,115L280,105C280,102.24042487753,282.24042487753,100,285,100Z" fill="rgba(255, 80, 8, 0)"/><path aria-label="Hour of Day: 15; Day of Week: Saturday; Number of Dwells: 0" role="graphics-symbol" aria-roledescription="rect mark" d="M305,100L315,100C317.75957512247,100,320,102.24042487753,320,105L320,115C320,117.75957512247,317.75957512247,120,315,120L305,120C302.24042487753,120,300,117.75957512247,300,115L300,105C300,102.24042487753,302.24042487753,100,305,100Z" fill="rgba(255, 80, 8, 0)"/><path aria-label="Hour of Day: 16; Day of Week: Saturday; Number of Dwells: 1" role="graphics-symbol" aria-roledescription="rect mark" d="M325,100L335,100C337.75957512247,100,340,102.24042487753,340,105L340,115C340,117.75957512247,337.75957512247,120,335,120L325,120C322.24042487753,120,320,117.75957512247,320,115L320,105C320,102.24042487753,322.24042487753,100,325,100Z" fill="rgba(255, 80, 8, 0.05263157894736842)"/><path aria-label="Hour of Day: 17; Day of Week: Saturday; Number of Dwells: 0" role="graphics-symbol" aria-roledescription="rect mark" d="M345,100L355,100C357.75957512247,100,360,102.24042487753,360,105L360,115C360,117.75957512247,357.75957512247,120,355,120L345,120C342.24042487753,120,340,117.75957512247,340,115L340,105C340,102.24042487753,342.24042487753,100,345,100Z" fill="rgba(255, 80, 8, 0)"/><path aria-label="Hour of Day: 18; Day of Week: Saturday; Number of Dwells: 0" role="graphics-symbol" aria-roledescription="rect mark" d="M365,100L375,100C377.75957512247,100,380,102.24042487753,380,105L380,115C380,117.75957512247,377.75957512247,120,375,120L365,120C362.24042487753,120,360,117.75957512247,360,115L360,105C360,102.24042487753,362.24042487753,100,365,100Z" fill="rgba(255, 80, 8, 0)"/><path aria-label="Hour of Day: 19; Day of Week: Saturday; Number of Dwells: 0" role="graphics-symbol" aria-roledescription="rect mark" d="M385,100L395,100C397.75957512247,100,400,102.24042487753,400,105L400,115C400,117.75957512247,397.75957512247,120,395,120L385,120C382.24042487753,120,380,117.75957512247,380,115L380,105C380,102.24042487753,382.24042487753,100,385,100Z" fill="rgba(255, 80, 8, 0)"/><path aria-label="Hour of Day: 20; Day of Week: Saturday; Number of Dwells: 0" role="graphics-symbol" aria-roledescription="rect mark" d="M405,100L415,100C417.75957512247,100,420,102.24042487753,420,105L420,115C420,117.75957512247,417.75957512247,120,415,120L405,120C402.24042487753,120,400,117.75957512247,400,115L400,105C400,102.24042487753,402.24042487753,100,405,100Z" fill="rgba(255, 80, 8, 0)"/><path aria-label="Hour of Day: 21; Day of Week: Saturday; Number of Dwells: 0" role="graphics-symbol" aria-roledescription="rect mark" d="M425,100L435,100C437.75957512247,100,440,102.24042487753,440,105L440,115C440,117.75957512247,437.75957512247,120,435,120L425,120C422.24042487753,120,420,117.75957512247,420,115L420,105C420,102.24042487753,422.24042487753,100,425,100Z" fill="rgba(255, 80, 8, 0)"/><path aria-label="Hour of Day: 22; Day of Week: Saturday; Number of Dwells: 0" role="graphics-symbol" aria-roledescription="rect mark" d="M445,100L455,100C457.75957512247,100,460,102.24042487753,460,105L460,115C460,117.75957512247,457.75957512247,120,455,120L445,120C442.24042487753,120,440,117.75957512247,440,115L440,105C440,102.24042487753,442.24042487753,100,445,100Z" fill="rgba(255, 80, 8, 0)"/><path aria-label="Hour of Day: 23; Day of Week: Saturday; Number of Dwells: 0" role="graphics-symbol" aria-roledescription="rect mark" d="M465,100L475,100C477.75957512247,100,480,102.24042487753,480,105L480,115C480,117.75957512247,477.75957512247,120,475,120L465,120C462.24042487753,120,460,117.75957512247,460,115L460,105C460,102.24042487753,462.24042487753,100,465,100Z" fill="rgba(255, 80, 8, 0)"/><path aria-label="Hour of Day: 0; Day of Week: Sunday; Number of Dwells: 1" role="graphics-symbol" aria-roledescription="rect mark" d="M5,120L15,120C17.75957512247,120,20,122.24042487753,20,125L20,135C20,137.75957512247,17.75957512247,140,15,140L5,140C2.24042487753,140,0,137.75957512247,0,135L0,125C0,122.24042487753,2.24042487753,120,5,120Z" fill="rgba(255, 80, 8, 0.05263157894736842)"/><path aria-label="Hour of Day: 1; Day of Week: Sunday; Number of Dwells: 0" role="graphics-symbol" aria-roledescription="rect mark" d="M25,120L35,120C37.75957512247,120,40,122.24042487753,40,125L40,135C40,137.75957512247,37.75957512247,140,35,140L25,140C22.24042487753,140,20,137.75957512247,20,135L20,125C20,122.24042487753,22.24042487753,120,25,120Z" fill="rgba(255, 80, 8, 0)"/><path aria-label="Hour of Day: 2; Day of Week: Sunday; Number of Dwells: 2" role="graphics-symbol" aria-roledescription="rect mark" d="M45,120L55,120C57.75957512247,120,60,122.24042487753,60,125L60,135C60,137.75957512247,57.75957512247,140,55,140L45,140C42.24042487753,140,40,137.75957512247,40,135L40,125C40,122.24042487753,42.24042487753,120,45,120Z" fill="rgba(255, 80, 8, 0.10526315789473684)"/><path aria-label="Hour of Day: 3; Day of Week: Sunday; Number of Dwells: 2" role="graphics-symbol" aria-roledescription="rect mark" d="M65,120L75,120C77.75957512247,120,80,122.24042487753,80,125L80,135C80,137.75957512247,77.75957512247,140,75,140L65,140C62.24042487753,140,60,137.75957512247,60,135L60,125C60,122.24042487753,62.24042487753,120,65,120Z" fill="rgba(255, 80, 8, 0.10526315789473684)"/><path aria-label="Hour of Day: 4; Day of Week: Sunday; Number of Dwells: 7" role="graphics-symbol" aria-roledescription="rect mark" d="M85,120L95,120C97.75957512247,120,100,122.24042487753,100,125L100,135C100,137.75957512247,97.75957512247,140,95,140L85,140C82.24042487753,140,80,137.75957512247,80,135L80,125C80,122.24042487753,82.24042487753,120,85,120Z" fill="rgba(255, 80, 8, 0.3684210526315789)"/><path aria-label="Hour of Day: 5; Day of Week: Sunday; Number of Dwells: 6" role="graphics-symbol" aria-roledescription="rect mark" d="M105,120L115,120C117.75957512247,120,120,122.24042487753,120,125L120,135C120,137.75957512247,117.75957512247,140,115,140L105,140C102.24042487753,140,100,137.75957512247,100,135L100,125C100,122.24042487753,102.24042487753,120,105,120Z" fill="rgba(255, 80, 8, 0.3157894736842105)"/><path aria-label="Hour of Day: 6; Day of Week: Sunday; Number of Dwells: 9" role="graphics-symbol" aria-roledescription="rect mark" d="M125,120L135,120C137.75957512247,120,140,122.24042487753,140,125L140,135C140,137.75957512247,137.75957512247,140,135,140L125,140C122.24042487753,140,120,137.75957512247,120,135L120,125C120,122.24042487753,122.24042487753,120,125,120Z" fill="rgba(255, 80, 8, 0.47368421052631576)"/><path aria-label="Hour of Day: 7; Day of Week: Sunday; Number of Dwells: 15" role="graphics-symbol" aria-roledescription="rect mark" d="M145,120L155,120C157.75957512247,120,160,122.24042487753,160,125L160,135C160,137.75957512247,157.75957512247,140,155,140L145,140C142.24042487753,140,140,137.75957512247,140,135L140,125C140,122.24042487753,142.24042487753,120,145,120Z" fill="rgba(255, 80, 8, 0.7894736842105263)"/><path aria-label="Hour of Day: 8; Day of Week: Sunday; Number of Dwells: 18" role="graphics-symbol" aria-roledescription="rect mark" d="M165,120L175,120C177.75957512247,120,180,122.24042487753,180,125L180,135C180,137.75957512247,177.75957512247,140,175,140L165,140C162.24042487753,140,160,137.75957512247,160,135L160,125C160,122.24042487753,162.24042487753,120,165,120Z" fill="rgba(255, 80, 8, 0.9473684210526315)"/><path aria-label="Hour of Day: 9; Day of Week: Sunday; Number of Dwells: 18" role="graphics-symbol" aria-roledescription="rect mark" d="M185,120L195,120C197.75957512247,120,200,122.24042487753,200,125L200,135C200,137.75957512247,197.75957512247,140,195,140L185,140C182.24042487753,140,180,137.75957512247,180,135L180,125C180,122.24042487753,182.24042487753,120,185,120Z" fill="rgba(255, 80, 8, 0.9473684210526315)"/><path aria-label="Hour of Day: 10; Day of Week: Sunday; Number of Dwells: 4" role="graphics-symbol" aria-roledescription="rect mark" d="M205,120L215,120C217.75957512247,120,220,122.24042487753,220,125L220,135C220,137.75957512247,217.75957512247,140,215,140L205,140C202.24042487753,140,200,137.75957512247,200,135L200,125C200,122.24042487753,202.24042487753,120,205,120Z" fill="rgba(255, 80, 8, 0.21052631578947367)"/><path aria-label="Hour of Day: 11; Day of Week: Sunday; Number of Dwells: 13" role="graphics-symbol" aria-roledescription="rect mark" d="M225,120L235,120C237.75957512247,120,240,122.24042487753,240,125L240,135C240,137.75957512247,237.75957512247,140,235,140L225,140C222.24042487753,140,220,137.75957512247,220,135L220,125C220,122.24042487753,222.24042487753,120,225,120Z" fill="rgba(255, 80, 8, 0.6842105263157894)"/><path aria-label="Hour of Day: 12; Day of Week: Sunday; Number of Dwells: 5" role="graphics-symbol" aria-roledescription="rect mark" d="M245,120L255,120C257.75957512247,120,260,122.24042487753,260,125L260,135C260,137.75957512247,257.75957512247,140,255,140L245,140C242.24042487753,140,240,137.75957512247,240,135L240,125C240,122.24042487753,242.24042487753,120,245,120Z" fill="rgba(255, 80, 8, 0.2631578947368421)"/><path aria-label="Hour of Day: 13; Day of Week: Sunday; Number of Dwells: 1" role="graphics-symbol" aria-roledescription="rect mark" d="M265,120L275,120C277.75957512247,120,280,122.24042487753,280,125L280,135C280,137.75957512247,277.75957512247,140,275,140L265,140C262.24042487753,140,260,137.75957512247,260,135L260,125C260,122.24042487753,262.24042487753,120,265,120Z" fill="rgba(255, 80, 8, 0.05263157894736842)"/><path aria-label="Hour of Day: 14; Day of Week: Sunday; Number of Dwells: 0" role="graphics-symbol" aria-roledescription="rect mark" d="M285,120L295,120C297.75957512247,120,300,122.24042487753,300,125L300,135C300,137.75957512247,297.75957512247,140,295,140L285,140C282.24042487753,140,280,137.75957512247,280,135L280,125C280,122.24042487753,282.24042487753,120,285,120Z" fill="rgba(255, 80, 8, 0)"/><path aria-label="Hour of Day: 15; Day of Week: Sunday; Number of Dwells: 0" role="graphics-symbol" aria-roledescription="rect mark" d="M305,120L315,120C317.75957512247,120,320,122.24042487753,320,125L320,135C320,137.75957512247,317.75957512247,140,315,140L305,140C302.24042487753,140,300,137.75957512247,300,135L300,125C300,122.24042487753,302.24042487753,120,305,120Z" fill="rgba(255, 80, 8, 0)"/><path aria-label="Hour of Day: 16; Day of Week: Sunday; Number of Dwells: 1" role="graphics-symbol" aria-roledescription="rect mark" d="M325,120L335,120C337.75957512247,120,340,122.24042487753,340,125L340,135C340,137.75957512247,337.75957512247,140,335,140L325,140C322.24042487753,140,320,137.75957512247,320,135L320,125C320,122.24042487753,322.24042487753,120,325,120Z" fill="rgba(255, 80, 8, 0.05263157894736842)"/><path aria-label="Hour of Day: 17; Day of Week: Sunday; Number of Dwells: 1" role="graphics-symbol" aria-roledescription="rect mark" d="M345,120L355,120C357.75957512247,120,360,122.24042487753,360,125L360,135C360,137.75957512247,357.75957512247,140,355,140L345,140C342.24042487753,140,340,137.75957512247,340,135L340,125C340,122.24042487753,342.24042487753,120,345,120Z" fill="rgba(255, 80, 8, 0.05263157894736842)"/><path aria-label="Hour of Day: 18; Day of Week: Sunday; Number of Dwells: 0" role="graphics-symbol" aria-roledescription="rect mark" d="M365,120L375,120C377.75957512247,120,380,122.24042487753,380,125L380,135C380,137.75957512247,377.75957512247,140,375,140L365,140C362.24042487753,140,360,137.75957512247,360,135L360,125C360,122.24042487753,362.24042487753,120,365,120Z" fill="rgba(255, 80, 8, 0)"/><path aria-label="Hour of Day: 19; Day of Week: Sunday; Number of Dwells: 0" role="graphics-symbol" aria-roledescription="rect mark" d="M385,120L395,120C397.75957512247,120,400,122.24042487753,400,125L400,135C400,137.75957512247,397.75957512247,140,395,140L385,140C382.24042487753,140,380,137.75957512247,380,135L380,125C380,122.24042487753,382.24042487753,120,385,120Z" fill="rgba(255, 80, 8, 0)"/><path aria-label="Hour of Day: 20; Day of Week: Sunday; Number of Dwells: 0" role="graphics-symbol" aria-roledescription="rect mark" d="M405,120L415,120C417.75957512247,120,420,122.24042487753,420,125L420,135C420,137.75957512247,417.75957512247,140,415,140L405,140C402.24042487753,140,400,137.75957512247,400,135L400,125C400,122.24042487753,402.24042487753,120,405,120Z" fill="rgba(255, 80, 8, 0)"/><path aria-label="Hour of Day: 21; Day of Week: Sunday; Number of Dwells: 0" role="graphics-symbol" aria-roledescription="rect mark" d="M425,120L435,120C437.75957512247,120,440,122.24042487753,440,125L440,135C440,137.75957512247,437.75957512247,140,435,140L425,140C422.24042487753,140,420,137.75957512247,420,135L420,125C420,122.24042487753,422.24042487753,120,425,120Z" fill="rgba(255, 80, 8, 0)"/><path aria-label="Hour of Day: 22; Day of Week: Sunday; Number of Dwells: 0" role="graphics-symbol" aria-roledescription="rect mark" d="M445,120L455,120C457.75957512247,120,460,122.24042487753,460,125L460,135C460,137.75957512247,457.75957512247,140,455,140L445,140C442.24042487753,140,440,137.75957512247,440,135L440,125C440,122.24042487753,442.24042487753,120,445,120Z" fill="rgba(255, 80, 8, 0)"/><path aria-label="Hour of Day: 23; Day of Week: Sunday; Number of Dwells: 0" role="graphics-symbol" aria-roledescription="rect mark" d="M465,120L475,120C477.75957512247,120,480,122.24042487753,480,125L480,135C480,137.75957512247,477.75957512247,140,475,140L465,140C462.24042487753,140,460,137.75957512247,460,135L460,125C460,122.24042487753,462.24042487753,120,465,120Z" fill="rgba(255, 80, 8, 0)"/></g><g class="mark-group role-legend" role="graphics-symbol" aria-roledescription="legend" aria-label="Gradient legend titled 'Number of Dwells' for fill color with values from 0 to 19"><g transform="translate(498,0)"><path class="background" aria-hidden="true" d="M0,0h93v156h-93Z" pointer-events="none"/><g><g class="mark-group role-legend-entry"><g transform="translate(0,16)"><path class="background" aria-hidden="true" d="M0,0h0v0h0Z" pointer-events="none"/><g><g class="mark-rect role-legend-gradient" pointer-events="none"><path d="M0,0h16v140h-16Z" fill="url(#gradient_1)" stroke="#ddd" stroke-width="0" opacity="1"/></g><g class="mark-text role-legend-label" pointer-events="none"><text text-anchor="start" transform="translate(18,138)" font-family="Space Grotesk" font-size="10px" fill="#000" opacity="1">0</text><text text-anchor="start" transform="translate(18,8)" font-family="Space Grotesk" font-size="10px" fill="#000" opacity="1">19</text></g></g><path class="foreground" aria-hidden="true" d="" pointer-events="none" display="none"/></g></g><g class="mark-text role-legend-title" pointer-events="none"><text text-anchor="start" transform="translate(0,9)" font-family="Space Grotesk" font-size="11px" font-weight="bold" fill="#000" opacity="1">Number of Dwells</text></g></g><path class="foreground" aria-hidden="true" d="" pointer-events="none" display="none"/></g></g><g class="mark-group role-title"><g transform="translate(240,-17)"><path class="background" aria-hidden="true" d="M0,0h0v0h0Z" pointer-events="none"/><g><g class="mark-text role-title-text" role="graphics-symbol" aria-roledescription="title" aria-label="Title text 'Blank Street Coffee shops are busiest between 7-9am'" pointer-events="none"><text text-anchor="middle" transform="translate(0,10)" font-family="Space Grotesk" font-size="13px" font-weight="bold" fill="#000" opacity="1">Blank Street Coffee shops are busiest between 7-9am</text></g></g><path class="foreground" aria-hidden="true" d="" pointer-events="none" display="none"/></g></g><g class="mark-group role-axis" role="graphics-symbol" aria-roledescription="axis" aria-label="X-axis titled 'Hour of Day' for a discrete scale with 24 values: 0, 1, 2, 3, 4, ending with 23"><g transform="translate(0.5,140.5)"><path class="background" aria-hidden="true" d="M0,0h0v0h0Z" pointer-events="none"/><g><g class="mark-rule role-axis-tick" pointer-events="none"><line transform="translate(10,0)" x2="0" y2="5" stroke="#888" stroke-width="1" opacity="1"/><line transform="translate(30,0)" x2="0" y2="5" stroke="#888" stroke-width="1" opacity="1"/><line transform="translate(50,0)" x2="0" y2="5" stroke="#888" stroke-width="1" opacity="1"/><line transform="translate(70,0)" x2="0" y2="5" stroke="#888" stroke-width="1" opacity="1"/><line transform="translate(90,0)" x2="0" y2="5" stroke="#888" stroke-width="1" opacity="1"/><line transform="translate(110,0)" x2="0" y2="5" stroke="#888" stroke-width="1" opacity="1"/><line transform="translate(130,0)" x2="0" y2="5" stroke="#888" stroke-width="1" opacity="1"/><line transform="translate(150,0)" x2="0" y2="5" stroke="#888" stroke-width="1" opacity="1"/><line transform="translate(170,0)" x2="0" y2="5" stroke="#888" stroke-width="1" opacity="1"/><line transform="translate(190,0)" x2="0" y2="5" stroke="#888" stroke-width="1" opacity="1"/><line transform="translate(210,0)" x2="0" y2="5" stroke="#888" stroke-width="1" opacity="1"/><line transform="translate(230,0)" x2="0" y2="5" stroke="#888" stroke-width="1" opacity="1"/><line transform="translate(250,0)" x2="0" y2="5" stroke="#888" stroke-width="1" opacity="1"/><line transform="translate(270,0)" x2="0" y2="5" stroke="#888" stroke-width="1" opacity="1"/><line transform="translate(290,0)" x2="0" y2="5" stroke="#888" stroke-width="1" opacity="1"/><line transform="translate(310,0)" x2="0" y2="5" stroke="#888" stroke-width="1" opacity="1"/><line transform="translate(330,0)" x2="0" y2="5" stroke="#888" stroke-width="1" opacity="1"/><line transform="translate(350,0)" x2="0" y2="5" stroke="#888" stroke-width="1" opacity="1"/><line transform="translate(370,0)" x2="0" y2="5" stroke="#888" stroke-width="1" opacity="1"/><line transform="translate(390,0)" x2="0" y2="5" stroke="#888" stroke-width="1" opacity="1"/><line transform="translate(410,0)" x2="0" y2="5" stroke="#888" stroke-width="1" opacity="1"/><line transform="translate(430,0)" x2="0" y2="5" stroke="#888" stroke-width="1" opacity="1"/><line transform="translate(450,0)" x2="0" y2="5" stroke="#888" stroke-width="1" opacity="1"/><line transform="translate(470,0)" x2="0" y2="5" stroke="#888" stroke-width="1" opacity="1"/></g><g class="mark-text role-axis-label" pointer-events="none"><text text-anchor="end" transform="translate(9.5,7) rotate(270) translate(0,3)" font-family="Space Grotesk" font-size="10px" fill="#000" opacity="1">0</text><text text-anchor="end" transform="translate(29.5,7) rotate(270) translate(0,3)" font-family="Space Grotesk" font-size="10px" fill="#000" opacity="1">1</text><text text-anchor="end" transform="translate(49.5,7) rotate(270) translate(0,3)" font-family="Space Grotesk" font-size="10px" fill="#000" opacity="1">2</text><text text-anchor="end" transform="translate(69.5,7) rotate(270) translate(0,3)" font-family="Space Grotesk" font-size="10px" fill="#000" opacity="1">3</text><text text-anchor="end" transform="translate(89.5,7) rotate(270) translate(0,3)" font-family="Space Grotesk" font-size="10px" fill="#000" opacity="1">4</text><text text-anchor="end" transform="translate(109.5,7) rotate(270) translate(0,3)" font-family="Space Grotesk" font-size="10px" fill="#000" opacity="1">5</text><text text-anchor="end" transform="translate(129.5,7) rotate(270) translate(0,3)" font-family="Space Grotesk" font-size="10px" fill="#000" opacity="1">6</text><text text-anchor="end" transform="translate(149.5,7) rotate(270) translate(0,3)" font-family="Space Grotesk" font-size="10px" fill="#000" opacity="1">7</text><text text-anchor="end" transform="translate(169.5,7) rotate(270) translate(0,3)" font-family="Space Grotesk" font-size="10px" fill="#000" opacity="1">8</text><text text-anchor="end" transform="translate(189.5,7) rotate(270) translate(0,3)" font-family="Space Grotesk" font-size="10px" fill="#000" opacity="1">9</text><text text-anchor="end" transform="translate(209.5,7) rotate(270) translate(0,3)" font-family="Space Grotesk" font-size="10px" fill="#000" opacity="1">10</text><text text-anchor="end" transform="translate(229.5,7) rotate(270) translate(0,3)" font-family="Space Grotesk" font-size="10px" fill="#000" opacity="1">11</text><text text-anchor="end" transform="translate(249.5,7) rotate(270) translate(0,3)" font-family="Space Grotesk" font-size="10px" fill="#000" opacity="1">12</text><text text-anchor="end" transform="translate(269.5,7) rotate(270) translate(0,3)" font-family="Space Grotesk" font-size="10px" fill="#000" opacity="1">13</text><text text-anchor="end" transform="translate(289.5,7) rotate(270) translate(0,3)" font-family="Space Grotesk" font-size="10px" fill="#000" opacity="1">14</text><text text-anchor="end" transform="translate(309.5,7) rotate(270) translate(0,3)" font-family="Space Grotesk" font-size="10px" fill="#000" opacity="1">15</text><text text-anchor="end" transform="translate(329.5,7) rotate(270) translate(0,3)" font-family="Space Grotesk" font-size="10px" fill="#000" opacity="1">16</text><text text-anchor="end" transform="translate(349.5,7) rotate(270) translate(0,3)" font-family="Space Grotesk" font-size="10px" fill="#000" opacity="1">17</text><text text-anchor="end" transform="translate(369.5,7) rotate(270) translate(0,3)" font-family="Space Grotesk" font-size="10px" fill="#000" opacity="1">18</text><text text-anchor="end" transform="translate(389.5,7) rotate(270) translate(0,3)" font-family="Space Grotesk" font-size="10px" fill="#000" opacity="1">19</text><text text-anchor="end" transform="translate(409.5,7) rotate(270) translate(0,3)" font-family="Space Grotesk" font-size="10px" fill="#000" opacity="1">20</text><text text-anchor="end" transform="translate(429.5,7) rotate(270) translate(0,3)" font-family="Space Grotesk" font-size="10px" fill="#000" opacity="1">21</text><text text-anchor="end" transform="translate(449.5,7) rotate(270) translate(0,3)" font-family="Space Grotesk" font-size="10px" fill="#000" opacity="1">22</text><text text-anchor="end" transform="translate(469.5,7) rotate(270) translate(0,3)" font-family="Space Grotesk" font-size="10px" fill="#000" opacity="1">23</text></g><g class="mark-rule role-axis-domain" pointer-events="none"><line transform="translate(0,0)" x2="480" y2="0" stroke="#888" stroke-width="1" opacity="1"/></g><g class="mark-text role-axis-title" pointer-events="none"><text text-anchor="middle" transform="translate(240,32.439998626708984)" font-family="Space Grotesk" font-size="11px" font-weight="bold" fill="#000" opacity="1">Hour of Day</text></g></g><path class="foreground" aria-hidden="true" d="" pointer-events="none" display="none"/></g></g><g class="mark-group role-axis" role="graphics-symbol" aria-roledescription="axis" aria-label="Y-axis titled 'Day of Week' for a discrete scale with 7 values: Monday, Tuesday, Wednesday, Thursday, Friday, Saturday, Sunday"><g transform="translate(0.5,0.5)"><path class="background" aria-hidden="true" d="M0,0h0v0h0Z" pointer-events="none"/><g><g class="mark-rule role-axis-tick" pointer-events="none"><line transform="translate(0,10)" x2="-5" y2="0" stroke="#888" stroke-width="1" opacity="1"/><line transform="translate(0,30)" x2="-5" y2="0" stroke="#888" stroke-width="1" opacity="1"/><line transform="translate(0,50)" x2="-5" y2="0" stroke="#888" stroke-width="1" opacity="1"/><line transform="translate(0,70)" x2="-5" y2="0" stroke="#888" stroke-width="1" opacity="1"/><line transform="translate(0,90)" x2="-5" y2="0" stroke="#888" stroke-width="1" opacity="1"/><line transform="translate(0,110)" x2="-5" y2="0" stroke="#888" stroke-width="1" opacity="1"/><line transform="translate(0,130)" x2="-5" y2="0" stroke="#888" stroke-width="1" opacity="1"/></g><g class="mark-text role-axis-label" pointer-events="none"><text text-anchor="end" transform="translate(-7,12.5)" font-family="Space Grotesk" font-size="10px" fill="#000" opacity="1">Monday</text><text text-anchor="end" transform="translate(-7,32.5)" font-family="Space Grotesk" font-size="10px" fill="#000" opacity="1">Tuesday</text><text text-anchor="end" transform="translate(-7,52.5)" font-family="Space Grotesk" font-size="10px" fill="#000" opacity="1">Wednesday</text><text text-anchor="end" transform="translate(-7,72.5)" font-family="Space Grotesk" font-size="10px" fill="#000" opacity="1">Thursday</text><text text-anchor="end" transform="translate(-7,92.5)" font-family="Space Grotesk" font-size="10px" fill="#000" opacity="1">Friday</text><text text-anchor="end" transform="translate(-7,112.5)" font-family="Space Grotesk" font-size="10px" fill="#000" opacity="1">Saturday</text><text text-anchor="end" transform="translate(-7,132.5)" font-family="Space Grotesk" font-size="10px" fill="#000" opacity="1">Sunday</text></g><g class="mark-rule role-axis-domain" pointer-events="none"><line transform="translate(0,0)" x2="0" y2="140" stroke="#888" stroke-width="1" opacity="1"/></g><g class="mark-text role-axis-title" pointer-events="none"><text text-anchor="middle" transform="translate(-67.4699935913086,70) rotate(-90) translate(0,-2)" font-family="Space Grotesk" font-size="11px" font-weight="bold" fill="#000" opacity="1">Day of Week</text></g></g><path class="foreground" aria-hidden="true" d="" pointer-events="none" display="none"/></g></g></g><path class="foreground" aria-hidden="true" d="" display="none"/></g></g></g><defs><linearGradient id="gradient_1" x1="0" x2="0" y1="1" y2="0"><stop offset="0" stop-color="rgba(255, 80, 8, 0)"/><stop offset="0.05263157894736842" stop-color="rgba(255, 80, 8, 0.05263157894736842)"/><stop offset="0.10526315789473684" stop-color="rgba(255, 80, 8, 0.10526315789473684)"/><stop offset="0.15789473684210525" stop-color="rgba(255, 80, 8, 0.15789473684210525)"/><stop offset="0.21052631578947367" stop-color="rgba(255, 80, 8, 0.21052631578947367)"/><stop offset="0.2631578947368421" stop-color="rgba(255, 80, 8, 0.2631578947368421)"/><stop offset="0.3157894736842105" stop-color="rgba(255, 80, 8, 0.3157894736842105)"/><stop offset="0.3684210526315789" stop-color="rgba(255, 80, 8, 0.3684210526315789)"/><stop offset="0.42105263157894735" stop-color="rgba(255, 80, 8, 0.42105263157894735)"/><stop offset="0.47368421052631576" stop-color="rgba(255, 80, 8, 0.47368421052631576)"/><stop offset="0.5263157894736842" stop-color="rgba(255, 80, 8, 0.5263157894736842)"/><stop offset="0.5789473684210527" stop-color="rgba(255, 80, 8, 0.5789473684210527)"/><stop offset="0.631578947368421" stop-color="rgba(255, 80, 8, 0.631578947368421)"/><stop offset="0.6842105263157895" stop-color="rgba(255, 80, 8, 0.6842105263157894)"/><stop offset="0.7368421052631579" stop-color="rgba(255, 80, 8, 0.7368421052631579)"/><stop offset="0.7894736842105263" stop-color="rgba(255, 80, 8, 0.7894736842105263)"/><stop offset="0.8421052631578947" stop-color="rgba(255, 80, 8, 0.8421052631578947)"/><stop offset="0.8947368421052632" stop-color="rgba(255, 80, 8, 0.894736842105263)"/><stop offset="0.9473684210526315" stop-color="rgba(255, 80, 8, 0.9473684210526315)"/><stop offset="1" stop-color="rgb(255, 80, 8)"/></linearGradient></defs></svg>